<svg width="330" height="250" viewBox="0 0 330 250" fill="none" xmlns="http://www.w3.org/2000/svg">
<path fill-rule="evenodd" clip-rule="evenodd" d="M33.8561 129.691C23.1588 130.73 12.5699 132.326 1.85815 134.525L0.977065 135.126L0.777154 136.185L1.37302 137.061L2.41127 137.263C16.4409 134.329 30.7046 132.583 45.0945 131.316C71.8432 128.957 98.4233 127.408 125.618 128.555C134.221 128.916 142.846 129.722 151.212 131.752C151.212 131.752 152.787 132.897 153.926 132.522C153.926 132.522 154.07 132.141 154.035 131.879L153.263 130.848C152.955 130.717 153.666 131.071 152.384 130.36C152.384 130.36 148.091 129.14 144.727 128.503C131.124 125.93 117.204 125.811 103.129 125.908C79.9894 126.07 56.7708 127.498 33.8561 129.691Z" fill="white"/>
<path fill-rule="evenodd" clip-rule="evenodd" d="M85.5088 107.376C85.5088 107.376 86.4681 107.54 86.4989 107.547C87.5701 107.831 87.0852 107.642 87.8817 108.098C88.5349 108.472 88.0236 108.165 88.371 108.437C88.371 108.437 89.149 109.277 89.1198 109.234C89.3294 109.535 89.1542 109.226 89.4408 109.756C89.5745 109.999 89.2875 109.098 89.9264 110.844C91.4918 115.086 88.3321 119.78 84.4262 123.286C84.4262 123.286 83.1126 124.928 81.998 126.184L81.8101 127L82.6474 127.095C83.6813 126.675 83.4232 126.81 84.2871 126.396C85.0783 126.009 86.1752 125.407 86.1752 125.407C90.8704 121.6 95.1229 115.632 92.7468 109.58C92.3209 108.486 91.2345 107.099 91.2345 107.099C90.4169 106.214 89.3557 105.457 89.274 105.6C84.114 102.977 78.5349 105.94 74.0656 107.021C73.3305 107.206 72.5904 107.498 72.0748 108.195L71.9268 108.641C71.9268 108.641 73.1157 108.949 73.3367 108.897C73.7388 108.799 73.483 108.853 73.7443 108.803C76.0258 108.359 78.3425 107.811 82.8642 107.383C83.6799 107.305 84.2886 107.267 85.2906 107.352C85.4173 107.365 85.4273 107.364 85.5088 107.376Z" fill="white"/>
<path fill-rule="evenodd" clip-rule="evenodd" d="M60.8257 111.701C60.8257 111.701 61.5261 110.575 61.5486 110.547C62.0102 110.021 61.768 110.27 62.2475 109.878C62.4196 109.736 63.3279 109.157 63.3279 109.157C63.9289 108.829 63.9299 108.839 64.1605 108.731C67.604 107.107 71.5687 106.838 75.2176 106.835C75.3384 106.839 75.3682 106.836 75.3682 106.836C77.6331 106.9 79.5415 107.33 81.2011 106.734L81.4276 106.321L80.31 106.182C79.7496 106.201 80.1712 106.2 79.611 106.169C79.611 106.169 77.7473 105.89 76.3042 105.602C75.6852 105.48 75.6554 105.483 75.3955 105.443C69.2545 104.58 62.0736 105.071 58.9003 109.205C58.2889 110.001 57.8616 111.096 57.8616 111.096C56.2557 115.873 59.9919 121.031 62.9296 124.455C64.0536 125.762 65.2768 127.006 66.7472 127.894L67.395 127.792C67.395 127.792 67.0168 126.935 67.1194 127.01C66.6805 126.62 66.9009 126.825 66.645 126.564C63.6189 123.475 61.5213 119.389 60.5946 115.528L60.4248 114.54C60.3841 114.167 60.4239 114.635 60.3969 114.196L60.4096 113.332C60.4553 112.866 60.3953 113.288 60.4839 112.798L60.7656 111.807C60.7966 111.764 60.7966 111.764 60.8257 111.701Z" fill="white"/>
<path fill-rule="evenodd" clip-rule="evenodd" d="M35.0029 82.1931C27.3765 85.5832 23.1722 94.8348 18.4762 102.673C17.013 105.112 15.733 107.839 15.9582 110.769C16.2542 114.701 18.9791 117.999 21.6463 120.484C24.5176 123.161 27.6663 125.59 31.0983 127.465C34.0904 129.097 37.3291 130.368 40.7313 130.725L41.2006 130.384L40.8506 129.925C39.8431 129.731 39.574 129.646 38.9538 129.459C32.2042 127.43 26.3854 122.591 21.9485 117.138C20.9187 115.871 19.9389 114.549 19.2971 113.035C19.2971 113.035 19.1024 112.521 19.1166 112.565C18.9162 111.992 19.1294 112.699 18.9214 111.941L18.7673 111.223C18.7179 110.917 18.7733 111.338 18.7167 110.851C18.7167 110.851 18.6858 110.056 18.6884 110.031C18.7083 109.452 18.6505 109.949 18.7631 109.186C18.7799 109.099 19.0562 107.948 19.0562 107.948C19.0794 107.875 19.1031 107.808 19.1263 107.735C19.236 107.414 19.2008 107.517 19.2486 107.387C20.0454 105.328 21.3568 103.506 22.5237 101.643C26.3474 95.4947 29.4464 88.5926 35.755 84.912C35.8646 84.8513 36.6466 84.5255 36.671 84.5181C38.3321 84.0429 37.7763 84.2668 38.6987 84.3592C38.6987 84.3592 39.5756 84.5012 39.5294 84.4905C45.9317 85.8806 51.8754 89.8745 57.0074 93.3588C61.4468 96.3722 65.5511 99.8695 69.3478 103.667C70.7746 105.097 71.0038 105.446 71.0038 105.446L72.9101 106.223C73.5262 105.737 72.2504 105.412 72.9456 105.597L72.613 104.324C64.8128 95.6687 55.4051 88.4174 44.458 83.4366C44.1221 83.2831 43.7866 83.1345 43.4512 82.9859C41.0795 81.963 38.436 81.1418 35.8325 81.8929L35.1961 82.1144C35.0945 82.1542 35.0945 82.1542 35.0029 82.1931Z" fill="white"/>
<path fill-rule="evenodd" clip-rule="evenodd" d="M38.7334 103.395C34.4132 103.883 29.8273 105.843 28.2011 110.25L28.3155 110.817C28.3155 110.817 28.8679 110.242 28.8267 110.336C29.0974 109.703 28.8806 110.165 29.1864 109.584L29.598 108.902C29.9623 108.355 29.7057 108.716 30.0596 108.27L30.5672 107.7C31.0106 107.246 30.6931 107.547 31.1243 107.175L31.7169 106.706C32.2336 106.336 31.885 106.575 32.3536 106.279C32.3536 106.279 33.1156 105.85 33.0205 105.904C41.0425 101.824 51.9576 105.106 58.8393 110.089C59.0014 110.209 58.6782 109.979 59.1754 110.559C59.1754 110.559 60.0571 110.856 60.2014 110.37C60.2014 110.37 60.1874 109.333 60.3443 109.503C60.1869 109.328 61.0962 109.702 59.2379 108.485C53.2213 104.568 45.7517 102.673 38.7334 103.395Z" fill="white"/>
<path fill-rule="evenodd" clip-rule="evenodd" d="M38.61 110.077C38.61 110.077 38.1934 107.507 38.192 107.492C38.1563 106.647 38.1289 107.358 38.2087 106.356C38.2224 106.184 38.429 105.301 38.429 105.301C39.0049 103.871 38.5927 104.808 38.9706 104.561L39.311 104.027C39.311 104.027 38.9369 103.736 38.5061 104.009C36.4496 105.335 37.0725 108.959 37.6979 111.088C37.8478 111.606 38.0311 112.105 38.2443 112.602C40.3197 117.453 45.183 120.752 50.3308 122.041C51.8014 122.407 53.2947 122.696 54.7946 122.949C54.7946 122.949 56.5401 123.093 56.6917 123.104C57.7922 123.169 59.2461 123.151 59.4763 123.144C59.792 123.139 60.1018 123.124 60.4171 123.114C61.4057 123.059 62.3592 122.848 62.3592 122.848C62.7503 122.79 62.5423 122.82 62.5423 122.82C62.5423 122.82 63.0722 122.955 63.0291 122.452C63.0291 122.452 62.8736 122.086 61.6334 122.029C60.4185 121.974 63.8094 122.634 57.8461 121.267C55.5871 120.74 54.7154 120.653 53.5026 120.463C47.3203 119.483 40.8675 116.778 38.7032 110.369C38.6261 110.141 38.6262 110.141 38.61 110.077ZM62.4192 122.32C62.4192 122.32 62.2281 122.946 62.3572 122.406C62.3616 122.401 62.4696 122.27 62.4192 122.32Z" fill="white"/>
<path fill-rule="evenodd" clip-rule="evenodd" d="M120.616 78.3824C114.787 79.0457 109.49 82.1827 104.48 85.4228C101.672 87.2375 98.8934 89.0996 96.1439 90.999L95.7863 91.2491C89.5601 95.7901 83.1434 100.124 77.7026 105.267L77.3851 105.569L77.3379 106.492L78.2605 106.534C84.0503 101.628 90.7626 97.7079 97.249 93.4732C103.873 89.1601 110.211 83.996 117.577 81.8204C119.998 81.1019 122.669 80.6355 124.884 81.4374C127.978 82.5618 129.763 85.6435 131.499 88.198C135.289 93.7632 139.121 99.711 139.861 106.246C140.208 109.294 138.954 112.341 136.343 114.533C131.353 118.72 124.695 120.331 118.34 121.953C118.34 121.953 115.944 122.669 114.282 123.129C108.953 124.568 103.399 125.17 98.0889 126.431C97.8336 126.49 97.5669 126.536 97.3481 126.662L97.2105 127.112C97.2105 127.112 98.1236 127.16 98.0101 127.181C101.006 126.749 104.059 126.658 107.092 126.463C108.099 126.391 108.216 126.355 108.727 126.291C111.643 125.927 114.545 125.403 117.414 124.807L118.832 124.516C126.792 122.575 135.348 120.606 140.473 114.319C144.677 109.153 142.027 101.124 139.15 95.4065C137.104 91.3358 134.61 87.5038 131.883 83.8697C129.462 80.653 126.198 77.9687 121.149 78.3414C120.964 78.3441 120.789 78.3608 120.616 78.3824Z" fill="white"/>
<path fill-rule="evenodd" clip-rule="evenodd" d="M123.631 96.8766C123.631 96.8766 123.178 98.496 123.176 98.5213C123.093 99.0211 123.5 97.6069 122.858 99.9772C122.858 99.9772 122.133 106.251 119.143 109.669C118.414 110.497 117.975 110.84 117.358 111.315C114.912 113.196 111.969 114.331 109.049 115.393C103.006 117.593 96.5631 119.088 90.2196 118.259L89.4979 118.795L90.0337 119.517C97.9334 120.819 106.138 118.799 113.525 115.798C119.555 113.349 123.937 108.161 125.29 100.683L125.069 96.8042C124.32 96.2133 125.155 95.9126 123.999 96.1637C123.999 96.1637 123.646 96.3581 123.755 96.6086C123.755 96.6086 124.769 96.9685 124.191 97.1241C124.181 97.125 123.688 97.0066 123.631 96.8766Z" fill="white"/>
<path fill-rule="evenodd" clip-rule="evenodd" d="M119.122 95.767C110.622 96.6908 102.598 100.385 95.0239 104.578C95.0049 104.59 92.4048 106.32 90.2498 107.876L89.9162 108.114L89.6339 109.255L90.7818 109.502C99.9646 104.648 108.93 99.3072 119.374 97.9815C123.218 97.4983 127.459 98.1214 130.422 100.659C131.565 101.634 132.785 103.053 132.785 103.053C133.233 103.442 133.673 103.836 134.121 104.225C134.843 104.844 135.578 105.446 136.354 105.994L136.824 105.974C136.824 105.974 135.576 103.9 134.33 101.996C134.33 101.996 131.936 98.752 128.788 97.171C125.967 95.7544 122.717 95.4582 119.55 95.7261C119.336 95.7465 119.336 95.7465 119.122 95.767Z" fill="white"/>
<path fill-rule="evenodd" clip-rule="evenodd" d="M101.015 127.531L100.833 127.624L100.789 127.156C100.789 127.156 99.9894 127.092 100.219 127.708C100.443 128.314 101.305 128.412 101.305 128.412C101.654 128.589 101.418 128.436 101.535 128.556C107.118 134.24 109.936 142.594 111.687 150.352C112.165 152.465 112.55 154.596 112.86 156.74C113.463 160.884 114.005 165.078 114.159 169.205L114.167 169.45C111.692 166.349 108.992 163.52 105.883 160.987C104.568 159.933 102.55 159.463 100.982 160.913C100.982 160.913 96.1544 167.374 93.7825 170.597C93.7825 170.597 93.6914 166.656 93.5021 163.838C92.8412 153.943 91.6563 144.077 90.0159 134.331C89.9786 134.099 89.9368 133.872 89.8995 133.639C89.4849 131.3 88.6852 129.133 87.7635 127.002L86.9832 126.61L86.6119 127.399C86.9775 128.754 87.049 129.134 87.2073 130.002C89.6263 142.796 91.1096 156.041 91.5325 169.011C91.6072 171.207 90.6379 174.296 92.569 174.754C92.7955 174.813 93.4747 174.672 94.3153 173.543C96.8491 170.123 99.0645 166.523 101.768 163.192C101.839 163.105 101.902 163.029 101.975 162.947C102.12 162.782 102.269 162.612 102.435 162.456C103.664 161.294 105.573 163.305 107.472 165.106C109.52 167.048 111.38 169.179 113.138 171.395C113.92 172.375 113.414 172.383 114.555 172.826C115.27 173.109 115.967 172.159 115.992 172.001C116.071 171.351 116.065 171.296 116.076 170.989C116.231 167.576 115.504 164.172 115.072 160.71C113.55 148.789 110.614 136.2 102.027 128.032C101.631 127.673 101.282 127.646 101.015 127.531Z" fill="white"/>
<path fill-rule="evenodd" clip-rule="evenodd" d="M67.2585 129.828C67.2585 129.828 69.1197 128.139 67.9147 128.45C67.9147 128.45 64.88 130.306 62.847 132.403L62.7741 132.48C54.9394 143.083 50.9257 156.478 50.8656 169.067C50.8656 169.067 46.6336 162.872 45.0933 160.309C44.4623 159.275 43.477 158.315 42.33 158.445C40.3681 158.663 38.9866 160.276 37.354 161.626C36.3636 162.449 35.4028 163.319 34.4797 164.215C33.5421 165.118 32.6496 166.072 31.7907 167.063C31.7907 167.063 32.8132 161.75 34.5067 157.522C37.8432 149.167 42.9958 141.641 48.2532 134.372C48.2532 134.372 49.7548 131.653 51.6388 129.415L51.6534 128.887C51.6534 128.887 51.2008 128.825 50.7687 129.187C49.3791 130.349 48.13 131.668 46.9186 133.014C46.9186 133.014 45.8474 134.462 45.1063 135.476C38.2962 144.721 32.0109 154.363 29.7947 165.979C29.6746 166.613 29.5193 167.245 29.4241 167.876C29.4066 168.009 29.3887 168.136 29.3757 168.263C29.2422 169.49 29.6441 172.483 32.6063 169.449C35.3913 166.608 38.1636 163.793 41.5238 161.298C42.7482 160.402 42.8591 161.09 43.0665 161.421C45.7611 165.766 47.7292 168.76 50.5933 172.883C51.1808 173.725 52.0508 174.32 52.0508 174.32C54.6827 174.6 53.3074 171.243 53.3074 171.243C52.4653 158.037 57.0072 144.497 64.5081 134.132C64.5081 134.132 66.0816 131.481 66.9758 130.126C67.1676 129.821 67.0345 130.005 67.2585 129.828ZM68.0337 129.116C68.0337 129.116 67.9279 129.217 67.76 128.931C67.765 128.931 68.1237 129.113 68.0337 129.116Z" fill="white"/>
<path fill-rule="evenodd" clip-rule="evenodd" d="M87.1229 128.91L87.009 129.032C87.009 129.032 86.4024 127.413 86.4629 129.671C86.4669 129.766 86.4655 129.751 86.4655 129.751C86.2767 134.965 85.8932 140.136 85.5749 145.306L85.5203 146.205L85.2704 151.304C84.5365 182.188 83.9489 213.079 82.9982 244.109L82.9833 244.688L83.3425 245.085L83.7294 244.722C84.8629 221.896 85.7159 198.971 86.5999 176.108L86.6796 174.108C86.9333 166.845 87.1825 159.589 87.4263 152.327L87.4597 151.365C87.5218 144.146 87.5209 136.898 87.2133 129.75C87.1346 128.613 87.1604 129.459 87.1229 128.91Z" fill="white"/>
<path fill-rule="evenodd" clip-rule="evenodd" d="M61.1005 136.917C61.1005 136.917 60.9369 139.141 60.8642 141.267C60.8471 141.876 60.8495 141.9 60.8589 142.155C62.2881 174.138 63.3809 205.962 63.1393 237.793C63.1257 239.802 63.0923 241.813 63.0181 243.818L62.9944 244.357L63.516 244.93L64.0885 244.408C65.5423 213.861 63.657 183.198 62.7896 151.789C62.766 150.913 62.7374 150.037 62.7138 149.161C62.6143 146.023 62.404 142.881 62.5146 139.788C62.5543 138.525 62.7278 137.243 61.6948 136.519L61.2409 136.392C61.2454 136.386 61.1256 136.97 61.1005 136.917Z" fill="white"/>
<path fill-rule="evenodd" clip-rule="evenodd" d="M152.451 134.475C152.639 135.391 152.542 133.954 152.47 135.357C151.596 152.029 150.355 168.647 149.316 185.22C148.344 200.657 146.971 216.053 144.755 231.398C143.836 237.941 144.068 245.087 140.197 250.427C140.17 250.464 139.681 251.073 139.672 251.084C139.251 251.561 139.58 251.224 139.097 251.686C137.663 253.058 137.458 252.862 137.458 252.862L137.209 253.669C137.209 253.669 137.84 254.02 138.26 253.789C142.818 251.225 144.118 245.459 144.926 240.844C150.288 210.219 151.711 178.827 153.929 147.555C153.978 146.862 154.022 146.175 154.067 145.488C154.309 141.881 154.556 138.274 154.438 134.732C154.34 133.185 153.877 133.274 153.877 133.274C152.929 131.553 153.495 132.904 153.495 132.904L153.829 132.456C153.829 132.456 152.556 131.007 152.45 134.204C152.445 134.415 152.441 134.421 152.451 134.475Z" fill="white"/>
<path fill-rule="evenodd" clip-rule="evenodd" d="M2.80793 136.111L1.68249 136.414C1.68249 136.414 2.56247 135.959 2.11209 135.711C2.11209 135.711 0.952316 136.022 1.29899 137.39C1.29899 137.39 1.61705 140.451 1.7633 142.766C1.7633 142.766 2.21651 148.761 2.48565 153.619C3.0519 163.89 3.16504 174.199 3.19717 184.501L3.20039 184.797C3.45174 202.687 5.63574 220.317 7.04983 238.714C7.27785 241.673 7.45565 244.633 7.5335 247.597L7.94938 248.009L8.35587 247.588C8.35196 232.651 6.1258 217.675 5.63198 202.549C5.18787 188.938 5.70043 175.307 5.17055 161.639C4.85634 153.478 4.48477 145.241 3.1673 137.296C2.95835 136.162 2.81528 136.135 2.80793 136.111Z" fill="white"/>
<path fill-rule="evenodd" clip-rule="evenodd" d="M0.590332 249.548C0.590332 249.548 16.618 248.736 26.4422 248.387C54.7852 247.321 83.111 245.866 111.04 249.548C123.115 251.002 134.93 253.616 146.571 257.296L147.226 256.746C147.226 256.746 147.552 257.478 147.998 256.993L147.819 256.228C146.834 254.956 146.844 255.427 145.48 254.91C134.553 250.726 122.996 248.499 111.364 246.952C83.5999 243.264 54.5498 245.176 26.3615 246.548C18.1803 246.919 0.590332 249.548 0.590332 249.548ZM147.522 256.321C147.522 256.321 146.969 256.786 147.391 256.374C147.397 256.378 147.549 256.289 147.522 256.321Z" fill="white"/>
<path fill-rule="evenodd" clip-rule="evenodd" d="M109.957 143.812L110.637 144.52C120.387 144.967 129.993 146.844 139.426 148.847C139.426 148.847 143.985 149.811 146.44 150.339C148.295 150.739 150.167 151.097 152.013 151.558C152.815 151.757 152.087 151.39 152.087 151.39C152.087 151.39 152.223 152.02 152.738 151.268C152.738 151.268 147.513 149.223 144.004 148.118C133.445 144.832 122.351 143.198 111.167 143.139L110.665 143.137C110.431 143.365 110.196 143.588 109.957 143.812Z" fill="white"/>
<path fill-rule="evenodd" clip-rule="evenodd" d="M89.5075 142.762C89.5075 142.762 90.5118 142.661 90.0914 142.149C89.3524 141.246 88.8869 141.993 88.7497 141.976C87.882 141.879 86.6541 141.74 86.6541 141.74L85.8771 142.537L86.6562 143.336C87.8746 143.164 89.283 142.829 89.5075 142.762Z" fill="white"/>
<path fill-rule="evenodd" clip-rule="evenodd" d="M57.4869 142.639C57.4869 142.639 58.36 143.107 58.2401 143.114C59.4587 142.997 61.305 142.936 61.315 142.935C62.3427 142.922 61.4094 142.715 61.4094 142.715C61.4094 142.715 61.6086 143.329 62.0491 142.528C62.0491 142.528 59.7333 142.037 58.0333 142.054C58.0333 142.054 57.6898 142.399 57.4869 142.639Z" fill="white"/>
<path fill-rule="evenodd" clip-rule="evenodd" d="M39.4326 143.327C37.5568 143.552 37.331 143.554 36.4791 143.62C24.9673 144.541 13.2631 144.657 2.43798 148.137L2.01675 148.981L2.86017 149.402C14.1079 145.565 26.5457 145.404 38.3531 144.164C39.9907 143.967 39.5113 143.992 39.9286 143.947C40.152 143.921 40.4874 144.07 40.1906 143.852L40.661 143.837C40.6565 143.843 41.1258 143.135 39.4326 143.327Z" fill="white"/>
<path fill-rule="evenodd" clip-rule="evenodd" d="M113.673 169.743L114.325 170.468C125.618 170.888 137.019 171.845 148.063 173.755C148.221 173.78 148.379 173.805 148.533 173.841C149.329 174.02 148.745 174.056 150.363 174.283C151.055 174.382 150.878 173.742 150.878 173.742C150.878 173.742 150.139 173.677 150.556 173.632C150.686 173.62 145.94 172.603 142.182 172.034C133.243 170.681 124.248 169.679 115.221 169.133L114.388 169.082C114.153 169.305 113.913 169.524 113.673 169.743Z" fill="white"/>
<path fill-rule="evenodd" clip-rule="evenodd" d="M112.941 169.748C113.333 169.334 112.562 169.724 112.557 169.724C111.749 169.731 111.692 169.711 111.248 169.689C105.325 169.372 100.751 168.992 95.8724 169.358L95.464 169.392L95.0592 169.883C95.0592 169.883 95.4199 170.295 96.1421 170.236C100.295 169.889 104.438 170.17 108.595 170.234C110.852 170.269 110.327 170.866 113.089 170.351C113.597 170.257 113.374 169.661 113.374 169.661C113.374 169.661 112.856 169.861 112.941 169.748Z" fill="white"/>
<path fill-rule="evenodd" clip-rule="evenodd" d="M84.6142 169.467C84.6142 169.467 84.847 169.906 85.7717 169.813C87.1042 169.68 88.4455 169.587 89.7807 169.535C90.2207 169.518 90.6608 169.501 91.1019 169.494C93.3409 169.445 92.0732 169.416 92.0732 169.416C92.0732 169.416 92.5867 169.798 92.4851 168.894C92.4851 168.894 87.9937 168.747 85.0235 168.971C84.8886 169.134 84.7537 169.298 84.6142 169.467Z" fill="white"/>
<path fill-rule="evenodd" clip-rule="evenodd" d="M3.25562 174.883L4.0032 175.509C22.7601 173.614 41.1425 171.74 60.5764 170.362C61.6979 170.28 63.0411 170.206 63.0411 170.206C63.8219 169.449 61.8613 169.732 62.7701 169.63C63.0134 169.601 59.3818 169.733 56.2357 169.954C51.1107 170.319 45.9997 170.883 40.9031 171.336C28.7926 172.399 16.6443 173.015 4.49854 174.077L3.8813 174.131C3.66942 174.382 3.46252 174.633 3.25562 174.883ZM62.6517 170.228C62.3269 169.456 62.4925 170.138 62.6517 170.228V170.228Z" fill="white"/>
<path fill-rule="evenodd" clip-rule="evenodd" d="M84.6078 196.045L85.433 197.01C91.4367 197.434 97.4425 197.251 103.524 197.593C118.785 198.456 134.043 199.391 149.107 202.758C151.518 203.3 150.167 202.4 150.167 202.4C150.061 202.285 149.686 202.351 149.686 202.351C149.686 202.351 150.49 202.42 149.311 202.106C133.962 198.234 117.854 197.125 101.828 195.978C96.486 195.596 91.114 195.688 85.8607 195.237L85.5774 195.214C85.2476 195.492 84.9277 195.768 84.6078 196.045Z" fill="white"/>
<path fill-rule="evenodd" clip-rule="evenodd" d="M27.7779 196.991C20.3936 197.718 12.9927 199.059 5.75217 200.238C5.33722 200.308 4.92725 200.377 4.51965 200.472C3.93633 200.618 3.59347 201.388 3.59347 201.388L4.42739 202.287C4.42739 202.287 5.46545 201.019 5.2952 201.652C5.15522 202.183 1.85738 202.654 8.73839 201.493C26.2797 198.54 43.9109 197.47 61.7599 196.42L63.5952 195.667C63.9774 194.993 63.0053 195.377 63.0053 195.377C63.0053 195.377 63.4365 195.215 62.9495 195.056C62.1824 194.803 61.9187 194.723 61.9187 194.723C50.4997 195.354 39.0333 195.909 27.7779 196.991Z" fill="white"/>
<path fill-rule="evenodd" clip-rule="evenodd" d="M83.5683 222.476L84.2614 223.163C102.292 223.224 120.407 225.004 137.968 228.238C137.968 228.238 140.318 228.56 142.563 228.626C143.192 228.647 142.99 228.636 143.603 228.688C143.643 228.694 144.387 228.803 144.387 228.803C145.356 229.022 145.249 229.102 145.249 229.102L145.712 229.018C145.712 229.018 145.757 228.647 145.508 228.46C144.167 227.499 142.339 227.438 140.759 227.082C140.538 227.033 140.527 227.024 140.527 227.024C130.219 224.311 118.634 223.477 107.448 222.61C99.838 222.024 92.2036 221.71 84.5701 221.773C84.5656 221.778 83.9527 222.088 83.5683 222.476Z" fill="white"/>
<path fill-rule="evenodd" clip-rule="evenodd" d="M40.3359 223.526C30.1623 224.53 20.0758 226.183 9.81456 227.426C9.58624 227.453 9.59074 227.447 9.60069 227.446C8.5384 227.518 7.4514 227.436 6.57312 227.962L6.34804 228.862C6.34804 228.862 7.29148 228.912 8.42552 228.804C8.49018 228.797 14.6842 227.959 19.0942 227.256C33.875 224.933 48.8482 222.837 63.4658 222.849L63.8009 222.521L63.4726 222.186C55.6837 222.093 48.035 222.785 40.3359 223.526Z" fill="white"/>
<path fill-rule="evenodd" clip-rule="evenodd" d="M277.737 68.7587C292.855 68.7783 308.103 69.5602 322.643 73.5558C324.691 74.2361 326.713 74.9828 328.706 75.8L329.328 76.3825L329.387 77.2035L328.835 77.7939C327.428 77.9151 326.986 77.5788 326.329 77.399C324.875 77.008 323.413 76.6523 321.943 76.3278C321.943 76.3278 317.908 75.2565 314.601 74.5997C297.265 71.1319 279.379 71.3704 261.629 71.9294C225.602 73.0671 190.071 78.9902 154.416 87.0049C152.148 87.5132 149.884 88.0488 147.64 88.6509C147.535 88.6822 147.535 88.6861 147.488 88.7017C146.233 89.1396 144.927 89.6283 143.668 89.5735C143.488 89.2139 143.43 89.2412 143.406 88.9285C143.406 88.9285 143.957 87.7751 143.727 87.8103C144.028 87.7204 143.625 87.8768 144.153 87.6383C145.06 87.2317 145.658 86.8837 145.658 86.8837C150.037 85.1791 154.67 84.4246 159.236 83.3533C197.578 74.4198 236.521 68.9464 275.575 68.7666C276.29 68.7587 277.013 68.7587 277.737 68.7587Z" fill="white"/>
<path fill-rule="evenodd" clip-rule="evenodd" d="M143.633 88.9593C143.633 88.9593 144.688 88.8654 144.775 89.0101C145.674 90.5466 145.854 91.1878 146.186 92.1417C147.617 96.2116 148.575 100.461 149.912 104.609C151.452 109.371 152.695 114.411 155.096 118.543C155.401 119.063 155.952 119.787 155.952 119.787C156.093 119.951 155.882 119.72 156.144 120.002L156.824 120.596C157 120.717 156.742 120.553 157.051 120.744L157.731 121.085C157.95 121.175 157.676 121.073 158.024 121.194C162.121 122.559 166.887 120.287 171.094 119.392C178.894 117.742 186.783 116.499 194.657 115.205C194.657 115.205 196.163 115.158 197.355 115.193L198.254 115.22L199.31 115.822L198.504 116.733C197.253 117.202 195.58 117.824 195.58 117.824C187.135 119.181 178.675 120.463 170.332 122.25C169.386 122.457 169.253 122.504 168.752 122.629C163.674 123.954 157.711 126.124 153.872 121.253C152.277 119.228 151.448 116.69 150.569 114.219C149.685 111.741 148.868 109.242 148.074 106.732C146.358 101.314 145.424 95.5079 143.132 90.4605C142.859 89.8546 143.011 88.2633 143.57 88.4314L143.844 88.67C143.844 88.6817 143.547 88.9749 143.633 88.9593Z" fill="white"/>
<path fill-rule="evenodd" clip-rule="evenodd" d="M214.948 74.3764L213.943 76.5658C210.323 81.5622 207.367 87.239 205.166 92.7125C199.372 107.139 198.36 122.969 199.177 138.701L198.672 139.296C198.672 139.296 198.281 138.955 198.082 138.783C196.538 123.383 196.522 107.374 201.921 92.7438C204.122 86.7699 207.125 81.5114 211.085 76.511C211.57 75.9011 212.149 75.1779 212.149 75.1779C212.923 74.435 214.084 73.5397 214.084 73.5397C214.416 73.5319 214.804 73.485 215.019 73.6414C215.019 73.6453 214.823 74.3959 214.948 74.3764Z" fill="white"/>
<path fill-rule="evenodd" clip-rule="evenodd" d="M209.143 127.258C209.143 127.258 208.185 128.736 207.809 129.232C205.909 131.754 204.044 134.334 202.074 136.77C201.964 136.903 202.195 136.567 201.863 137.075C201.358 137.849 200.889 138.655 200.276 139.339L198.989 139.468L198.657 139.319L198.798 138.096C199.06 137.787 198.848 138.056 199.087 137.705C199.705 136.794 199.685 136.528 200.451 135.414C202.281 132.845 204.224 130.347 205.999 127.755C205.999 127.755 206.762 125.823 207.884 124.818C207.884 124.818 208.263 124.4 208.65 124.236C209.803 123.759 211.613 124.529 211.613 124.529C212.653 125.323 213.513 126.347 214.393 127.293C214.933 127.876 215.148 128.013 215.539 128.364C218.799 131.308 222.322 133.959 226.048 136.293L226.529 136.93L226.454 137.693L225.852 138.15C224.808 138.06 224.476 137.798 223.999 137.556C219.937 135.515 216.035 133.169 212.403 130.304C210.683 128.951 210.429 128.431 209.565 127.794C209.569 127.798 209.244 127.364 209.143 127.258Z" fill="white"/>
<path fill-rule="evenodd" clip-rule="evenodd" d="M223.115 74.713C223.115 74.713 223.287 74.4667 223.147 75.1196C220.664 87.0049 220.383 99.5821 221.059 111.186C221.466 118.219 222.341 125.264 224.832 131.852C225.363 133.67 225.938 135.48 226.396 137.318L226.102 138.194L225.41 137.838C224.656 136.098 223.784 134.401 222.943 132.689C222.943 132.689 221.528 129.108 220.922 126.629C220.824 126.222 220.727 125.82 220.637 125.413C217.407 111.116 217.423 95.825 219.417 81.809C219.417 81.809 219.921 79.1348 220.293 77.7274C220.613 76.5076 220.981 75.2995 221.407 74.1148L222.603 74.064L222.302 73.8647C222.302 73.8647 222.674 72.7504 223.037 74.4863C223.049 74.5567 223.084 74.7678 223.115 74.713Z" fill="white"/>
<path fill-rule="evenodd" clip-rule="evenodd" d="M244.939 71.0302L246.018 71.7182C246.323 71.9997 245.909 71.4602 246.867 72.68C250.514 77.2895 253.321 81.4923 255.988 85.9845L256.097 86.1721C261.078 95.0861 264.045 105.06 265.281 115.334C265.871 120.268 266.133 125.233 266.25 130.198L265.832 131.966L265.461 132.478L265.054 131.993C264.835 131.375 264.522 130.507 264.522 130.507C264.491 129.968 264.46 129.428 264.425 128.889C263.514 114.751 260.863 100.403 253.599 87.9471C253.599 87.9471 252.141 85.3589 250.788 83.1617C249.369 80.8511 247.906 78.564 246.456 76.2808C246.159 75.8155 245.158 74.6075 244.372 73.3877C244.372 73.3877 244.016 72.5823 243.899 71.6636C243.899 71.6636 244.067 71.0927 244.384 70.8933C244.384 70.8855 244.927 71.1162 244.939 71.0302Z" fill="white"/>
<path fill-rule="evenodd" clip-rule="evenodd" d="M278.128 120.291C273.991 117.507 277.15 119.849 277.15 119.849C276.314 120.823 275.676 122.789 275.18 123.634C273.667 126.187 271.88 128.607 269.82 130.702C269.222 131.308 269.237 131.324 269.237 131.324C268.397 132 267.048 132.872 267.048 132.872C266.426 132.79 265.594 132.755 265.472 132.282C265.472 132.282 265.758 130.898 266.113 130.515C266.184 130.44 266.254 130.358 266.325 130.28C266.684 129.874 267.177 129.256 267.177 129.256C269.566 127 271.794 124.56 273.553 121.745C274.011 121.014 273.655 121.628 273.851 121.229C273.851 121.229 274.363 120.275 274.801 119.173C274.898 118.923 275.516 117.488 276.677 117.132C278.441 116.589 279.942 117.636 281.588 118.669C283.116 119.63 284.188 120.221 285.458 121.01L285.626 121.116C287.425 122.293 289.2 123.505 290.979 124.717L290.983 124.725C291.542 125.808 291.518 125.819 292.003 126.937L290.42 126.977L289.559 126.941C288.406 126.257 287.249 125.573 286.092 124.897C283.5 123.388 281.201 121.878 278.237 120.361C278.198 120.346 278.194 120.338 278.128 120.291Z" fill="white"/>
<path fill-rule="evenodd" clip-rule="evenodd" d="M254.674 70.6312C254.674 70.6312 255.784 70.9869 256.773 71.3779C256.773 71.3779 257.935 72.0856 258.724 72.5821C271.352 80.5343 280.083 94.5893 285.372 108.429C286.318 110.904 287.182 113.406 287.984 115.928C289.114 119.501 290.705 122.961 291.546 126.601L291.155 127.266L290.494 126.867C289.646 123.837 288.129 121.081 287.053 118.047C282.03 103.976 275.274 89.8939 263.643 80.3388C263.146 79.9322 260.66 77.9187 258.376 76.2962C257.332 75.5534 256.281 74.8262 255.221 74.1108C255.221 74.1108 253.88 73.1998 253.098 72.0777L253.216 70.9831L252.852 70.9792C252.852 70.9792 252.277 70.0291 254.279 70.4005C254.271 70.4044 254.506 70.5139 254.674 70.6312Z" fill="white"/>
<path fill-rule="evenodd" clip-rule="evenodd" d="M291.944 109.857C292.152 109.861 292.394 109.861 292.394 109.861C299.021 110.322 305.609 111.335 312.54 111.819C314.085 111.921 315.645 111.995 317.158 111.655L318.209 111.295C320.348 110.107 319.069 110.963 319.781 109.571C319.781 109.571 320.708 105.161 320.923 101.611C321.142 98.249 321.755 94.918 322.6 91.6496C323.268 89.0771 324.238 86.4928 325.161 83.9242C325.231 83.7248 325.235 83.7248 325.309 83.5254C326.099 81.4337 326.908 79.346 327.69 77.2465C328.034 76.8868 328.327 76.5819 328.327 76.5819L329.481 75.8547L329.966 77.1293C330.075 78.0676 329.907 78.5875 329.704 79.2482C328.343 83.6544 326.861 88.0293 325.747 92.4823C324.77 96.4272 323.984 100.517 323.577 104.751C323.186 108.699 322.15 113.149 317.466 114.169C314.769 114.755 311.966 114.364 309.229 114.228C303.556 113.934 297.856 113.078 292.281 112.773C292.281 112.773 289.184 112.355 286.502 112.488L286.025 112.285C284.821 111.757 284.962 111.894 284.962 111.894L284.622 111.757C284.622 111.757 285.236 110.873 286.021 110.291C286.021 110.291 287.699 109.978 288.93 109.919C289.935 109.868 290.936 109.853 291.944 109.857Z" fill="white"/>
<path fill-rule="evenodd" clip-rule="evenodd" d="M167.923 123.923C167.923 123.923 168.909 127.899 169.89 131.563C174.656 149.39 180.082 167.191 184.125 186.25C188.214 205.521 191.068 225.167 195.08 244.328L194.607 245.094C194.607 245.094 194.102 244.77 193.848 244.601C189.219 225.503 185.783 206.217 181.49 186.809C178.999 175.03 175.668 163.215 172.775 151.498C170.594 142.486 168.177 133.42 166.274 124.494C166.211 124.162 166.109 124.807 166.293 123.262C166.602 120.651 166.786 122.465 166.786 122.465L166.543 122.195C166.543 122.195 166.79 121.867 167.11 121.917C167.701 122.011 168.002 122.95 168.002 122.95C167.994 123.274 167.935 123.782 167.939 123.763C167.927 123.849 167.927 123.849 167.923 123.923Z" fill="white"/>
<path fill-rule="evenodd" clip-rule="evenodd" d="M317.693 115.002C317.572 116.088 317.47 117.175 317.384 118.266C317.384 118.266 316.454 122.445 315.797 125.46C309.655 153.761 307.008 182.806 303.572 211.624L303.517 212.097C302.454 220.593 301.425 229.065 300.405 237.513L300.092 238.112L299.482 238.311L298.935 237.99L298.747 237.349C299.404 229.119 300.088 220.878 300.827 212.64L300.901 211.812C301.21 208.617 301.527 205.423 301.848 202.229L301.875 201.963C302.45 196.853 303.044 191.74 303.658 186.634L303.771 185.684C304.322 181.246 304.897 176.805 305.495 172.371C308.037 153.507 309.929 140.449 313.479 124.936C314.007 122.625 314.581 120.315 315.176 118.012C315.176 118.012 315.954 116.01 316.825 114.298C317.725 112.589 317.079 113.399 317.506 113.027C318.385 112.261 317.877 113.606 317.725 114.716C317.713 114.798 317.752 114.509 317.693 115.002ZM317.869 113.43C317.869 113.43 317.588 113.668 317.869 113.438C317.869 113.438 317.916 113.379 317.869 113.43ZM317.408 113.234L317.459 113.395C317.459 113.399 317.416 113.184 317.408 113.234Z" fill="white"/>
<path fill-rule="evenodd" clip-rule="evenodd" d="M299.275 237.181L300.905 238.381C300.847 239.206 300.553 239.863 300.553 239.863C299.455 240.637 298.145 241.02 296.882 241.466C296.601 241.568 296.957 241.419 296.077 241.783C290.025 244.285 283.875 246.384 277.44 247.518C259.186 250.736 240.036 247.944 222.056 246.963C216.454 246.65 210.855 246.275 205.268 245.986L204.83 245.962C201.847 245.778 198.876 245.575 195.869 245.43L195.279 244.355L195.256 244.723C195.256 244.723 194.255 244.879 195.729 243.652C195.729 243.652 198.677 243.613 201.03 243.667C202.676 243.71 204.924 243.765 204.924 243.765C221.094 244.32 237.433 245.509 253.392 245.786C266.88 246.025 280.227 244.43 293.258 239.081C295.002 238.366 296.917 237.944 298.399 236.954C298.407 236.954 299.107 237.197 299.275 237.181Z" fill="white"/>
<path fill-rule="evenodd" clip-rule="evenodd" d="M225.715 73.106C225.825 73.5361 225.551 72.7346 226.098 74.1421C226.278 74.6152 226.286 76.9492 226.368 78.8688C227.815 112.687 230.466 146.783 233.851 180.836L233.972 182.063C234.074 183.138 234.176 184.214 234.277 185.293C235.658 199.563 236.772 213.825 238.406 228.048C239.09 233.995 239.989 239.926 241.334 245.759L241.26 247.19L240.834 248.054C240.834 248.054 240.318 247.675 240.056 247.491C239.751 247.01 239.364 246.388 239.364 246.388C235.396 230.069 234.684 213.004 233.038 196.67C232.592 192.209 232.151 187.748 231.721 183.287L231.627 182.286C228.886 152.229 226.79 121.972 225.547 92.3023C225.317 86.5199 225.184 80.7611 224.976 74.9162C224.969 74.5761 224.632 72.4922 225.45 72.5235C225.907 72.5431 225.715 73.2155 225.715 73.106Z" fill="white"/>
<path fill-rule="evenodd" clip-rule="evenodd" d="M243.313 72.3944C243.313 72.3944 243.516 73.5321 243.751 74.7284C243.766 74.8145 243.93 75.6003 243.946 75.7762C244.173 78.3683 244.384 80.9565 244.603 83.5446L244.634 83.9239C247.293 127.051 252.747 170.17 256.031 213.508C256.277 216.8 256.469 220.112 256.754 223.392C257.52 231.926 259.835 240.285 259.827 248.879L259.252 249.461L258.67 248.882C258.627 240.055 256.07 231.328 255.362 222.473C253.005 191.63 249.533 160.678 246.175 129.635C244.267 111.78 243.004 93.8543 242.175 75.9013C242.175 75.9013 242.116 73.2154 242.558 71.6438C243.227 69.2902 242.425 71.3232 242.765 71.0769C242.902 70.9791 242.441 70.854 242.441 70.854C242.441 70.854 242.683 70.3184 243.082 70.6351C243.594 71.0378 243.313 72.2458 243.313 72.2458C243.313 72.3201 243.313 72.3201 243.313 72.3944Z" fill="white"/>
<path fill-rule="evenodd" clip-rule="evenodd" d="M226.837 112.132L226.841 113.817L226.65 114.251C226.47 114.243 226.286 114.235 226.106 114.231C225.93 114.227 225.754 114.224 225.575 114.224C224.007 114.22 222.435 114.317 220.891 114.611L220.254 114.708L219.73 113.809C219.749 112.855 219.823 113.211 220.285 112.988C220.285 112.988 222.701 112.128 224.636 111.878C225.438 111.776 226.63 111.698 226.63 111.698C226.7 111.843 226.771 111.987 226.837 112.132Z" fill="white"/>
<path fill-rule="evenodd" clip-rule="evenodd" d="M245.572 113.121L245.666 112.3C245.666 112.3 245.346 112.722 245.181 112.601C244.83 112.339 245.733 111.663 245.741 111.663C246.409 111.682 246.053 111.667 246.088 111.663C246.89 111.526 248.016 111.35 248.016 111.35C253.087 110.721 258.224 110.596 263.295 110.932L263.912 111.225L264.147 111.862L263.862 112.464C263.263 112.691 264.284 112.707 261.743 112.683C258.267 112.66 254.803 112.797 251.347 113.082C251.347 113.082 249.627 113.16 248.274 113.223C248.274 113.223 245.639 113.141 245.604 113.133C245.592 113.125 245.584 113.125 245.572 113.121Z" fill="white"/>
<path fill-rule="evenodd" clip-rule="evenodd" d="M225.309 57.0455C223.217 57.2644 221.176 57.9994 219.409 59.1254C219.171 59.2779 219.511 59.0276 219.006 59.4069C218.854 59.5203 219.081 59.3365 218.756 59.6063C218.494 59.8213 218.662 59.6649 218.369 59.9581C218.256 60.0715 217.72 60.7479 217.72 60.7479C217.544 61.0098 217.771 60.6541 217.564 60.9903C217.564 60.9903 217.2 61.6979 217.185 61.7214C217.028 62.0654 217.181 61.7018 217.024 62.1084L216.868 62.5932C216.798 62.8552 216.88 62.519 216.801 62.8591L216.719 63.3439C216.688 63.6097 216.723 63.2735 216.692 63.6136C216.692 63.6136 216.684 64.3956 216.68 64.3565C216.704 64.8491 216.676 64.4855 216.723 64.8803L216.805 65.3769C216.915 65.8617 216.829 65.5137 216.942 65.9008L217.11 66.3934C217.298 66.8625 217.153 66.5224 217.337 66.9055C217.337 66.9055 218.686 69.263 220.621 70.7135C220.926 71.0654 221.622 71.687 221.513 71.6244C223.307 73.3095 221.864 72.9107 221.864 72.9107C221.864 72.9107 222.275 72.2578 222.349 72.7113L221.61 73.3525C221.286 73.5206 221.872 73.6379 220.742 73.2626C219.917 72.9811 219.225 72.6801 219.225 72.6801C215.425 70.088 212.599 65.3651 214.714 60.7713C216.954 55.9039 224.155 54.4026 228.867 55.8804C231.908 56.8383 234.786 58.4334 238.062 58.2496L238.426 58.5429C238.426 58.5429 238.23 58.8908 237.827 58.9417C233.965 59.3913 230.172 57.3231 226.392 57.022C226.36 57.0181 225.891 57.0103 225.876 57.0103C225.5 57.022 225.95 56.9986 225.489 57.0298C225.489 57.0298 225.61 57.0181 225.309 57.0455Z" fill="white"/>
<path fill-rule="evenodd" clip-rule="evenodd" d="M243.61 70.4552C243.844 69.5404 244.114 68.1993 244.114 68.1993C244.204 68.0312 244.294 67.8592 244.388 67.6872C244.743 67.0069 245.084 66.3149 245.404 65.6151C246.362 63.5352 247.382 61.4787 247.926 59.1799C247.949 59.086 248.059 58.3315 248.059 58.3315C248.082 57.8349 248.117 58.3315 248.043 57.7098L247.766 56.8419C247.566 56.4822 247.754 56.795 247.555 56.5096C247.382 56.2633 246.909 55.8293 246.882 55.8059C246.311 55.3484 246.78 55.6534 246.002 55.2233C246.002 55.2233 238.785 52.8932 233.14 55.5244C231.943 56.0795 230.868 56.3884 229.828 56.8888C228.624 57.4636 228.648 56.8576 228.648 56.8576L228.296 56.9475C228.296 56.9475 228.425 55.3993 228.972 55.0904C229.844 54.6095 230.782 54.2577 231.674 53.8159C231.787 53.7611 231.31 54.0113 232.147 53.5539C236.264 51.345 241.186 50.567 245.752 52.1152C248.356 52.9988 250.768 54.8949 251.003 57.7294C251.339 61.815 248.97 65.662 246.589 69.5325L244.548 71.2763L243.704 71.4874C243.7 71.4834 243.528 70.7719 243.61 70.4552Z" fill="white"/>
<path fill-rule="evenodd" clip-rule="evenodd" d="M288.449 0C297.445 0.10165 306.742 6.29838 306.633 16.9834C306.555 24.5915 302.493 31.793 298.094 38.1814C292.109 46.8803 284.52 54.4532 275.899 60.5287C269.843 64.6495 263.33 68.0782 256.429 70.3888L256.359 70.4123C253.165 71.1355 249.935 71.7064 246.745 72.3984L246.221 72.5117L245.381 72.1247L245.807 71.3037C248.774 69.904 251.808 68.6295 254.783 67.2298C254.783 67.2298 257.778 66.1195 260.065 65.0835C275.575 58.0696 289.423 46.4854 298.485 31.7969C302.536 25.2288 306.027 17.3431 302.442 10.4817C300.573 6.91223 297.05 4.30057 293.117 3.26061C282.546 0.461322 270.692 6.52126 262.626 13.887C252.547 23.0902 245.095 35.081 239.845 47.7873C239.129 49.1908 238.437 50.6296 237.835 52.0644C237.616 52.5844 238.148 52.0996 237.272 53.0301C237.077 53.2256 236.729 53.3194 236.6 53.0848L236.514 52.733C236.514 52.733 236.127 51.736 236.51 50.3129C236.811 49.1908 237.163 48.0805 237.515 46.978L237.558 46.849C243.543 32.2622 252.019 18.4065 264.546 8.91395C271.345 3.76498 279.68 0.132931 287.937 0.00391344C288.109 3.81796e-06 288.277 0 288.449 0Z" fill="white"/>
<path fill-rule="evenodd" clip-rule="evenodd" d="M243.903 52.7567C243.903 52.7567 243.301 53.3745 243.273 52.6551L242.89 52.1703C242.906 51.7402 242.683 52.5574 243.215 50.5908C243.215 50.5908 247.113 43.3737 250.549 38.8072C255.573 32.1257 261.516 25.9406 269.136 22.3633C272.49 20.7839 276.126 19.7439 279.86 19.4389C285.603 18.9698 292.034 21.0771 295.178 26.316L295.154 26.4997C295.154 26.4997 292.003 23.4698 288.922 22.5315C287.765 22.1796 286.561 21.9802 285.349 21.9099C275.387 21.3234 266.047 26.8438 260.038 32.3251C254.103 37.7438 249.075 44.2338 245.252 51.3923L244.528 52.358C244.372 52.6825 244.618 52.4323 244.173 52.6395L243.359 52.6004C243.363 52.6004 243.809 52.6277 243.903 52.7567Z" fill="white"/>
<path fill-rule="evenodd" clip-rule="evenodd" d="M281.779 20.5531L282.018 20.4789L282.241 20.7994L282.092 21.5658L282.475 21.4445L282.855 20.4671C282.929 20.5297 283.003 20.5883 283.074 20.6548C285.458 22.7464 286.799 25.9132 286.905 28.9745C287.081 33.9749 284.481 38.7212 281.92 42.5682C277.729 48.8588 271.708 53.7341 265.691 58.2888C265.691 58.2888 263.916 59.6063 262.321 60.7245C258.365 63.4964 254.291 66.0807 250.076 68.489C249.768 68.665 248.188 69.4508 246.706 70.1232C246.706 70.1232 246.12 70.1076 245.713 70.0372L245.393 69.443L245.737 68.6454C246.01 68.4694 246.28 68.2935 246.55 68.1176C247.261 67.6523 248.298 66.9564 248.298 66.9564C258.173 61.2719 267.881 54.8991 275.794 46.6968C276.787 45.6685 277.741 44.5973 278.628 43.4752C282.855 38.1347 286.831 31.4805 284.121 25.405C283.539 24.0953 282.71 22.8363 281.654 21.9215L281.592 20.7369C281.686 20.6001 281.65 20.647 281.779 20.5531Z" fill="white"/>
<path fill-rule="evenodd" clip-rule="evenodd" d="M216.02 67.8671C216.02 67.8671 216.903 67.0969 217.709 67.2689C217.709 67.2689 218.029 67.6755 217.943 67.9179C217.943 67.9179 217.404 68.8758 217.56 68.7585C217.431 68.8797 217.439 68.8797 217.439 68.8797C215.746 70.5687 212.884 70.4904 210.789 70.7016C209.17 70.8658 207.536 70.9088 205.909 70.8501C205.237 70.8267 204.568 70.7837 203.896 70.729C195.49 70.033 186.932 68.2229 179.433 65.1069C172.431 62.1943 166.391 57.1977 162.845 50.0275C157.239 38.6974 154.893 23.9855 165.476 16.6041C175.305 9.74666 190.83 14.7041 200.886 21.8743C202.07 22.7149 203.216 23.6024 204.334 24.5289C206.449 26.2844 208.431 28.1923 210.316 30.1901C212.349 32.3404 214.159 34.7291 215.941 37.1257L216.031 37.243C217.935 39.9368 219.742 42.7009 221.501 45.4923C221.622 45.6878 221.622 45.6878 221.743 45.8794C223.546 48.8155 225.297 51.779 227.068 54.7308L227.522 55.4893L227.979 56.2438L227.924 56.7599L227.424 56.6269C222.846 50.8172 218.381 44.8863 213.439 39.2995C211.782 37.3447 210.065 35.4524 208.271 33.6306C208.271 33.6306 206.5 31.7226 204.912 30.2018C197.117 22.7305 187.343 16.4008 176.095 16.3969C170.367 16.393 164.334 18.7349 161.574 24.9043C158.9 30.8742 160.3 37.7943 162.255 43.3303C164.233 48.9406 167.016 54.3828 171.579 58.0696C180.137 64.9818 191.889 66.7959 203.036 68.129C206.797 68.5669 210.558 68.5474 214.409 67.9805C214.401 67.9766 215.852 67.8866 216.02 67.8671Z" fill="white"/>
<path fill-rule="evenodd" clip-rule="evenodd" d="M218.06 58.4137C214.749 54.3281 209.913 51.6696 205.819 48.4481C204.431 47.3612 203.036 46.2899 201.613 45.25C201.613 45.25 198.684 43.0254 196.225 41.4577C189.54 37.204 181.994 33.8417 173.897 34.1662C172.036 34.2405 170.171 34.6901 168.619 35.7066L167.497 36.5941C167.427 36.6762 167.513 36.5667 167.423 36.684C166.594 37.7435 165.883 38.8773 165.05 39.9563C164.796 40.2652 164.581 39.8 164.581 39.8L164.847 39.5537C164.847 39.5537 164.417 40.015 164.819 39.3582C166.602 36.4299 168.936 33.6814 172.623 32.9621C183.538 30.8391 194.958 36.6527 203.255 42.482C203.255 42.482 204.768 43.6197 205.815 44.4524C205.815 44.4524 207.7 46.0319 208.552 46.806C212.356 50.2621 216.692 53.4914 219.276 57.5496L219.147 58.6678C219.151 58.6639 218.213 58.6053 218.06 58.4137Z" fill="white"/>
<path fill-rule="evenodd" clip-rule="evenodd" d="M179.179 35.1433C178.917 35.7805 179.046 34.2519 178.898 37.0472C178.366 46.9425 187.385 56.0011 194.939 60.114C201.386 63.6249 208.72 65.2161 215.742 65.2434L216.336 65.4702L216.606 66.0175L216.395 66.5805C215.335 67.1279 214.909 66.9676 214.311 67.0145C209.225 67.4211 204.087 66.9324 199.122 65.2395L199.06 65.2161C190.701 61.9672 183.499 55.3794 179.887 47.0989C178.276 43.4043 177.486 39.2601 178.382 35.3857C178.518 34.7875 179.038 34.0251 178.991 34.115C179.336 33.466 179.207 33.6185 179.207 33.6185L178.988 33.3839C178.988 33.3839 179.363 32.8679 179.672 33.3331C180.176 34.0916 179.097 35.3192 179.179 35.1433ZM179.269 33.6576C179.281 33.6615 179.32 33.6771 179.269 33.6576V33.6576Z" fill="white"/>
</svg>
