<svg width="208" height="404" viewBox="0 0 208 404" fill="none" xmlns="http://www.w3.org/2000/svg">
<path fill-rule="evenodd" clip-rule="evenodd" d="M46.7632 41.1819C37.7617 41.7854 28.8373 42.8588 19.7946 44.436L19.0403 44.9185L18.846 45.8013L19.324 46.5517L20.1901 46.747C32.0349 44.6371 44.0464 43.5291 56.1518 42.8269C78.654 41.5179 100.994 40.8836 123.783 42.5275C130.992 43.0462 138.208 43.9385 145.177 45.8517C145.177 45.8517 146.47 46.8512 147.435 46.5651C147.435 46.5651 147.565 46.2497 147.542 46.0285L146.921 45.1445C146.665 45.0268 147.253 45.3413 146.195 44.713C146.195 44.713 142.624 43.5814 139.817 42.9628C128.468 40.4629 116.792 40.0147 104.98 39.7435C85.5613 39.2991 66.0443 39.9162 46.7632 41.1819Z" fill="white"/>
<path fill-rule="evenodd" clip-rule="evenodd" d="M90.6607 23.753C90.6607 23.753 91.4615 23.9148 91.4872 23.9215C92.3788 24.1866 91.9767 24.0155 92.6336 24.4179C93.1723 24.7482 92.751 24.4774 93.0356 24.7151C93.0356 24.7151 93.6673 25.4387 93.6439 25.4024C93.8122 25.6603 93.673 25.3963 93.9002 25.8479C94.0062 26.0553 93.788 25.292 94.2803 26.7729C95.4875 30.3714 92.7187 34.231 89.3537 37.0747C89.3537 37.0747 88.2104 38.4191 87.2438 39.4451L87.0656 40.1251L87.7658 40.2263C88.6439 39.8996 88.4239 40.0065 89.1591 39.6809C89.8326 39.3761 90.768 38.8985 90.768 38.8985C94.8029 35.8217 98.5204 30.9205 96.6784 25.7832C96.3485 24.8549 95.4717 23.6641 95.4717 23.6641C94.8079 22.9007 93.9365 22.2392 93.8644 22.3574C89.6006 20.0271 84.8453 22.3736 81.0684 23.1679C80.4469 23.3054 79.8187 23.5316 79.3686 24.1034L79.2332 24.4737C79.2332 24.4737 80.2231 24.7618 80.4097 24.7243C80.7496 24.6516 80.5336 24.691 80.7541 24.6555C82.6795 24.34 84.637 23.9383 88.4416 23.6927C89.128 23.6476 89.6397 23.6309 90.4782 23.7271C90.5842 23.7412 90.5926 23.7406 90.6607 23.753Z" fill="white"/>
<path fill-rule="evenodd" clip-rule="evenodd" d="M69.8422 26.7631C69.8422 26.7631 70.4581 25.8357 70.4776 25.8134C70.8782 25.3836 70.6687 25.5865 71.0808 25.2695C71.2288 25.1547 72.0054 24.6918 72.0054 24.6918C72.5179 24.4312 72.5185 24.4395 72.7147 24.3552C75.6446 23.0784 78.9779 22.9521 82.0394 23.0411C82.1407 23.0471 82.1658 23.0455 82.1658 23.0455C84.0645 23.1562 85.6549 23.5646 87.0624 23.1065L87.2627 22.7655L86.3285 22.6209C85.8579 22.6224 86.2116 22.6328 85.7424 22.5921C85.7424 22.5921 84.1856 22.3118 82.9821 22.0335C82.4658 21.9161 82.4407 21.9178 82.2236 21.8774C77.0927 20.9995 71.0554 21.2319 68.2893 24.6205C67.7563 25.2733 67.3704 26.1813 67.3704 26.1813C65.9033 30.1488 68.9089 34.5709 71.2879 37.5167C72.1982 38.6422 73.1934 39.7159 74.4049 40.4981L74.9509 40.4286C74.9509 40.4286 74.6551 39.6999 74.7393 39.7658C74.3808 39.4278 74.5606 39.6052 74.3524 39.3793C71.8908 36.7121 70.2332 33.2313 69.5525 29.9681L69.4347 29.1352C69.4099 28.8216 69.4316 29.2153 69.42 28.8462L69.4522 28.1211C69.5023 27.7311 69.4414 28.084 69.528 27.6748L69.7891 26.8506C69.8162 26.8152 69.8162 26.8152 69.8422 26.7631Z" fill="white"/>
<path fill-rule="evenodd" clip-rule="evenodd" d="M48.9153 1.35814C42.4316 4.01146 38.6722 11.6685 34.5357 18.1272C33.247 20.1369 32.1047 22.3933 32.2202 24.8572C32.37 28.1637 34.5737 30.9991 36.7493 33.1513C39.0913 35.469 41.6724 37.5861 44.505 39.2454C46.9746 40.6889 49.6601 41.8366 52.5057 42.2215L52.908 41.9471L52.6258 41.5537C51.7854 41.3651 51.5617 41.2873 51.046 41.1152C45.4338 39.2433 40.6728 35.0373 37.0867 30.3508C36.2544 29.2622 35.4655 28.1286 34.9649 26.8417C34.9649 26.8417 34.8144 26.406 34.8252 26.4432C34.6714 25.9573 34.8326 26.5562 34.677 25.9149L34.5658 25.3085C34.532 25.0501 34.5679 25.405 34.5326 24.9954C34.5326 24.9954 34.5266 24.3275 34.5294 24.3063C34.5606 23.8209 34.4996 24.2368 34.6133 23.5989C34.6295 23.5264 34.8903 22.5677 34.8903 22.5677C34.9115 22.5075 34.9331 22.4514 34.9543 22.3912C35.0545 22.124 35.0223 22.2102 35.0657 22.1023C35.7858 20.3947 36.9318 18.8988 37.9575 17.3645C41.3198 12.3017 44.0929 6.58826 49.4783 3.65817C49.5718 3.61 50.236 3.35623 50.2567 3.35068C51.6623 2.9936 51.1904 3.16749 51.962 3.26815C51.962 3.26815 52.6942 3.40923 52.6557 3.39915C57.9926 4.72589 62.8795 8.22581 67.0981 11.2778C70.7475 13.9175 74.1035 16.9547 77.1939 20.2362C78.3552 21.4714 78.5387 21.7704 78.5387 21.7704L80.1188 22.4695C80.6479 22.0775 79.5855 21.7731 80.1643 21.9453L79.9171 20.8687C73.5893 13.4115 65.8776 7.09169 56.8174 2.63839C56.5394 2.50112 56.2616 2.36803 55.9839 2.23494C54.0196 1.31729 51.8222 0.562056 49.6189 1.12701L49.0795 1.29692C48.9932 1.3278 48.9932 1.32781 48.9153 1.35814Z" fill="white"/>
<path fill-rule="evenodd" clip-rule="evenodd" d="M51.5142 19.2404C47.8772 19.5422 43.9803 21.0715 42.5055 24.7285L42.5873 25.2065C42.5873 25.2065 43.0652 24.738 43.0282 24.8161C43.2712 24.2915 43.0778 24.6741 43.3489 24.194L43.7113 23.6322C44.0307 23.1825 43.8063 23.4788 44.1144 23.1139L44.5546 22.6479C44.938 22.278 44.6641 22.523 45.0352 22.2212L45.5442 21.8432C45.9869 21.5451 45.6885 21.737 46.0891 21.5006C46.0891 21.5006 46.7392 21.1594 46.658 21.2026C53.491 17.9799 62.567 21.0073 68.216 25.3609C68.349 25.4657 68.0836 25.2645 68.4863 25.7635C68.4863 25.7635 69.2186 26.0348 69.3518 25.631C69.3518 25.631 69.3661 24.76 69.4934 24.9072C69.3658 24.7558 70.1193 25.0931 68.5907 24.0249C63.6407 20.588 57.4209 18.8106 51.5142 19.2404Z" fill="white"/>
<path fill-rule="evenodd" clip-rule="evenodd" d="M51.2432 24.8441C51.2432 24.8441 50.9581 22.6772 50.9572 22.6646C50.9485 21.9549 50.9077 22.5502 50.9998 21.7119C51.0156 21.568 51.211 20.8322 51.211 20.8322C51.7301 19.6464 51.3607 20.423 51.684 20.2253L51.983 19.7853C51.983 19.7853 51.6763 19.5323 51.3081 19.7498C49.5494 20.811 49.9812 23.8678 50.4526 25.6694C50.5654 26.1076 50.7067 26.5312 50.8731 26.9532C52.4929 31.0753 56.4907 33.9653 60.7776 35.176C62.0023 35.5202 63.248 35.7999 64.5002 36.0497C64.5002 36.0497 65.9611 36.2144 66.088 36.2271C67.0097 36.3095 68.23 36.3303 68.4234 36.3302C68.6884 36.3338 68.9487 36.3293 69.2135 36.3288C70.0444 36.3078 70.8497 36.1541 70.8497 36.1541C71.1792 36.1157 71.004 36.1356 71.004 36.1356C71.004 36.1356 71.4452 36.2621 71.4217 35.8391C71.4217 35.8391 71.3004 35.5277 70.2612 35.4488C69.2432 35.3727 72.0718 36.0108 67.1026 34.7146C65.2205 34.2161 64.4913 34.121 63.4784 33.9311C58.3158 32.9544 52.9694 30.5228 51.3141 25.0917C51.2552 24.898 51.2552 24.898 51.2432 24.8441ZM70.9132 35.7128C70.9132 35.7128 70.7372 36.2329 70.859 35.7836C70.8629 35.7791 70.9568 35.6721 70.9132 35.7128Z" fill="white"/>
<path fill-rule="evenodd" clip-rule="evenodd" d="M120.843 0.305868C115.936 0.716296 111.413 3.21566 107.128 5.80873C104.726 7.26095 102.349 8.75366 99.9942 10.2785L99.6879 10.4793C94.3501 14.1334 88.8577 17.6086 84.1638 21.7879L83.8899 22.0328L83.8271 22.8061L84.6002 22.8647C89.5809 18.8935 95.311 15.7727 100.859 12.3821C106.526 8.92921 111.972 4.75516 118.207 3.11432C120.256 2.57209 122.509 2.24768 124.347 2.97605C126.915 3.99699 128.336 6.62739 129.728 8.81416C132.769 13.5786 135.835 18.6649 136.293 24.1663C136.507 26.733 135.379 29.2576 133.133 31.0316C128.841 34.4195 123.215 35.6043 117.842 36.806C117.842 36.806 115.814 37.3469 114.408 37.6914C109.901 38.7648 105.225 39.1306 100.738 40.0556C100.523 40.0992 100.298 40.1308 100.111 40.2313L99.9842 40.6053C99.9842 40.6053 100.749 40.6686 100.653 40.6833C103.178 40.3957 105.741 40.3955 108.291 40.308C109.138 40.2734 109.237 40.2459 109.667 40.2051C112.124 39.9724 114.571 39.6057 116.993 39.1777L118.19 38.9689C124.918 37.5394 132.146 36.1024 136.604 30.9551C140.26 26.7262 138.238 19.9237 135.968 15.0541C134.353 11.5873 132.356 8.30963 130.159 5.19215C128.208 2.4326 125.537 0.0986108 121.292 0.284844C121.136 0.282453 120.989 0.292067 120.843 0.305868Z" fill="white"/>
<path fill-rule="evenodd" clip-rule="evenodd" d="M122.909 15.8986C122.909 15.8986 122.489 17.246 122.486 17.2672C122.404 17.6845 122.781 16.508 122.183 18.4808C122.183 18.4808 121.418 23.7262 118.823 26.5193C118.191 27.1955 117.814 27.4725 117.284 27.8561C115.186 29.3725 112.688 30.251 110.211 31.0693C105.085 32.7634 99.6422 33.8563 94.3405 33.0022L93.7215 33.4337L94.153 34.0527C100.749 35.3431 107.683 33.8539 113.956 31.5212C119.077 29.6172 122.884 25.3743 124.206 19.134L124.118 15.8739C123.504 15.3593 124.212 15.1279 123.236 15.3097C123.236 15.3097 122.935 15.4639 123.021 15.6769C123.021 15.6769 123.862 16.0042 123.374 16.1203C123.365 16.1208 122.954 16.0091 122.909 15.8986Z" fill="white"/>
<path fill-rule="evenodd" clip-rule="evenodd" d="M119.154 14.8547C112 15.4169 105.175 18.3153 98.7142 21.6439C98.6981 21.6533 96.4731 23.0393 94.626 24.2913L94.3401 24.4823L94.0746 25.4329L95.0316 25.6685C102.858 21.8258 110.514 17.5697 119.31 16.7191C122.548 16.4099 126.09 17.039 128.513 19.2422C129.447 20.0888 130.435 21.3101 130.435 21.3101C130.802 21.6475 131.161 21.9896 131.527 22.327C132.117 22.8641 132.719 23.3878 133.356 23.8672L133.751 23.8624C133.751 23.8624 132.756 22.0908 131.758 20.4625C131.758 20.4625 129.831 17.6803 127.229 16.2749C124.898 15.0157 122.178 14.6856 119.514 14.8311C119.334 14.8429 119.334 14.8429 119.154 14.8547Z" fill="white"/>
<path fill-rule="evenodd" clip-rule="evenodd" d="M103.166 41.052L103.011 41.1252L102.985 40.7318C102.985 40.7318 102.316 40.6581 102.494 41.1802C102.666 41.6943 103.387 41.7983 103.387 41.7983C103.675 41.9559 103.481 41.8215 103.576 41.9246C108.119 46.8342 110.273 53.9139 111.548 60.4671C111.896 62.2516 112.166 64.0497 112.373 65.8561C112.774 69.3478 113.124 72.8808 113.15 76.3468L113.151 76.5527C111.151 73.8887 108.957 71.4478 106.412 69.2443C105.335 68.3272 103.654 67.8828 102.302 69.0601C102.302 69.0601 98.0893 74.3595 96.0185 77.0048C96.0185 77.0048 96.0408 73.6954 95.9525 71.3263C95.646 63.0073 94.899 54.7003 93.7668 46.4817C93.7413 46.2858 93.7119 46.0944 93.6865 45.8985C93.3972 43.9252 92.7806 42.0868 92.0606 40.2763L91.4157 39.9277L91.0844 40.58C91.3572 41.7263 91.4077 42.0467 91.5188 42.7791C93.2278 53.5743 94.1405 64.7243 94.1704 75.6171C94.178 77.4618 93.2874 80.0296 94.8962 80.462C95.0847 80.5169 95.6581 80.4162 96.3917 79.4896C98.6034 76.6838 100.552 73.7187 102.904 70.9919C102.966 70.9206 103.021 70.8581 103.084 70.791C103.21 70.6566 103.339 70.5178 103.482 70.3907C104.542 69.4469 106.094 71.1818 107.642 72.7405C109.312 74.4214 110.819 76.2559 112.239 78.1593C112.87 79.0005 112.445 78.9948 113.392 79.395C113.984 79.6503 114.593 78.8706 114.618 78.7387C114.7 78.1953 114.697 78.1492 114.714 77.8917C114.93 75.032 114.405 72.1578 114.129 69.2421C113.151 59.2018 111.002 48.5658 104.002 41.4973C103.679 41.1865 103.387 41.1552 103.166 41.052Z" fill="white"/>
<path fill-rule="evenodd" clip-rule="evenodd" d="M74.7855 42.1333C74.7855 42.1333 76.3894 40.7628 75.3705 40.9936C75.3705 40.9936 72.7777 42.4752 71.0195 44.1837L70.9564 44.2466C64.1172 52.9465 60.4139 64.0844 60.048 74.6458C60.048 74.6458 56.6525 69.3415 55.4244 67.1524C54.9208 66.2691 54.1182 65.4391 53.1525 65.5194C51.501 65.653 50.3014 66.9717 48.8978 68.0642C48.0462 68.7295 47.2182 69.4354 46.4212 70.1644C45.612 70.8985 44.8392 71.6764 44.0938 72.4861C44.0938 72.4861 45.0848 68.0539 46.6117 64.549C49.6204 57.6222 54.1322 51.4373 58.7254 45.4699C58.7254 45.4699 60.0535 43.2264 61.6903 41.3957L61.7158 40.9527C61.7158 40.9527 61.3376 40.8892 60.9659 41.1826C59.7709 42.1227 58.6898 43.1983 57.6397 44.297C57.6397 44.297 56.7047 45.4848 56.0574 46.3175C50.1119 53.9037 44.5967 61.8357 42.4462 71.5266C42.3296 72.0555 42.1834 72.5821 42.0877 73.1095C42.0698 73.22 42.0515 73.3263 42.0374 73.4323C41.8947 74.4588 42.1569 76.9804 44.7183 74.5089C47.1262 72.1946 49.5228 69.902 52.4046 67.8928C53.4544 67.1724 53.5302 67.7517 53.6959 68.035C55.8479 71.7481 57.4242 74.3095 59.7239 77.8405C60.1958 78.5619 60.9109 79.0824 60.9109 79.0824C63.1121 79.3834 62.0423 76.5324 62.0423 76.5324C61.6666 65.4312 65.8167 54.1842 72.3699 45.6754C72.3699 45.6754 73.7565 43.4912 74.5408 42.3763C74.7093 42.1257 74.5931 42.2762 74.7855 42.1333ZM75.4537 41.5556C75.4537 41.5556 75.3624 41.6372 75.2287 41.3938C75.2329 41.3935 75.5293 41.5548 75.4537 41.5556Z" fill="white"/>
<path fill-rule="evenodd" clip-rule="evenodd" d="M91.4753 41.8615L91.3767 41.9604C91.3767 41.9604 90.9083 40.5873 90.9025 42.4834C90.9035 42.5632 90.9027 42.5506 90.9027 42.5506C90.6137 46.9199 90.1623 51.2494 89.7656 55.5796L89.6974 56.3322L89.3599 60.6038C87.9704 86.4986 86.7033 112.402 85.1282 138.414L85.1012 138.899L85.3927 139.242L85.7264 138.946C87.2493 119.823 88.5394 100.609 89.854 81.4487L89.9709 79.7724C90.3658 73.6854 90.7567 67.6029 91.1431 61.5165L91.1953 60.7103C91.4283 54.655 91.6091 48.5737 91.5301 42.5683C91.4926 41.6124 91.493 42.3227 91.4753 41.8615Z" fill="white"/>
<path fill-rule="evenodd" clip-rule="evenodd" d="M69.4411 47.9274C69.4411 47.9274 69.2481 49.7894 69.1338 51.5707C69.1043 52.0812 69.1057 52.1021 69.1071 52.3164C69.505 79.1867 69.6245 105.915 68.6242 132.617C68.5625 134.302 68.4841 135.989 68.3716 137.669L68.3382 138.121L68.7615 138.614L69.2549 138.191C71.2401 112.598 70.4265 86.8223 70.4857 60.4474C70.4879 59.7117 70.4858 58.9763 70.4879 58.2406C70.4831 55.6055 70.3854 52.9639 70.5557 50.3719C70.6206 49.3126 70.7983 48.2418 69.9497 47.6082L69.5721 47.49C69.576 47.4856 69.4608 47.9723 69.4411 47.9274Z" fill="white"/>
<path fill-rule="evenodd" clip-rule="evenodd" d="M146.148 48.1669C146.283 48.9399 146.238 47.7323 146.142 48.9071C144.991 62.8743 143.534 76.7859 142.247 90.6654C141.044 103.594 139.507 116.476 137.263 129.296C136.327 134.763 136.343 140.764 132.961 145.147C132.938 145.178 132.513 145.677 132.505 145.686C132.14 146.076 132.424 145.801 132.008 146.177C130.769 147.292 130.603 147.122 130.603 147.122L130.374 147.793C130.374 147.793 130.894 148.104 131.252 147.92C135.141 145.883 136.376 141.077 137.17 137.226C142.436 111.665 144.416 85.3614 147.06 59.1783C147.119 58.5986 147.174 58.0234 147.229 57.4482C147.522 54.4278 147.82 51.4072 147.809 48.432C147.766 47.1318 147.375 47.1953 147.375 47.1953C146.623 45.7273 147.064 46.8753 147.064 46.8753L147.355 46.5073C147.355 46.5073 146.323 45.2594 146.155 47.9395C146.145 48.1167 146.141 48.1212 146.148 48.1669Z" fill="white"/>
<path fill-rule="evenodd" clip-rule="evenodd" d="M20.5518 45.7902L19.5999 46.0166C19.5999 46.0166 20.3497 45.6564 19.978 45.437C19.978 45.437 18.9971 45.6695 19.2537 46.8254C19.2537 46.8254 19.4439 49.4021 19.5086 51.3481C19.5086 51.3481 19.7386 56.3895 19.8427 60.4724C20.0605 69.1041 19.8971 77.7566 19.666 86.401L19.6613 86.6493C19.4239 101.666 20.8146 116.513 21.5402 131.984C21.6573 134.473 21.7324 136.96 21.7234 139.449L22.062 139.805L22.4136 139.463C22.7846 126.93 21.292 114.309 21.2567 101.605C21.225 90.174 21.9967 78.7495 21.8945 67.2688C21.8354 60.413 21.73 53.493 20.8236 46.7938C20.6767 45.8367 20.5574 45.8109 20.5518 45.7902Z" fill="white"/>
<path fill-rule="evenodd" clip-rule="evenodd" d="M116.056 286.455L115.67 286.54C115.67 286.54 114.929 288.055 117.699 285.944C118.336 285.461 119.253 284.711 119.253 284.711C121.573 282.071 124.224 278.799 122.822 275.112C120.983 270.269 113.539 268.925 108.966 271.739C107.495 272.642 106.173 273.759 104.814 274.832C104.814 274.832 103.652 276.022 102.884 276.736C102.618 276.985 102.348 277.225 102.07 277.458L101.896 278.016L102.46 278.155C103.684 277.722 103.891 277.608 104.692 277.202C108.065 275.497 110.709 271.919 114.974 272.408C118.044 272.761 121.494 274.783 120.799 277.973C120.618 278.8 120.755 278.203 120.631 278.615C120.631 278.615 119.415 281.288 117.687 283.389C117.529 283.664 117.37 283.94 117.207 284.211C116.787 284.924 116.146 285.979 116.143 285.987C115.175 287.505 116.095 286.47 116.056 286.455Z" fill="white"/>
<path fill-rule="evenodd" clip-rule="evenodd" d="M92.6722 276.516C92.7282 276.344 92.6029 276.676 92.785 276.185C93.3395 274.707 94.5806 274.02 94.7341 273.926C95.1465 273.676 94.8241 273.823 95.4208 273.565L96.385 273.271C97.3857 273.083 96.7065 273.174 97.4579 273.158C101.018 273.089 104.594 274.43 108.458 273.743L109.654 273.005C110.919 271.972 109.911 271.992 109.911 271.992L108.825 272.03C107.751 271.865 109.028 271.865 107.518 271.964C102.753 272.252 97.8658 269.256 93.6153 271.481C88.8322 273.981 88.5684 281.871 93.9424 287.861L94.9056 288.062L95.0075 287.182C93.2567 284.522 92.1942 281.335 92.3334 278.333C92.3334 278.27 92.435 277.448 92.428 277.469C92.4982 277.065 92.3763 277.514 92.5723 276.85C92.6619 276.55 92.5925 276.773 92.6722 276.516Z" fill="white"/>
<path fill-rule="evenodd" clip-rule="evenodd" d="M173.296 269.887C173.296 269.887 173.181 270.562 173.178 270.584C173.095 270.925 173.215 270.51 173.052 271.038L172.714 271.846C172.527 272.19 172.72 271.871 172.475 272.235L172.055 272.755C171.863 272.961 172.146 272.665 171.843 272.979C171.669 273.15 171.496 273.321 171.322 273.496C160.998 283.409 144.791 286.36 130.774 286.494C126.149 286.537 121.526 286.286 116.91 285.895L116.446 286.258L116.821 286.708C129.172 288.352 141.825 288.816 153.832 285.838C158.625 284.645 163.351 282.817 167.546 280.125C171.039 277.886 174.823 274.839 175.452 271.09C176.416 265.353 173.156 259.043 170.718 254.243C170.1 253.027 169.434 251.839 168.731 250.675C168.731 250.675 167.616 248.735 166.608 247.212C164.762 244.437 162.455 241.63 159.487 240.992C157.987 240.67 157.285 240.872 156.391 241.006C152.12 241.644 148.19 243.886 144.236 245.444C141.401 246.568 138.577 247.728 135.801 248.974L135.691 249.023C125.572 253.933 116.761 260.828 108.774 268.826C107.755 269.877 107.574 270.716 106.959 271.715C106.674 272.179 106.839 271.933 106.594 272.239L106.038 273.049C106.038 273.049 107.059 272.986 107.886 272.39C108.773 271.756 109.824 270.859 109.824 270.859C110.504 270.079 110.323 270.326 110.284 270.366C118.153 262.893 126.766 256.242 136.845 251.44C137.029 251.348 137.207 251.256 137.395 251.164C141.737 248.992 146.201 247.068 150.571 244.94C153.097 243.719 155.724 242.505 158.495 242.453L159.128 242.5C159.566 242.568 159.25 242.504 159.61 242.602C159.61 242.602 160.294 242.839 160.311 242.846C160.657 242.996 160.301 242.822 160.788 243.076C160.862 243.113 162.567 244.237 163.599 245.363C168.988 251.251 171.902 259.079 173.1 266.323C173.266 267.312 173.383 268.322 173.335 269.325C173.318 269.835 173.33 269.565 173.296 269.887Z" fill="white"/>
<path fill-rule="evenodd" clip-rule="evenodd" d="M5.21388 146.182C5.20655 146.262 5.20882 146.233 5.20909 146.237C5.13683 147.057 5.03811 148.114 5.03811 148.114C4.87201 150.13 4.68917 152.147 4.51861 154.159C4.51861 154.159 4.39384 158.341 4.37749 161.806C4.18948 204.275 4.48155 247.334 5.24296 289.796C5.2763 291.584 5.30936 293.368 5.35943 295.155L5.64476 295.788L6.29988 296.035L6.92454 295.755L7.17238 295.112C6.31673 259.987 6.64569 224.596 6.58983 189.553C6.57029 178.05 6.37992 166.634 6.6381 155.008L6.64844 154.717C6.5788 152.696 6.5217 150.673 6.45597 148.648C6.45597 148.648 6.17245 145.417 6.0134 143.25C6.0101 143.2 6.01032 142.435 6.01032 142.435C6.0693 142.053 6.02692 142.304 6.02692 142.304L6.01364 141.91C6.01364 141.91 5.48074 140.835 5.29367 143.172C5.21539 144.156 5.26019 145.095 5.21395 146.119C5.21581 146.211 5.21443 146.19 5.21388 146.182Z" fill="white"/>
<path fill-rule="evenodd" clip-rule="evenodd" d="M76.7172 287.214C55.5759 288.635 34.4603 290.257 13.4552 292.985C9.37158 293.526 5.27252 294.152 1.35306 295.402L0.544695 296.085C0.544695 296.085 0.437937 297.084 0.454888 297.15L1.13816 297.954L2.19071 298.045C8.62109 295.988 15.4315 295.495 22.0624 294.635C40.4616 292.292 58.9272 291.088 77.6336 289.839C111.673 287.563 146.006 289.878 179.763 293.416C187.448 294.219 195.112 295.073 202.623 297.178C202.798 297.225 202.982 297.276 203.158 297.324C207.29 298.423 205.453 298.224 207.064 296.954L206.606 296.391C206.056 295.696 204.534 295.296 204.534 295.296C204.371 295.247 204.212 295.203 204.054 295.155C194.735 292.337 184.823 291.361 175.158 290.368C143.204 287.094 110.95 285.059 78.9357 287.072C78.1946 287.117 77.4538 287.165 76.7172 287.214Z" fill="white"/>
<path fill-rule="evenodd" clip-rule="evenodd" d="M16.9497 139.082C13.1721 139.355 9.41959 139.946 5.82636 141.106L5.43054 141.864L6.18762 142.255C16.3621 139.095 27.2786 140.644 37.5685 140.586C61.3761 140.402 85.1789 139.89 108.52 143.679C118.615 145.202 128.463 147.692 138.138 151.07L138.701 150.626C138.701 150.626 138.956 151.248 139.342 150.853L139.212 150.206C138.417 149.114 138.414 149.51 137.282 149.042C128.219 145.257 118.578 143.099 108.857 141.509C85.6543 137.72 61.2323 138.596 37.5469 139.041C30.6733 139.147 23.7952 138.611 16.9497 139.082ZM138.96 150.277C138.96 150.277 138.484 150.653 138.849 150.318C138.854 150.322 138.983 150.25 138.96 150.277Z" fill="white"/>
<path fill-rule="evenodd" clip-rule="evenodd" d="M54.363 238.591C47.6585 239.099 42.5338 245.038 39.1848 250.495C36.7429 254.468 34.7539 258.68 33.0303 263.03C32.446 264.501 31.9818 266.074 32.1244 267.671C32.1244 267.671 32.2777 268.917 32.6625 269.976C35.1978 276.968 42.7576 280.591 48.8345 283.265C50.4405 283.975 52.0837 284.611 53.7397 285.187C59.2923 287.109 65.1072 288.291 70.9711 288.873L71.4534 288.921L72.0294 288.476L71.5755 287.9C60.5422 286.237 49.6256 282.574 40.6611 275.546C37.3688 272.967 33.8885 269.572 34.9559 265.534C36.4537 259.858 39.5228 254.428 42.623 249.79C45.5158 245.452 49.4961 241.16 54.9764 240.892C59.3883 240.678 63.6701 242.579 67.7823 244.587C76.6931 248.941 84.6538 255.085 91.7557 262.104C91.7557 262.104 94.4131 264.616 96.4743 266.754C98.1295 268.47 99.7193 270.278 101.266 272.068C102.125 273.058 101.772 271.963 101.907 272.164C102.284 272.728 99.6572 268.819 97.579 266.295C97.0811 265.689 96.5748 265.083 96.0648 264.486C87.3313 254.253 76.1073 245.331 63.7082 240.407C60.7432 239.228 57.5225 238.38 54.363 238.591ZM101.735 272.045C101.001 272.001 101.992 272.117 101.735 272.045V272.045Z" fill="white"/>
<path fill-rule="evenodd" clip-rule="evenodd" d="M53.259 259.167C48.7245 259.498 44.2353 261.096 40.9547 264.266L40.8345 264.741C40.8345 264.741 44.2803 262.615 47.0895 261.804C47.6711 261.636 48.263 261.496 48.8607 261.381C58.206 259.612 67.9367 262.306 75.4765 265.048C80.8764 267.013 85.9894 269.859 90.1376 273.824C90.7252 274.386 91.2009 275.166 91.2054 275.17C91.3722 275.407 91.3546 275.459 91.3414 275.321C91.3414 275.321 91.6341 275.811 91.8621 275.442C91.8621 275.442 90.8583 273.533 89.1544 271.972C81.5648 265.014 71.1639 261.396 61.7429 259.77C59.5152 259.387 57.2674 259.144 55.0076 259.103C55.0028 259.095 54.1376 259.105 53.259 259.167ZM91.3361 275.305C91.8533 274.796 91.3516 275.157 91.3361 275.305V275.305Z" fill="white"/>
<path fill-rule="evenodd" clip-rule="evenodd" d="M51.9785 260.214C51.9361 261.297 52.0413 262.387 52.2706 263.448C52.2706 263.448 52.7046 264.68 53.3087 265.75C56.6879 271.703 63.261 274.958 69.3857 277.464C75.8214 280.098 82.5431 282.094 89.465 283.044C90.4659 283.18 91.9434 283.276 91.9434 283.276C92.6616 283.204 91.9398 282.709 91.9398 282.709L91.7028 282.876C91.7028 282.876 92.0804 282.737 91.518 282.686C89.7108 282.498 89.2099 282.358 88.5379 282.239C77.7175 280.297 66.552 276.62 58.633 269.575C56.6107 267.774 54.8525 265.577 53.9883 262.978C53.9883 262.978 53.3447 261.625 53.0705 260.138L52.4857 259.617C52.3179 259.813 52.1461 260.014 51.9785 260.214Z" fill="white"/>
<path fill-rule="evenodd" clip-rule="evenodd" d="M145.306 261.355C137.96 261.891 130.933 264.526 124.01 267.145C121.332 268.157 118.7 269.297 116.165 270.632L115.891 271.461C115.891 271.461 116.374 271.896 117.185 271.506C123.805 268.373 130.879 266.383 138.013 264.549C145.098 262.726 152.869 261.505 159.698 265.138C161.841 266.28 163.697 267.915 165.245 269.785C165.728 270.366 165.442 270.036 165.658 270.443C166.046 271.178 166.655 272.121 166.655 272.121L167.047 272.142C167.047 272.142 166.801 271.334 166.81 271.35C166.636 271.009 166.709 271.151 166.63 270.98C163.341 263.584 153.421 260.818 145.306 261.355Z" fill="white"/>
<path fill-rule="evenodd" clip-rule="evenodd" d="M152.293 265.347C151.97 265.999 153.247 264.246 150.956 267.331C150.956 267.331 148.684 270.943 146.048 273.626C139.367 280.44 129.358 284.204 120.008 281.984L119.36 282.363L119.743 283.006C132.015 286.446 145.668 279.48 152.867 268.71C152.867 268.71 154.081 266.461 154.36 265.258C154.474 264.767 154.657 264.028 154.65 264.049C154.955 262.999 154.513 263.18 154.513 263.18C154.513 263.18 154.332 262.725 153.49 262.965C153.49 262.965 152.852 264.26 152.338 265.269C152.312 265.317 152.312 265.317 152.293 265.347Z" fill="white"/>
<path fill-rule="evenodd" clip-rule="evenodd" d="M206.666 298.392C206.666 298.396 206.742 297.555 206.742 297.555C206.911 296.674 206.84 297.128 206.885 296.928C206.946 296.642 206.758 296.97 206.758 296.97C206.758 296.97 207.208 296.721 206.858 296.446C206.858 296.446 206.719 296.06 206.196 296.805C204.241 299.606 204.799 303.18 204.72 306.716C204.008 338.316 199.719 369.672 197.75 402.04L197.728 402.407L198.196 402.616L200.014 402.724L200.504 402.57C202.191 373.974 206.292 345.577 206.97 316.845C207.086 311.895 207.135 306.94 207.188 301.985C207.188 301.985 206.942 299.837 206.68 298.404C206.668 298.35 206.671 298.463 206.666 298.392ZM206.414 296.727C206.414 296.727 206.711 297.221 206.438 296.835C206.438 296.835 206.411 296.69 206.414 296.727Z" fill="white"/>
<path fill-rule="evenodd" clip-rule="evenodd" d="M6.35178 400.04L5.94944 400.89L6.26744 401.765L7.10484 402.164C52.3604 404.334 97.9725 400.73 143.127 400.59C160.592 400.537 177.91 401.707 195.373 403.339C195.719 403.371 196.062 403.399 196.413 403.431C197.207 403.492 198.341 403.548 198.341 403.548C199.243 403.333 199.698 402.572 199.698 402.572C200.64 400.144 198.412 401.303 198.412 401.303C190.275 401.047 182.1 399.772 173.753 399.198C137.744 396.711 101.498 399.372 65.4282 400.172C46.021 400.605 26.6275 400.672 7.23901 399.726C7.23037 399.722 6.70066 399.912 6.35178 400.04Z" fill="white"/>
<path fill-rule="evenodd" clip-rule="evenodd" d="M0.431152 297.11C1.63053 329.211 3.06178 361.259 5.63613 393.816C5.8118 396.108 5.98355 398.404 6.13856 400.702L6.16549 401.112L6.58149 401.366L7.91238 401.279L8.29156 400.972C6.29777 370.92 4.12757 340.677 2.80531 310.354L2.78708 309.884C2.6004 306.08 2.40955 302.276 2.21031 298.473L2.13226 297.028C1.48554 297.036 1.91888 296.979 0.431152 297.11Z" fill="white"/>
<path fill-rule="evenodd" clip-rule="evenodd" d="M204.746 296.87C204.214 297.078 204.294 296.77 204.464 297.557L202.983 296.78C202.328 296.395 201.717 295.8 201.035 295.912L199.885 295.87C199.606 296.111 199.672 295.901 199.672 295.901L199.399 295.578L198.782 295.53L198.744 295.97L198.268 296.014C198.268 296.014 198.101 296.874 198.81 296.726C198.878 296.793 198.945 296.865 199.009 296.936C201.791 299.998 202.752 304.655 203.935 307.882C204.568 309.387 204.733 308.001 204.733 308.001C204.846 307.801 204.646 307.385 205.082 307.365C205.794 307.331 205.21 305.785 204.831 304.246C204.831 304.246 205.85 304.721 205.768 303.348C205.652 301.376 205.575 300.464 205.698 298.889C205.763 298.338 206.004 297.645 205.401 297.374C205.401 297.366 205.136 296.79 204.746 296.87Z" fill="white"/>
<path fill-rule="evenodd" clip-rule="evenodd" d="M180.644 333.091C180.047 333.151 178.944 333.959 180.027 334.199C180.027 334.199 179.58 334.565 180.035 334.388C180.035 334.388 179.464 334.837 179.948 335.171C179.948 335.171 180.368 335.484 180.81 334.602C182.091 333.879 182.738 336.06 183.581 335.895C183.581 335.895 183.978 335.541 183.843 335.151C183.271 333.482 182.701 333.507 181.334 333.176C181.108 333.12 181.003 333.063 180.644 333.091ZM180.278 334.372C180.421 334.43 180.535 334.515 180.587 334.667C180.587 334.667 179.935 334.336 180.278 334.372Z" fill="white"/>
<path fill-rule="evenodd" clip-rule="evenodd" d="M181.575 333.383C181.275 333.437 181.078 333.761 181.185 334.052C181.185 334.052 182.696 334.521 182.705 334.52C182.764 334.529 182.526 334.431 182.47 334.22L182.974 334.582C182.974 334.582 183.549 334.187 183.219 333.835C182.956 333.553 182.373 333.57 182.356 333.563C181.748 333.334 181.8 333.356 181.575 333.383ZM182.008 333.771C182.064 333.99 181.785 334.223 181.785 334.223C181.785 334.223 181.986 333.697 182.008 333.771Z" fill="white"/>
<path fill-rule="evenodd" clip-rule="evenodd" d="M67.4832 348.754C66.4944 348.289 66.9039 348.38 66.8345 348.284C66.2263 347.47 64.6578 348.292 64.9275 349.136C65.1954 349.951 65.2776 349.474 65.5042 349.661C65.9536 350.04 66.5999 349.577 67.021 349.843C67.021 349.843 67.1793 349.694 66.8658 350.169L66.9854 350.775C66.9854 350.775 67.7981 350.541 67.5239 350.718C67.3425 350.835 68.5078 350.532 68.3171 349.868C67.9321 348.548 68.1876 349.111 67.4832 348.754Z" fill="white"/>
<path fill-rule="evenodd" clip-rule="evenodd" d="M123.55 288.376C123.352 288.435 123.339 288.558 123.304 288.72C122.899 290.436 122.508 292.156 122.117 293.88C122.117 293.88 122.009 294.732 121.943 295.333C119.704 315.588 118.192 336.09 116.47 356.542L116.2 359.796C115.191 372.212 114.144 384.625 113.299 397.038C113.299 397.038 113.406 398.738 113.5 399.913L113.952 400.467L114.466 399.971C114.553 399.558 114.639 399.144 114.73 398.731C115.172 396.701 115.132 396.275 115.209 395.282C117.33 370.222 119.794 345.459 122.085 320.606L122.155 319.828C122.839 311.229 123.367 302.624 124.047 294.152C123.99 292.387 123.937 290.616 123.889 288.867C123.878 288.384 123.761 288.778 123.761 288.778C123.761 288.778 123.95 288.325 123.55 288.376Z" fill="white"/>
<path fill-rule="evenodd" clip-rule="evenodd" d="M88.3019 287.416C87.8393 288.821 87.9415 290.377 87.863 291.871C87.863 291.871 87.9299 293.85 87.9813 295.402C88.024 296.82 88.0711 298.242 88.1179 299.659C88.6772 316.696 89.6991 333.799 90.5934 350.881L90.7152 353.185C91.5532 368.703 92.3701 384.348 93.3256 399.736L93.3627 400.301L94.1125 400.967L94.7778 400.217C92.715 364.184 90.6458 327.987 89.6158 292.512C89.5887 291.715 89.6819 292.302 89.4894 291.419C89.2736 290.437 89.021 289.47 88.8926 288.474C88.8215 287.903 88.8498 288.271 88.8467 287.775C88.8422 287.771 88.9742 286.964 88.3019 287.416Z" fill="white"/>
<path fill-rule="evenodd" clip-rule="evenodd" d="M138.861 150.372C138.065 150.542 138.677 151.22 138.686 151.098C138.577 152.193 138.572 151.219 138.44 153.758C138.006 161.352 136.871 168.778 135.99 176.62C135.479 181.378 134.972 186.14 134.46 190.902L134.367 191.791C133.514 200.308 132.714 208.805 131.995 217.317L131.963 217.719C131.153 228.431 130.332 239.174 129.932 249.91L130.323 252.419L130.809 253.227L131.264 252.731C131.516 251.706 131.914 250.263 131.914 250.263C133.403 226.787 135.947 203.372 137.566 179.875L137.779 176.784C138.298 168.743 139.268 160.727 139.153 152.702C139.15 152.593 139.78 150.282 138.861 150.372ZM138.956 150.929C139.035 150.907 138.744 150.959 138.956 150.929V150.929Z" fill="white"/>
<path fill-rule="evenodd" clip-rule="evenodd" d="M129.447 266.212C129.039 271.661 128.827 277.139 128.183 282.57L128.741 283.382L129.465 282.814C130.178 277.349 130.405 271.849 130.792 266.351L130.428 265.917C130.428 265.921 129.954 265.813 129.447 266.212Z" fill="white"/>
<path fill-rule="evenodd" clip-rule="evenodd" d="M86.0543 140.548L85.7025 140.566L86.067 140.421C86.067 140.421 85.4263 138.601 84.8178 141.368C84.8178 141.368 85.0159 142.465 85.003 143.038C84.4368 168.155 82.4899 193.692 81.0503 218.694C80.4481 229.179 79.8418 239.664 79.2098 250.142L79.1791 250.699L79.9421 251.565L80.8123 250.797C82.9793 216.13 85.2732 181.538 86.5646 146.592C86.6295 144.763 86.8824 142.981 86.4652 141.109C86.4697 141.113 86.1167 140.665 86.0543 140.548Z" fill="white"/>
<path fill-rule="evenodd" clip-rule="evenodd" d="M57.168 139.56L56.7696 139.574L57.1291 139.416C57.1291 139.416 56.4596 137.669 55.8894 140.317C55.8894 140.317 56.1639 141.488 56.1775 142.08C56.6669 166.759 56.0637 191.442 55.8664 216.481C55.8032 223.971 55.7496 231.414 55.6189 238.963L55.6097 239.464L56.4127 240.298L57.2468 239.495C57.8638 208.363 58.0653 177.049 57.8862 145.57C57.8761 143.688 58.0055 141.817 57.5336 140.007C57.5375 140.003 57.2335 139.661 57.168 139.56Z" fill="white"/>
<path fill-rule="evenodd" clip-rule="evenodd" d="M78.2123 266.511L77.9872 266.669C77.9465 267.201 77.9061 267.738 77.8653 268.27C77.567 271.984 77.0579 275.691 76.8114 279.427L77.4327 280.248L78.1858 279.619C78.382 277.933 78.6122 276.253 78.8549 274.573L78.9218 274.119C79.2457 271.689 79.54 269.257 79.7791 266.816L79.0573 266.002L79.1372 265.618C79.1372 265.618 78.5943 265.351 78.243 266.467C78.2385 266.463 78.2189 266.549 78.2123 266.511Z" fill="white"/>
<path fill-rule="evenodd" clip-rule="evenodd" d="M55.4726 260.169L55.17 260.618C55.3375 262.721 55.3539 265.276 55.6138 267.89L56.0137 268.284C56.0137 268.284 56.3983 264.089 56.3587 261.822C56.3384 260.68 56.6126 261.271 56.2896 259.872C56.2896 259.872 55.9374 259.63 55.7332 259.656C55.7371 259.652 55.5909 260.241 55.4726 260.169Z" fill="white"/>
<path fill-rule="evenodd" clip-rule="evenodd" d="M55.6001 289.26C55.4823 287.658 55.7401 286.014 55.4443 284.453C55.4038 284.22 55.5085 284.407 55.3463 284.56C55.3463 284.56 54.7321 283.273 54.918 284.824C54.9368 284.982 54.9285 284.983 54.9285 284.983C54.9223 285.273 54.9164 285.568 54.9103 285.858C54.873 287.084 54.6838 288.299 54.7129 289.511L55.1946 289.934L55.6214 289.456C55.6067 289.36 55.6067 289.36 55.6001 289.26Z" fill="white"/>
<path fill-rule="evenodd" clip-rule="evenodd" d="M110.26 54.9362L110.813 55.5472C118.983 56.1668 126.996 57.982 134.86 59.8994C134.86 59.8994 138.661 60.8226 140.708 61.3271C142.254 61.709 143.816 62.0562 145.353 62.4891C146.021 62.6765 145.419 62.3503 145.419 62.3503C145.419 62.3503 145.517 62.8818 145.969 62.2638C145.969 62.2638 141.636 60.4172 138.719 59.4023C129.942 56.3805 120.675 54.7317 111.293 54.4019L110.872 54.3875C110.67 54.5731 110.467 54.7545 110.26 54.9362Z" fill="white"/>
<path fill-rule="evenodd" clip-rule="evenodd" d="M93.1291 53.543C93.1291 53.543 93.9742 53.4833 93.6343 53.0433C93.0369 52.267 92.6276 52.8824 92.513 52.8647C91.7874 52.761 90.7606 52.614 90.7606 52.614L90.0886 53.2634L90.7224 53.9532C91.7489 53.8395 92.9391 53.5933 93.1291 53.543Z" fill="white"/>
<path fill-rule="evenodd" clip-rule="evenodd" d="M66.2658 52.6374C66.2658 52.6374 66.9866 53.0525 66.8858 53.0549C67.9112 52.9876 69.4619 52.9824 69.4702 52.9819C70.3329 52.9967 69.5549 52.7998 69.5549 52.7998C69.5549 52.7998 69.7067 53.3194 70.0963 52.6592C70.0963 52.6592 68.1656 52.1891 66.7389 52.1608C66.7389 52.1608 66.442 52.4409 66.2658 52.6374Z" fill="white"/>
<path fill-rule="evenodd" clip-rule="evenodd" d="M51.1003 52.7629C49.5208 52.9044 49.3313 52.9 48.6148 52.9345C38.933 53.4187 29.1099 53.2229 19.94 55.8718L19.5654 56.5689L20.2625 56.9435C29.7959 54.0059 40.2357 54.1822 50.1736 53.4374C51.5525 53.3133 51.1497 53.3229 51.5009 53.2956C51.689 53.2791 51.9668 53.4122 51.7231 53.2222L52.1182 53.2215C52.1142 53.2259 52.5258 52.6441 51.1003 52.7629Z" fill="white"/>
<path fill-rule="evenodd" clip-rule="evenodd" d="M112.729 76.7864L113.257 77.4116C122.723 78.0471 132.264 79.1356 141.483 81.0145C141.615 81.0395 141.747 81.0645 141.875 81.0981C142.538 81.2689 142.047 81.2843 143.399 81.515C143.977 81.6158 143.845 81.0739 143.845 81.0739C143.845 81.0739 143.226 81.001 143.578 80.9737C143.687 80.9666 139.731 79.9947 136.591 79.4232C129.125 78.0639 121.603 76.9983 114.043 76.3135L113.345 76.25C113.143 76.4314 112.936 76.6089 112.729 76.7864Z" fill="white"/>
<path fill-rule="evenodd" clip-rule="evenodd" d="M112.114 76.7721C112.453 76.4346 111.797 76.7425 111.793 76.7428C111.115 76.7284 111.068 76.7105 110.696 76.6803C105.734 76.2662 101.906 75.8324 97.803 76.0177L97.4596 76.036L97.1076 76.4374C97.1076 76.4374 97.3999 76.7923 98.0073 76.7608C101.501 76.5736 104.969 76.9133 108.456 77.0711C110.349 77.157 109.893 77.6451 112.223 77.2819C112.652 77.216 112.48 76.7103 112.48 76.7103C112.48 76.7103 112.04 76.8652 112.114 76.7721Z" fill="white"/>
<path fill-rule="evenodd" clip-rule="evenodd" d="M88.3544 75.8267C88.3544 75.8267 88.5387 76.2013 89.3168 76.146C90.4382 76.0682 91.5659 76.0236 92.6875 76.013C93.0572 76.0098 93.4268 76.0065 93.7971 76.0117C95.6769 76.027 94.614 75.9706 94.614 75.9706C94.614 75.9706 95.0352 76.3045 94.9727 75.5436C94.9727 75.5436 91.2079 75.3074 88.7102 75.4209C88.5929 75.5547 88.4756 75.6885 88.3544 75.8267Z" fill="white"/>
<path fill-rule="evenodd" clip-rule="evenodd" d="M19.9559 78.3327L20.5674 78.8768C36.3526 77.7566 51.8231 76.6443 68.1633 75.9752C69.1064 75.9343 70.2352 75.9064 70.2352 75.9064C70.9093 75.2906 69.2572 75.4789 70.0223 75.416C70.2271 75.3984 67.1768 75.4179 64.5316 75.5243C60.2223 75.7021 55.9199 76.0476 51.6323 76.2996C41.4446 76.8885 31.2363 77.1005 21.019 77.6871L20.4997 77.717C20.3156 77.9224 20.1358 78.1276 19.9559 78.3327ZM69.9079 75.9153C69.6547 75.2594 69.7766 75.8357 69.9079 75.9153V75.9153Z" fill="white"/>
<path fill-rule="evenodd" clip-rule="evenodd" d="M87.683 98.1268L88.3512 98.9572C93.3779 99.4637 98.4215 99.4605 103.515 99.8995C116.298 101.006 129.077 102.172 141.632 105.375C143.641 105.89 142.53 105.102 142.53 105.102C142.444 105.002 142.128 105.048 142.128 105.048C142.128 105.048 142.801 105.126 141.819 104.833C129.038 101.2 115.551 99.866 102.133 98.5023C97.6605 98.0477 93.1509 97.9907 88.7545 97.4807L88.5173 97.4542C88.2337 97.6788 87.9583 97.9028 87.683 98.1268Z" fill="white"/>
<path fill-rule="evenodd" clip-rule="evenodd" d="M39.977 97.4966C33.7631 97.9213 27.52 98.8607 21.4154 99.6692C21.0655 99.7174 20.7197 99.7653 20.3754 99.8341C19.8823 99.9422 19.5753 100.58 19.5753 100.58L20.2525 101.355C20.2525 101.355 21.1552 100.317 20.9965 100.844C20.8658 101.286 18.087 101.598 23.8894 100.797C38.6812 98.7585 53.5013 98.3027 68.5034 97.8685L70.0622 97.2828C70.3998 96.7268 69.5745 97.0248 69.5745 97.0248C69.5745 97.0248 69.9404 96.8999 69.5357 96.7541C68.8985 96.5228 68.6793 96.4489 68.6793 96.4489C59.0825 96.6922 49.4478 96.8707 39.977 97.4966Z" fill="white"/>
<path fill-rule="evenodd" clip-rule="evenodd" d="M86.1487 120.277L86.713 120.871C101.84 121.374 116.994 123.322 131.648 126.475C131.648 126.475 133.611 126.804 135.493 126.916C136.021 126.948 135.852 126.934 136.364 126.993C136.398 126.999 137.019 127.11 137.019 127.11C137.827 127.317 137.735 127.382 137.735 127.382L138.126 127.323C138.126 127.323 138.173 127.013 137.969 126.85C136.867 126.01 135.335 125.913 134.018 125.575C133.834 125.528 133.825 125.521 133.825 125.521C125.244 122.986 115.545 121.996 106.182 120.988C99.8109 120.305 93.4132 119.851 87.0069 119.713C87.0029 119.717 86.481 119.961 86.1487 120.277Z" fill="white"/>
<path fill-rule="evenodd" clip-rule="evenodd" d="M49.8489 120.075C41.2877 120.663 32.7834 121.797 24.1427 122.583C23.9505 122.599 23.9544 122.595 23.9627 122.594C23.0696 122.628 22.1597 122.532 21.4096 122.951L21.1982 123.701C21.1982 123.701 21.9885 123.766 22.9427 123.704C22.9971 123.7 28.2152 123.152 31.9329 122.672C44.3927 121.094 57.0082 119.711 69.2727 120.087L69.562 119.82L69.295 119.53C62.7621 119.257 56.3273 119.646 49.8489 120.075Z" fill="white"/>
<path fill-rule="evenodd" clip-rule="evenodd" d="M85.2608 151.192L85.0038 151.822L85.2632 152.444C96.6184 163.749 109.214 173.334 122.042 182.869C122.386 183.112 122.734 183.362 123.078 183.608C126.153 185.815 129.217 188.052 132.265 190.306C132.548 190.515 134.849 192.982 135.809 192.949L136.117 192.638L135.34 192.004C135.099 191.793 135.107 191.793 135.13 191.816C131.843 188.754 129.479 186.42 126.778 184.135L126.565 183.955C113.413 173.197 99.01 163.365 86.5093 151.194L85.879 150.941C85.67 151.022 85.4654 151.107 85.2608 151.192Z" fill="white"/>
<path fill-rule="evenodd" clip-rule="evenodd" d="M82.7732 203.899C89.1655 209.713 96.2411 214.603 103.013 220.056C103.013 220.056 106.514 222.81 109.368 225.048L110.024 225.56C116.338 230.442 122.869 235.036 129.332 239.95C129.77 240.282 130.2 240.616 130.614 240.975C131.786 241.978 131.193 241.593 131.294 241.342C131.294 241.342 131.022 241.81 131.768 241.639C132.1 241.126 131.704 241.177 131.117 240.623C125.024 234.89 118.059 230.152 111.5 224.736L111.007 224.331C108.893 222.608 106.783 220.885 104.673 219.157L104.278 218.838C102.869 217.728 101.46 216.623 100.043 215.531C94.5744 211.304 88.6967 207.566 83.4347 203.154L82.7271 203.196C82.738 203.427 82.7579 203.665 82.7732 203.899Z" fill="white"/>
<path fill-rule="evenodd" clip-rule="evenodd" d="M5.57193 142.994C16.0062 152.371 26.6566 161.583 37.1044 170.653C37.1044 170.653 41.0453 174.022 44.094 176.667C48.2259 180.254 52.3022 183.892 56.4025 187.51L56.6522 187.729L57.0465 187.716L57.0332 187.322C51.0476 181.301 45.0258 175.303 38.6689 169.642L38.4768 169.47C36.6145 167.865 34.7362 166.273 32.8544 164.69C24.1436 157.364 15.2326 149.87 6.88976 142.579L6.35065 142.114L5.52172 142.165C5.53121 142.437 5.54934 142.713 5.57193 142.994Z" fill="white"/>
<path fill-rule="evenodd" clip-rule="evenodd" d="M121.5 276.158L121.581 277.27C123.03 278.537 124.846 279.296 126.536 280.198C127.05 280.48 126.182 280.381 128.149 280.895C128.509 280.993 128.033 280.861 128.64 281.014L128.896 280.934L129.167 281.223C129.167 281.223 130.085 281.378 128.875 280.041C128.567 279.699 127.759 279.172 127.759 279.172C126.054 278.12 124.14 277.388 122.648 276.099C122.648 276.099 121.964 276.123 121.5 276.158Z" fill="white"/>
<path fill-rule="evenodd" clip-rule="evenodd" d="M79.5123 261.844C82.2316 264.339 85.0143 266.775 87.8247 269.184L88.3147 269.605C91.513 272.161 94.7264 274.691 97.9479 277.216L99.0825 278.108C102.183 280.515 105.276 282.939 108.372 285.354C110.371 286.866 109.303 285.965 109.779 286.354L110.277 286.834C110.277 286.834 111.105 286.776 110.166 285.909C109.548 285.34 108.808 284.825 108.808 284.825C105.95 282.327 103.104 279.819 100.242 277.33L99.9389 277.068C96.5491 274.155 93.1544 271.234 89.7791 268.286C89.7791 268.286 85.1559 264.45 81.9825 261.825C81.507 261.432 81.0356 261.038 80.5642 260.644L79.4295 260.711C79.4584 261.087 79.4834 261.468 79.5123 261.844Z" fill="white"/>
<path fill-rule="evenodd" clip-rule="evenodd" d="M56.2972 225.157C56.2972 225.157 55.3618 223.97 54.692 223.371C50.2007 219.366 45.564 215.581 40.8812 211.668C40.8812 211.668 39.5535 210.587 38.5811 209.797C27.8036 201.018 17.0278 192.201 6.45798 183.063L6.2085 182.849L5.3045 182.908L5.36803 183.812C9.78664 187.733 14.2996 191.556 18.8051 195.392L19.228 195.751C25.8844 201.363 32.5645 206.951 39.3116 212.473C39.3116 212.473 41.094 213.886 42.4051 214.905C46.5287 218.111 50.7718 221.216 54.9383 224.498C55.0582 224.595 56.2528 226.53 56.6652 225.448L56.5152 225.084C56.511 225.084 56.3332 225.192 56.2972 225.157Z" fill="white"/>
<path fill-rule="evenodd" clip-rule="evenodd" d="M5.38694 226.935C5.67144 227.556 5.99464 228.253 5.99464 228.253C15.9399 238.377 27.5222 247.314 37.4926 256.028C38.4822 256.888 38.3235 256.007 38.3235 256.007L37.9335 255.957C37.9335 255.957 38.4762 256.157 38.1306 255.822C37.4659 255.173 36.5433 254.245 36.5433 254.245C33.2684 251.098 30.0336 247.922 26.7678 244.787L26.3913 244.429C22.7826 241.001 19.1461 237.595 15.5536 234.157C15.5536 234.157 11.8365 230.74 9.47414 228.626C8.62093 227.858 7.42739 226.772 7.42739 226.772C6.66689 226.456 6.09604 226.212 6.09604 226.212L5.2341 226.08C5.28626 226.362 5.3345 226.649 5.38694 226.935Z" fill="white"/>
<path fill-rule="evenodd" clip-rule="evenodd" d="M5.74511 266.006L5.81832 266.993C10.663 271.387 15.6148 275.811 20.7837 279.957L20.9747 280.113C22.809 281.547 24.6628 282.96 26.5284 284.359L29.7444 286.607C30.8208 287.318 31.9012 288.025 32.9813 288.727C32.9813 288.727 34.34 289.575 35.2983 290.151C35.9722 290.557 36.5147 290.946 37.5154 291.334C37.5929 291.362 38.4418 292 38.4201 291.35C38.4051 290.8 37.4102 290.5 37.4099 290.496C36.9945 290.25 37.1331 290.312 37.1331 290.312C35.165 288.697 33.2327 287.05 31.2839 285.409L27.9075 282.701C20.726 277.414 13.7762 271.813 6.88417 266.07C6.88417 266.07 6.2264 265.974 5.74511 266.006ZM37.939 291.192C38.0937 291.115 37.6125 291.596 37.9108 291.211C37.9105 291.207 37.9552 291.183 37.939 291.192Z" fill="white"/>
<path fill-rule="evenodd" clip-rule="evenodd" d="M60.6879 290.25C60.5435 290.163 60.8626 290.541 60.9068 290.702C61.0035 291.087 61.0711 291.477 61.1179 291.869C61.2671 293.053 61.2558 294.29 61.0515 295.467C60.5244 298.516 57.9447 300.324 55.1282 301.152C49.5168 302.815 43.7298 300.715 41.7015 295.044C41.243 293.758 40.745 291.87 41.2608 290.508L60.6879 290.25Z" fill="white"/>
<path fill-rule="evenodd" clip-rule="evenodd" d="M61.3295 289.905L61.0827 290.821L60.433 290.784L60.641 289.534C59.9739 289.553 60.3021 289.493 60.0364 289.864L59.9915 290.653C60.0547 291.359 60.0013 290.866 60.094 291.319C60.094 291.319 60.4589 293.611 60.1591 295.383C60.1434 295.464 59.9583 296.165 59.9513 296.187C59.813 296.578 59.9515 296.254 59.7264 296.731C59.6892 296.805 59.3415 297.4 59.3343 297.417C59.1038 297.747 59.3169 297.473 58.982 297.877C58.9351 297.931 58.4349 298.443 58.4231 298.456C58.1137 298.737 58.3209 298.564 57.9607 298.839L57.37 299.252C56.6796 299.684 56.5677 299.708 56.2126 299.87C52.8113 301.393 48.6398 301.364 45.5146 299.089C45.5146 299.089 45.1469 298.802 45.1647 298.818C44.5066 298.268 44.8101 298.538 44.3271 298.032C42.8278 296.449 42.4003 295.124 41.9976 293.599C41.9976 293.599 41.8599 292.974 41.8607 292.986C41.7447 292.372 41.7885 292.655 41.7519 292.161L41.907 290.747L41.5009 289.874L40.6283 290.285C38.903 294.929 43.5552 300.743 48.1433 302.06C54.8174 303.972 63.3348 300.155 61.9711 291.292C61.8824 290.709 61.5462 289.941 61.5462 289.941C61.2031 289.838 61.458 289.943 61.3295 289.905Z" fill="white"/>
<path fill-rule="evenodd" clip-rule="evenodd" d="M25.9541 313.773C25.7558 313.698 26.3852 313.745 26.5866 313.803C26.9935 313.919 27.361 314.139 27.7084 314.372C28.7899 315.096 29.4033 316.308 29.5791 317.578C29.9506 320.227 27.5642 322.805 24.8387 322.265C23.5866 322.015 22.7825 320.971 22.4447 319.795C21.9773 318.183 22.1526 316.242 23.2415 314.901C24.8907 312.876 27.6542 313.354 28.8844 315.447L25.9541 313.773Z" fill="white"/>
<path fill-rule="evenodd" clip-rule="evenodd" d="M25.5237 312.977C21.0231 313.378 19.7721 323.518 25.9607 322.965C26.2406 322.938 26.523 322.886 26.7951 322.805C29.7067 321.954 31.1758 318.146 29.4409 315.28C29.4409 315.28 29.0901 314.546 28.6506 314.125C27.8119 313.323 26.7703 312.887 25.5237 312.977ZM25.5416 314.275C25.8358 314.466 26.3707 314.355 26.0021 314.375C25.7089 314.39 29.502 315.314 28.9336 318.693C28.6007 320.665 26.3741 322.538 24.3534 321.402C21.8179 319.979 22.4622 314.683 25.5157 314.264C25.5118 314.268 25.5282 314.263 25.5416 314.275Z" fill="white"/>
<path fill-rule="evenodd" clip-rule="evenodd" d="M17.8602 339.662C17.5788 339.538 18.4772 339.777 18.7474 339.924C19.2579 340.209 19.7143 340.566 20.1357 340.967C21.427 342.198 22.4572 343.74 23.1734 345.366C24.9952 349.492 24.0323 355.889 18.6421 356.441C11.7447 357.146 7.8348 347.079 11.1626 341.876C13.8883 337.616 19.1964 339.016 21.3519 342.783L17.8602 339.662Z" fill="white"/>
<path fill-rule="evenodd" clip-rule="evenodd" d="M18.8034 339.113C18.171 338.763 18.082 338.752 17.7635 338.639C16.0623 338.015 14.1048 338.097 12.5106 338.975C11.8127 339.357 9.65577 341.331 9.05871 344.082C7.68916 350.367 12.3451 358.224 18.7573 357.555C24.948 356.905 27.0458 347.499 21.8935 341.365C21.0957 340.417 20.1491 339.571 18.9968 339.113C18.9965 339.108 18.9954 339.092 18.8034 339.113ZM21.2108 354.208L20.6306 354.654C20.2191 354.916 20.5229 354.741 20.1765 354.907L19.4254 355.183C18.9049 355.322 19.3026 355.233 18.8408 355.305C18.8408 355.305 17.3249 355.455 16.2235 355.069C11.0732 353.255 8.8505 344.432 13.6301 340.982C13.6745 340.954 14.2219 340.649 14.2504 340.635C15.2639 340.194 14.8126 340.363 15.6663 340.306C15.7458 340.301 16.3696 340.328 16.3908 340.33C17.0179 340.407 16.5273 340.296 17.3161 340.53C17.376 340.547 18.0364 340.811 18.0579 340.818C18.566 341.066 18.0892 340.782 18.7957 341.236C18.8615 341.278 19.6247 341.892 19.5977 341.864C23.5807 345.617 24.1427 351.04 21.4508 353.957C21.1606 354.275 21.4005 354.023 21.2108 354.208Z" fill="white"/>
<path fill-rule="evenodd" clip-rule="evenodd" d="M64.394 348.242C64.2294 348.232 64.7013 348.121 64.8628 348.085C65.2027 348.012 65.5612 348.031 65.9035 348.059C66.8498 348.131 67.8009 348.405 68.6849 348.746C71.3882 349.779 74.1036 352.472 74.4764 355.461C75.2055 361.382 66.8773 365.455 61.9336 364.035C56.9043 362.592 55.4903 355.779 58.1736 351.706C60.5736 348.056 67.3115 346.777 70.6786 349.855L64.394 348.242Z" fill="white"/>
<path fill-rule="evenodd" clip-rule="evenodd" d="M64.2225 347.745C60.1793 348.132 56.4665 351.057 55.9281 355.405C55.301 360.516 59.1672 365.881 64.9419 365.427C70.6668 364.979 76.8714 360.508 75.3352 354.522C74.8206 352.509 73.4614 350.757 71.7958 349.459C71.7958 349.459 69.062 347.961 67.2717 347.709C66.2365 347.562 65.7691 347.614 64.2225 347.745ZM66.4494 348.628C66.4494 348.628 67.5081 348.941 68.4947 349.436C69.1074 349.74 68.6665 349.492 69.2721 349.881C70.4487 350.644 71.3573 351.488 72.1249 352.488C72.3136 352.737 72.1091 352.439 72.4306 352.918C72.4534 352.946 72.7556 353.452 72.7606 353.464C72.9661 353.841 72.7844 353.441 73.0421 354.038C73.0719 354.108 73.3114 354.811 73.3211 354.831C73.417 355.203 73.3423 354.834 73.4239 355.308C73.4239 355.308 73.491 356.009 73.4893 355.984C73.5035 356.521 73.5237 356.188 73.4481 356.764C73.4258 356.938 73.2345 357.674 73.2275 357.695C73.0784 358.113 73.2364 357.766 72.9691 358.305C72.9322 358.383 72.5955 358.951 72.584 358.969C72.4345 359.189 72.7055 358.835 72.3105 359.349C72.082 359.645 72.3554 359.329 71.9323 359.798C71.9323 359.798 71.491 360.247 71.2885 360.429C69.0775 362.347 66.101 363.426 63.219 363.127C63.0287 363.11 63.3172 363.15 62.901 363.085C62.8075 363.07 61.9225 362.842 61.9225 362.842C61.4534 362.676 61.7858 362.809 61.3695 362.614L60.4143 362.021C59.9889 361.687 60.6348 362.755 59.2073 360.73C59.1844 360.702 58.9165 360.27 58.9067 360.249C58.597 359.694 58.9484 360.436 58.4646 359.341C58.4501 359.313 58.2609 358.8 58.2559 358.787C58.0412 358.142 58.2023 358.803 57.9877 357.775C57.9808 357.734 57.8295 355.94 57.8317 355.911C57.8505 355.3 57.7923 355.951 57.8981 355.066C57.9007 355.04 57.9939 354.475 57.997 354.458C58.1223 353.87 57.9419 354.517 58.2126 353.646C58.3761 353.126 58.1819 353.626 58.4982 352.874C58.5092 352.848 58.7541 352.353 58.7613 352.336C59.0886 351.751 58.7315 352.266 59.2735 351.558C59.3084 351.514 59.8894 350.887 59.9011 350.874C60.3052 350.499 59.8506 350.873 60.5109 350.367C61.0074 349.99 60.8317 350.132 61.1832 349.916C61.4699 349.737 61.3532 349.816 61.3574 349.816C62.7638 349.022 64.3654 348.576 65.9847 348.529C65.9761 348.525 66.1886 348.561 66.4494 348.628Z" fill="white"/>
<path fill-rule="evenodd" clip-rule="evenodd" d="M65.4923 401.215C65.4112 401.132 65.19 399.427 65.0477 399.117C64.288 397.469 63.0612 395.939 61.6029 394.854C55.3754 390.206 48.6068 395.371 46.2075 401.4L65.4923 401.215Z" fill="white"/>
<path fill-rule="evenodd" clip-rule="evenodd" d="M56.8787 393.769C56.8787 393.769 57.6539 393.861 57.6665 393.86C60.3295 394.345 59.1216 394.193 60.0738 394.74C61.9038 395.788 63.4093 397.337 64.5307 399.18C64.8463 399.697 64.5193 398.878 64.8346 399.967C64.9777 400.483 65.0708 401.133 65.2809 401.388L65.6706 401.434C65.6706 401.434 65.6069 398.735 64.6263 397.114C62.9376 394.312 62.0926 394.183 60.9489 393.535C55.6728 390.573 48.5168 394.254 45.8075 401.069L46.0232 401.858L46.6651 401.584C47.8744 398.748 49.7297 396.533 52.1744 395.036C52.8776 394.607 53.7587 394.263 53.7668 394.259C56.7995 393.139 55.258 393.732 56.6131 393.757C56.7436 393.761 56.7395 393.761 56.8787 393.769Z" fill="white"/>
<path fill-rule="evenodd" clip-rule="evenodd" d="M134.126 387.117C134.097 387.002 135.025 385.516 135.093 385.272C135.547 383.661 135.62 381.904 135.215 380.279C133.981 375.37 127.684 373.829 125.506 378.936C123.929 382.634 127.224 390.571 132.155 388.793C133.334 388.367 134.618 387.442 134.839 386.137C134.933 385.585 134.822 384.146 135.201 383.709L134.126 387.117Z" fill="white"/>
<path fill-rule="evenodd" clip-rule="evenodd" d="M129.469 374.893C124.872 375.304 122.751 382.114 126.251 387.016C127.908 389.341 131.165 390.414 133.676 388.652C134.592 388.007 135.323 387.039 135.383 385.849C135.383 385.849 136.511 383.371 136.297 380.809C136.031 377.598 132.818 374.627 129.469 374.893ZM129.784 376.676C131.452 376.671 133.002 377.751 133.811 379.249C134.118 379.821 133.909 379.398 134.082 379.853C134.082 379.853 134.32 380.669 134.315 380.645C134.375 380.918 134.311 380.594 134.375 380.926C134.535 381.761 134.449 381.086 134.586 381.892C134.701 382.565 134.709 383.582 134.709 383.582C134.279 384.333 134.359 385.744 134.359 385.744C133.356 388.135 134.025 386.867 133.599 387.282L133.091 387.685C132.753 387.909 133.072 387.716 132.703 387.917C132.654 387.941 132.021 388.218 132.008 388.223C131.696 388.332 132.014 388.244 131.6 388.346L130.9 388.439C130.128 388.456 130.594 388.45 130.229 388.386C130.229 388.386 129.165 387.994 128.984 387.871C128.654 387.649 128.968 387.885 128.604 387.589C128.604 387.589 127.821 386.796 127.844 386.824C127.469 386.365 127.831 386.887 127.344 386.133C127.022 385.646 127.301 386.241 126.771 385.074C126.353 384.16 126.079 383.182 125.954 382.181C125.954 382.181 125.901 381.373 125.9 381.357C125.9 380.709 125.826 381.383 125.958 380.378C125.966 380.306 126.151 379.55 126.151 379.55C126.296 379.132 126.167 379.465 126.341 379.1C126.385 379.009 126.801 378.305 126.813 378.291C127.048 377.969 126.868 378.179 127.175 377.847C128.599 376.3 128.181 377.042 128.583 376.893C128.575 376.894 129.733 376.679 129.784 376.676Z" fill="white"/>
<path fill-rule="evenodd" clip-rule="evenodd" d="M198.482 402.37C198.304 402.664 198.593 399.774 198.562 399.431C198.505 398.742 198.322 398.068 198.082 397.424C197.354 395.488 195.968 394.167 193.94 393.691C189.359 392.608 184.141 396.545 184.455 401.333L198.482 402.37Z" fill="white"/>
<path fill-rule="evenodd" clip-rule="evenodd" d="M191.707 392.71C187.466 393.094 183.461 396.753 183.79 401.313L184.499 401.994L185.121 401.293C185.11 401.058 185.115 401.39 185.113 400.987C185.113 400.987 185.177 400.234 185.176 400.217C185.266 399.665 185.109 400.285 185.349 399.45C185.355 399.424 185.529 398.929 185.536 398.916C185.751 398.402 185.471 398.945 185.873 398.209C185.884 398.187 186.161 397.736 186.168 397.723C186.426 397.353 186.035 397.87 186.52 397.246C186.52 397.246 187.02 396.675 187.036 396.665C187.431 396.27 186.942 396.697 187.627 396.122C187.643 396.109 188.079 395.777 188.096 395.768C188.558 395.448 187.992 395.787 188.778 395.341C188.831 395.312 190.684 394.408 192.52 394.338C192.546 394.341 193.067 394.353 193.085 394.356C193.647 394.403 193.052 394.308 193.852 394.465C193.904 394.475 194.619 394.684 194.636 394.687C195.141 394.881 194.667 394.643 195.36 395.026C195.404 395.049 195.968 395.44 195.981 395.452C196.377 395.779 195.989 395.384 196.546 395.995C196.574 396.027 197.016 396.616 197.025 396.628C197.264 397.003 196.96 396.472 197.362 397.223C197.501 397.475 197.361 397.135 197.697 397.958C197.737 398.056 197.991 398.863 197.996 398.871C198.094 399.273 198.039 399.012 198.111 399.465C198.3 400.617 197.92 401.356 198.147 402.392C198.25 402.873 198.588 402.708 198.706 402.519C198.706 402.519 199.086 400.048 198.961 398.909C198.621 395.707 196.033 392.981 192.787 392.703C192.432 392.671 192.067 392.683 191.707 392.71Z" fill="white"/>
<path fill-rule="evenodd" clip-rule="evenodd" d="M179.627 333.284C179.392 333.358 180.065 333.054 180.306 333.004C180.808 332.9 181.284 332.978 181.764 333.131C183.16 333.586 184.253 334.674 184.625 336.113C185.414 339.171 183.216 343.46 179.65 343.11C178.825 343.029 178.029 342.754 177.362 342.255C174.63 340.22 175.542 335.276 178.202 333.546C180.109 332.311 183.088 333.191 184.108 335.151L179.627 333.284Z" fill="white"/>
<path fill-rule="evenodd" clip-rule="evenodd" d="M179.602 332.458C176.275 332.748 173.937 336.949 175.018 340.493C175.018 340.493 175.465 341.792 176.348 342.629C179.587 345.678 186.423 342.623 185.296 336.544C185.212 336.095 185.408 336.385 184.91 335.325C184.254 333.922 182.867 332.895 181.334 332.659C181.334 332.655 180.313 332.403 179.602 332.458ZM182.621 334.012C182.935 334.244 182.704 334.057 182.999 334.324L183.462 334.848C183.697 335.169 183.533 334.915 183.719 335.252L183.993 335.894C184.232 336.651 184.093 336.198 184.147 336.644L184.171 337.45C184.148 337.872 184.187 337.503 184.115 338.012L184 338.558C183.893 338.977 184.007 338.612 183.83 339.111C183.83 339.111 183.424 340.029 183.49 339.882C183.292 340.269 183.477 339.95 183.207 340.375L182.719 341.013C182.441 341.317 182.682 341.082 182.34 341.386L181.843 341.755C180.801 342.4 181.41 342.007 181.006 342.13L179.933 342.238C179.607 342.209 179.819 342.229 179.585 342.194C179.581 342.194 178.996 342.06 178.996 342.06C178.099 341.778 178.579 341.919 178.252 341.739C178.252 341.739 177.686 341.314 177.651 341.278C177.461 341.085 177.688 341.343 177.442 341.048C177.442 341.048 176.86 339.922 176.876 339.98C176.64 339.209 176.838 339.907 176.722 339.359L176.628 338.315C176.656 337.149 176.654 337.687 176.756 337.197L176.989 336.391C177.258 335.684 177.09 336.069 177.321 335.613L177.738 334.93C178.055 334.51 177.774 334.831 178.124 334.471C178.124 334.471 179.058 333.78 179.263 333.703C179.76 333.523 179.431 333.629 179.792 333.555L180.969 333.495C182.133 333.616 181.664 333.583 182.178 333.789C182.186 333.789 182.638 334.024 182.621 334.012Z" fill="white"/>
<path fill-rule="evenodd" clip-rule="evenodd" d="M141.54 310.985C141.178 310.849 142.281 311.256 142.555 311.52C143.111 312.055 143.558 312.715 143.95 313.379C145.141 315.385 145.807 318.095 144.741 320.304C142.51 324.927 134.806 325.054 131.742 321.292C131.006 320.382 130.595 319.303 130.452 318.148C130.128 315.589 131.32 312.417 133.675 311.157C137.475 309.121 144.003 311.047 144.952 315.637L141.54 310.985Z" fill="white"/>
<path fill-rule="evenodd" clip-rule="evenodd" d="M136.277 309.435C130.971 309.863 127.029 316.91 130.801 321.808C134.431 326.525 144.213 325.836 145.719 319.639C146.274 317.345 145.406 314.746 144.709 313.152C144.709 313.152 144.434 312.75 144.211 312.487C142.259 310.224 139.357 309.225 136.277 309.435ZM144.437 315.801C144.437 315.801 144.596 316.627 144.597 316.64C144.696 317.436 144.669 317.085 144.662 317.695C144.656 318.305 144.671 317.883 144.618 318.307C144.618 318.307 144.484 319.005 144.491 318.988C144.265 319.831 144.48 319.27 144.091 320.002C144.053 320.072 143.598 320.757 143.586 320.767C143.373 321.033 143.608 320.778 143.25 321.15C143.179 321.222 142.574 321.732 142.574 321.732C142.152 322.038 142.491 321.814 142.057 322.065C142.057 322.065 141.39 322.399 141.422 322.38C140.854 322.623 141.442 322.42 140.622 322.668C140.597 322.673 140.03 322.816 140.014 322.817C139.437 322.93 140.233 322.823 139.148 322.949C139.09 322.957 137.66 323.081 136.321 322.79C136.296 322.783 135.731 322.631 135.71 322.629C135.049 322.42 135.771 322.73 134.718 322.248C134.692 322.233 134.209 321.983 134.191 321.972C133.75 321.711 134.601 322.39 133.369 321.416C131.994 320.33 131.357 318.497 131.482 316.748L131.632 315.768C131.769 315.166 131.63 315.679 131.811 315.109L132.196 314.184C132.461 313.666 132.299 313.963 132.528 313.603C132.528 313.603 132.957 313.024 132.973 313.011C133.301 312.636 133.064 312.866 133.493 312.493C133.665 312.347 134.336 311.946 134.287 311.97C134.69 311.771 134.417 311.894 134.773 311.749C134.838 311.72 135.592 311.485 135.613 311.48C136.217 311.339 135.572 311.432 136.552 311.321C136.577 311.32 137.105 311.285 137.122 311.288C137.68 311.277 136.989 311.246 137.925 311.303C138.71 311.352 139.87 311.663 139.891 311.669C140.437 311.844 139.807 311.604 140.653 311.947C140.675 311.954 141.169 312.187 141.182 312.19C141.687 312.455 141.157 312.133 141.868 312.586C141.89 312.602 142.309 312.902 142.327 312.914C142.81 313.298 142.316 312.813 143.024 313.553C143.056 313.584 143.497 314.098 143.497 314.098C144.121 314.7 143.703 314.223 144.109 314.776L144.381 315.582C144.409 315.694 144.409 315.694 144.437 315.801Z" fill="white"/>
<path fill-rule="evenodd" clip-rule="evenodd" d="M205.453 308.976C205.817 308.948 204.817 309.345 204.466 309.444C203.719 309.653 202.935 309.742 202.156 309.781C199.855 309.885 197.426 308.998 195.949 307.183C194.152 304.972 193.181 301.572 193.846 298.763C194.339 296.675 196.531 294.716 198.813 295.032L205.453 308.976Z" fill="white"/>
<path fill-rule="evenodd" clip-rule="evenodd" d="M193.141 297.767C191.186 302.426 194.242 309.157 199.565 310.396C201.528 310.851 203.678 310.626 205.472 309.786C206.243 308.398 206.043 309 205.756 308.725C205.756 308.725 205.563 308.607 205.439 308.699C205.439 308.699 204.568 308.689 204.589 308.683C204.053 308.853 204.657 308.7 204.014 308.826L203.089 308.95C201.73 309.056 202.251 308.997 201.826 308.982C201.826 308.982 201.073 308.914 201.056 308.911C200.5 308.826 201.11 308.966 200.277 308.756C199.755 308.627 200.271 308.79 199.531 308.536C199.505 308.525 199.017 308.335 199.004 308.327C198.415 308.055 198.948 308.364 198.151 307.87C198.098 307.84 197.43 307.333 197.412 307.314C196.925 306.875 197.32 307.32 196.758 306.634C196.731 306.602 196.393 306.132 196.393 306.132C196.016 305.573 196.156 305.782 195.845 305.206C195.265 304.125 194.873 302.953 194.709 301.741C194.002 296.538 194.531 299.281 195.141 298.077L195.719 297.215C196.286 296.564 195.973 296.917 196.3 296.651L196.904 296.246C197.879 295.732 197.29 296.036 197.695 295.934C197.695 295.934 198.917 295.345 198.726 295.32C199.538 294.812 198.801 294.735 198.801 294.735C197.707 293.684 196.785 294.304 195.891 294.774C195.874 294.775 193.846 296.14 193.141 297.767ZM205.481 309.281L205.181 309.002C205.181 308.998 205.548 309.276 205.481 309.281Z" fill="white"/>
</svg>
