<svg width="170" height="73" viewBox="0 0 170 73" fill="none" xmlns="http://www.w3.org/2000/svg">
<rect width="73" height="73" rx="36.5" fill="white"/>
<g clip-path="url(#clip0_208:14)">
<rect x="34.4761" y="8.50635" width="9.49855" height="11.1969" fill="white" fill-opacity="0.3"/>
<path d="M55.3487 37.1021H52.042C51.462 43.1334 50.0114 46.1427 43.9746 50.371C45.2283 50.9631 55.9969 45.9296 55.3487 37.1021Z" fill="#FFC901"/>
<path d="M42.4833 35.11L38.2996 34.243L46.8547 27.9563L51.3345 27.7241L42.4833 35.11Z" fill="#FFC901"/>
<path d="M51.0729 26.253C49.0105 23.8933 47.1428 23.0309 43.2446 22.1343C45.7487 23.7419 46.9657 24.8793 48.3291 26.4853L51.0729 26.253Z" fill="#FFC901"/>
<path d="M45.3629 42.622C40.5137 52.3096 27.3449 52.4758 22.7571 43.2868C25.5249 43.806 27.243 42.7039 30.34 40.4851C32.0555 39.2562 34.1731 39.1955 35.7834 40.4851C39.8524 43.7433 41.9348 44.1642 45.3629 42.622Z" fill="#FFE801"/>
<path fill-rule="evenodd" clip-rule="evenodd" d="M35.3853 8.08929C32.5802 8.29614 29.7188 8.89969 29.2305 9.38722L28.8437 9.77382L29.4924 14.5614C30.0031 18.3287 30.0902 19.3805 29.9012 19.497C29.7692 19.5785 28.6018 19.6989 27.3072 19.7644C23.3636 19.9642 21.2966 20.3861 22.0338 20.8412C22.4021 21.0684 24.9299 21.4069 27.4891 21.5714L29.5904 21.7065L28.0952 22.5175C26.7846 23.2285 26.4512 23.3284 25.3933 23.3284C24.7214 23.3284 23.6316 23.4996 22.9351 23.7145C20.7441 24.3903 18.8395 26.5731 18.4936 28.8043C18.3765 29.5603 18.3308 29.6082 17.676 29.663C17.1291 29.7086 16.9823 29.8015 16.9823 30.1024C16.9823 30.395 17.13 30.4982 17.6141 30.5448C17.9616 30.578 18.2781 30.7068 18.3175 30.831C18.3568 30.955 18.5203 31.5305 18.681 32.1098C19.2841 34.2838 20.8694 35.8706 23.1775 36.6104C24.0049 36.8755 24.1401 36.972 23.8461 37.0871C22.7129 37.5304 21.2004 37.1878 19.7681 36.1637L19.3064 35.8334L19.4195 36.7864C19.6858 39.033 20.9869 41.1677 22.5116 41.8594C23.5306 42.3218 25.1555 42.3162 26.1901 41.847C26.6314 41.647 27.5195 41.1257 28.1636 40.6887C30.2078 39.3021 31.2921 38.9031 33.029 38.8987C34.7803 38.8941 35.7026 39.2271 37.3604 40.4626C38.6565 41.4285 39.3527 41.7764 40.507 42.0348C43.2523 42.6492 45.5917 41.0248 46.6842 37.7452C46.911 37.065 47.0689 36.2734 47.0353 35.9867L46.9742 35.465L46.288 36.0685C44.9025 37.2874 44.0312 37.3403 41.1823 36.378C37.7062 35.2039 35.2845 35.2778 33.7318 36.6053L32.9858 37.243L32.5298 36.749C31.9764 36.1492 31.0466 35.7315 30.2651 35.7315C29.5562 35.7315 29.5373 35.5552 30.1817 34.9538C30.9857 34.2037 31.5888 33.0034 31.8922 31.55C32.5061 28.6085 31.3466 25.7312 28.9912 24.3526C28.5327 24.0841 28.2007 23.7948 28.2536 23.7095C28.4867 23.3328 31.3483 22.3475 33.0372 22.0626C35.8925 21.5806 38.5664 22.0586 41.3724 23.5525C42.505 24.1556 45.612 26.8616 45.5008 27.1484C45.4706 27.2261 44.0705 28.3469 42.3895 29.6388C40.7084 30.9308 38.7064 32.5083 37.9406 33.1441L36.5483 34.3004L37.3948 34.3576C38.1923 34.4116 38.356 34.3275 40.2199 32.9059C42.8221 30.9212 46.1184 28.5853 46.8069 28.2382C47.2839 27.9976 51.2724 27.5936 51.2724 27.7857C51.2724 27.8247 49.2952 29.4682 46.8787 31.4382C44.4621 33.4081 42.485 35.0988 42.485 35.195C42.485 35.2911 42.907 35.344 43.4227 35.3121C44.32 35.257 44.5428 35.11 48.5733 31.9152C51.0229 29.9735 52.9223 28.3252 53.1118 27.9769C53.392 27.4619 53.4029 27.2946 53.1901 26.7811C52.7112 25.6261 49.725 23.2575 47.3968 22.1856C46.3449 21.7015 46.2752 21.6372 46.7832 21.6203C49.3762 21.534 52.9916 20.9663 52.9916 20.6454C52.9916 20.279 49.0488 19.7222 46.2246 19.6896C44.2749 19.6671 44.3636 20.0678 45.1288 14.7417C45.5071 12.1081 45.7438 9.84404 45.671 9.55686C45.5145 8.93995 45.0083 8.75161 42.485 8.37132C40.009 7.99808 37.807 7.9105 35.3853 8.08929ZM42.7715 9.13973L44.1087 9.49427L42.676 9.58968L41.2433 9.68509L42.4391 10.0402C43.0967 10.2354 43.682 10.4716 43.7399 10.5649C43.7976 10.6582 43.2594 10.7391 42.544 10.7449L41.2433 10.7552L42.3671 11.1137C43.9567 11.6209 44.0245 11.815 42.5799 11.7232C41.8974 11.6797 41.3388 11.6902 41.3388 11.7465C41.3388 11.8028 41.7902 11.9951 42.3417 12.1739C43.856 12.6645 43.925 12.8885 42.5327 12.7944C41.8762 12.7502 41.3388 12.7364 41.3388 12.7639C41.3388 12.7916 41.8116 12.9629 42.3895 13.145C42.9673 13.3268 43.4403 13.5245 43.4405 13.584C43.4407 13.6436 42.9033 13.673 42.2466 13.6493L41.0523 13.6064L42.2939 14.0637L43.5356 14.5211L42.2939 14.5534L41.0523 14.5856L42.1029 14.8678C43.5899 15.2674 43.6854 15.491 42.3161 15.367C41.6735 15.3088 41.1478 15.31 41.1478 15.3695C41.1478 15.4292 41.6206 15.6153 42.1984 15.783C42.7763 15.9507 43.2491 16.1396 43.2491 16.2028C43.2491 16.2658 42.8193 16.2604 42.2939 16.1908C41.1508 16.0395 40.9799 16.365 42.1029 16.5545C43.1754 16.7354 43.0592 17.0052 41.9596 16.8873C40.8887 16.7724 40.9531 16.9361 42.123 17.303L42.9626 17.5662L42.1029 17.5986L41.2433 17.6309L41.9931 17.9053C43.0862 18.3052 43.0907 18.4214 42.0074 18.2651C40.887 18.1037 40.9374 18.267 42.123 18.6388L42.9626 18.9019L41.9119 18.9355L40.8612 18.9691L41.6253 19.2206C42.3811 19.4694 42.3719 19.4722 40.7657 19.478C39.8726 19.4812 38.7551 19.415 38.2823 19.331L37.4227 19.1782L38.2823 19.141C38.9502 19.112 39.0568 19.0671 38.7599 18.9397C38.5498 18.8494 38.077 18.7614 37.7092 18.7439C37.0647 18.7134 37.0748 18.7034 37.9958 18.467C38.8277 18.2533 38.8728 18.2188 38.3457 18.1991C38.0128 18.1865 37.5829 18.1123 37.3906 18.0339C37.1262 17.9262 37.2274 17.8656 37.8047 17.7854L38.5689 17.6795L37.7092 17.4828L36.8496 17.2861L37.9002 17.0861C38.6355 16.946 38.7788 16.8785 38.3778 16.8607C38.0626 16.8468 37.5898 16.776 37.3272 16.7035C36.9199 16.5909 37.0043 16.5382 37.9002 16.3459C38.8214 16.148 38.8686 16.1173 38.2823 16.0963C37.9146 16.083 37.3988 16.0114 37.1361 15.9372C36.7413 15.8254 36.857 15.766 37.8047 15.5941L38.9509 15.3863L37.7092 15.2281C36.7132 15.1012 36.5621 15.0411 36.9451 14.9249C37.2078 14.8449 37.7235 14.77 38.0913 14.7577C39.0757 14.7255 38.4143 14.3668 37.3636 14.3629C36.2159 14.3589 36.5319 14.0355 37.8555 13.8596C38.826 13.7306 38.8856 13.6989 38.3778 13.5825C38.0626 13.5104 37.4609 13.4384 37.0406 13.4228C36.0799 13.3871 36.4612 13.1347 37.8047 12.9171L38.7599 12.7626L37.4227 12.5435L36.0855 12.3245L37.3069 12.0581C38.288 11.8442 38.4384 11.7665 38.071 11.6638C37.8194 11.5934 37.2269 11.5261 36.7541 11.5139C35.6768 11.4864 36.0452 11.1797 37.3713 10.9998C38.4563 10.8525 38.3897 10.5491 37.2681 10.5304C35.6923 10.5039 35.6027 10.2344 37.0815 9.96901C37.8395 9.83316 38.4147 9.64921 38.3597 9.56029C38.3047 9.47156 37.7491 9.39886 37.1249 9.39886C35.7672 9.39886 35.6211 9.09031 36.8973 8.91858C37.3965 8.85141 37.8907 8.76135 37.9958 8.7186C38.4372 8.53885 41.5354 8.8121 42.7715 9.13973ZM7.89999 21.63C5.42748 21.9494 5.15125 22.049 5.0181 22.669C4.80033 23.6836 4.85095 26.0751 5.11094 27.0494C5.79235 29.6035 7.20502 31.1456 9.51401 31.8559C10.4044 32.1297 10.5643 32.2524 10.6613 32.7363C10.8569 33.7136 10.8031 34.0663 10.4768 33.9411C10.1931 33.8323 8.00181 34.633 7.63942 34.9778C7.53665 35.0759 7.57294 35.2715 7.72902 35.4592C7.9445 35.7186 8.20583 35.7539 9.17817 35.6542C9.83054 35.5875 10.4126 35.6107 10.4714 35.706C10.5305 35.8012 10.8804 35.9357 11.2493 36.0048C11.8056 36.109 11.92 36.2126 11.92 36.6114C11.92 36.8759 12.0184 37.2798 12.139 37.5092C12.3554 37.9215 12.3535 37.9221 11.9527 37.5668C11.73 37.3693 11.5024 37.0688 11.4472 36.8989C11.1884 36.1042 8.29046 35.7218 8.29046 36.4824C8.29046 37.0482 8.78293 37.3029 9.73121 37.2275L10.6078 37.1579L10.1727 37.5099C9.87983 37.7467 9.56329 37.8273 9.20492 37.7555C8.54013 37.6227 8.47671 38.0534 9.09718 38.4875C9.62232 38.855 9.95681 38.8596 10.6306 38.5085C10.9196 38.3579 11.1559 38.3106 11.1559 38.4035C11.1559 38.6539 10.3576 39.1662 9.96713 39.1662C9.78049 39.1662 9.62767 39.2416 9.62767 39.3338C9.62767 39.6664 10.1918 39.9581 10.716 39.8969L11.2514 39.8341V42.9797V46.1255L9.83303 46.319C8.16476 46.5468 7.85968 46.9017 9.16442 47.0973C10.1488 47.2446 14.222 47.0561 15.0957 46.8227C16.0761 46.5609 15.6789 46.3232 14.1664 46.2661C12.82 46.2154 12.6786 46.1726 12.5898 45.7891C12.4089 45.0077 12.1141 41.9415 12.1126 40.8238L12.1111 39.7144L12.7319 39.7744C13.4057 39.8392 13.3667 39.7822 14.6883 42.6448C15.0629 43.456 15.5364 44.2091 15.741 44.3185C16.0769 44.498 17.8278 44.145 21.0223 43.2535C21.3769 43.1547 21.5326 43.3296 22.1656 44.5396C23.5842 47.2502 26.895 50.03 29.8886 51.0245C30.5653 51.2491 31.1452 51.4544 31.1777 51.4807C31.2709 51.5557 30.6161 53.7452 30.4457 53.9282C30.3616 54.0186 29.361 53.79 28.2223 53.4202C25.5622 52.5562 25.2154 52.4846 24.4131 52.635C23.441 52.8172 22.7936 53.5872 22.0461 55.4499L21.3826 57.103L19.7555 57.1327C18.1352 57.1625 18.1379 57.1631 20.4209 57.3176C23.4089 57.5197 59.2743 57.5199 62.2566 57.3178C64.29 57.18 64.3853 57.1592 63.1004 57.1327C62.3036 57.1163 61.6079 57.0593 61.5544 57.0058C61.4597 56.9112 64.2821 47.6119 64.5245 47.22C64.5916 47.1116 64.9895 46.9651 65.4086 46.8943C65.8278 46.8235 66.2217 46.6834 66.2837 46.5831C66.4878 46.2533 65.9471 45.8448 65.3066 45.8448C64.8397 45.8448 64.5515 45.694 64.1839 45.2577C63.4544 44.3917 63.5577 43.9069 64.5215 43.671C64.9313 43.5708 65.132 43.6229 65.3274 43.8801C65.6499 44.3051 65.6828 44.6684 65.3704 44.3564C65.0944 44.0807 64.5203 44.0559 64.3612 44.3129C64.2982 44.4148 64.395 44.7247 64.5767 45.0016C64.8692 45.4475 65.0006 45.4943 65.7307 45.412C67.2649 45.2393 67.3847 44.7762 66.4452 42.6486L66.0027 41.6468H64.2067H62.4104L60.7099 40.5699C59.468 39.7835 58.6998 39.4357 57.8629 39.2803L56.7168 39.0678L56.7811 37.7965C56.8763 35.9193 56.8302 35.9004 52.3022 35.9657L48.6935 36.0178L48.5567 37.5242C48.1502 42.0065 46.5291 45.3117 43.5909 47.6501C39.1954 51.1482 33.9574 51.7693 29.0173 49.3785C26.5414 48.1802 24.2612 46.065 23.1065 43.8954C22.8715 43.4539 22.4679 43.0778 22.0063 42.8698C21.6052 42.6893 20.888 42.126 20.4125 41.6182L19.5481 40.695L18.3129 41.2543C17.4584 41.6413 17.0769 41.9203 17.0744 42.1596C17.071 42.5126 15.9475 40.7013 14.9609 38.752C14.6596 38.1566 14.2401 37.0463 14.0286 36.2841C13.6336 34.8597 13.4401 34.5967 12.7797 34.5866C12.0601 34.5756 11.9531 34.3599 12.0832 33.1813L12.2066 32.0621L13.2506 31.6738C14.6753 31.1439 16.1114 29.6933 16.7017 28.1884C17.0609 27.2728 17.1503 26.6752 17.1573 25.1412C17.1621 24.0917 17.0601 22.8798 16.9306 22.448C16.7076 21.705 16.6475 21.6563 15.809 21.5416C14.5924 21.3751 9.42709 21.4329 7.89999 21.63ZM44.6818 22.4734C45.3122 22.6383 46.4298 23.0729 47.1652 23.4393C48.4942 24.1013 50.8903 25.86 50.8903 26.1733C50.8903 26.2634 50.0091 26.3741 48.9323 26.4193L46.9742 26.5015L45.9235 25.4303C44.7273 24.2106 44.0176 23.6528 42.3895 22.6535L41.2433 21.95L42.3895 22.0618C43.0199 22.1233 44.0514 22.3085 44.6818 22.4734ZM16.1789 23.1376C16.2748 23.505 16.3174 24.5018 16.2736 25.3526C16.1386 27.9808 14.8222 29.9502 12.7233 30.6646C9.07253 31.9072 5.72568 28.9658 5.75434 24.5396C5.75911 23.7876 5.82101 23.0787 5.89188 22.9642C5.97555 22.8289 7.13835 22.7472 9.20912 22.731C10.9628 22.7173 13.0423 22.644 13.8303 22.5679C15.9347 22.3648 15.98 22.3759 16.1789 23.1376ZM27.8712 25.0908C29.664 26.014 30.638 27.5468 30.7918 29.6865L30.8854 30.9878L30.2378 30.5936C29.5658 30.1843 28.815 30.0899 28.3875 30.3608C28.1894 30.4862 28.1991 30.5671 28.4353 30.7629C29.0718 31.2905 28.5591 32.2968 27.6536 32.2968C27.2497 32.2968 27.1957 32.3627 27.3005 32.7262C27.4807 33.3505 28.2905 34.013 28.8848 34.0222L29.3994 34.03L28.6878 34.6584C27.8144 35.4297 26.7769 35.7571 25.2302 35.7498C22.4104 35.7365 20.3638 34.2718 19.6254 31.7387C18.8351 29.0274 20.3359 25.8852 22.9168 24.8475C24.2761 24.3008 26.5542 24.4127 27.8712 25.0908ZM22.8415 27.3175C21.6928 29.0327 20.8985 30.7898 20.8985 31.615C20.8985 31.8618 21.0617 32.265 21.2613 32.5111L21.6239 32.9586L21.8543 32.103C22.3783 30.1574 23.7138 27.7628 25.0718 26.3338L25.7519 25.6182H24.8657H23.9795L22.8415 27.3175ZM26.962 27.0358C25.7129 27.481 24.6637 28.433 24.0028 29.7208C23.0717 31.5353 23.4641 34.5866 24.6286 34.5866C25.186 34.5866 25.1774 34.6248 24.8147 33.7573C23.7525 31.2181 25.4775 28.1285 28.1577 27.7693C29.0108 27.655 29.0809 27.5386 28.5724 27.0789C28.1569 26.7034 27.9132 26.6967 26.962 27.0358ZM30.9204 36.8589C31.1913 36.9646 30.9853 37.0415 30.1771 37.1365C29.562 37.2086 28.0608 37.667 26.8413 38.1551C24.9203 38.9237 24.432 39.0443 23.1909 39.0567C21.9847 39.0685 21.66 39.001 21.1373 38.6285C20.3403 38.0606 20.3315 37.7252 21.1243 38.1347C21.9964 38.5852 23.9986 38.3927 26.2474 37.642C28.918 36.7507 30.1255 36.5484 30.9204 36.8589ZM40.5521 37.4225C42.4286 38.0494 44.0723 38.1963 45.0992 37.829L45.637 37.6366L45.1086 38.1087C44.431 38.714 43.2076 39.041 42.1908 38.8888C41.7512 38.8229 40.5416 38.464 39.5026 38.091C38.1979 37.6225 37.1411 37.3794 36.0855 37.3048C34.5658 37.1974 34.561 37.1955 35.2258 36.9444C36.3029 36.5375 38.4913 36.7341 40.5521 37.4225ZM55.1226 37.9259C55.0867 38.3457 55.0309 38.7165 54.9984 38.75C54.966 38.7834 54.4429 38.7191 53.8362 38.6071C52.4188 38.3453 51.8455 38.6438 51.8455 39.6433C51.8455 40.4233 52.2932 40.7807 53.517 40.9775C54.4494 41.1272 54.484 41.2538 53.9394 42.5231C52.1521 46.6876 48.3355 49.5338 43.3572 50.4147C41.4998 50.7432 41.3298 50.6618 42.5234 50.0147C46.7499 47.724 49.5512 43.3959 50.0446 38.3942L50.1766 37.0566L52.6822 37.1096L55.1877 37.1626L55.1226 37.9259ZM29.9725 38.4793C29.4472 38.719 28.5287 39.2282 27.9315 39.611C25.6594 41.0669 24.0083 41.4014 22.6102 40.6889C22.1941 40.4767 21.8537 40.2737 21.8537 40.2373C21.8537 40.201 22.434 40.2115 23.1431 40.2606C24.5172 40.356 24.6559 40.3159 28.5398 38.7023C30.3332 37.9574 31.5217 37.7721 29.9725 38.4793ZM39.0909 39.2095C41.0097 39.8701 41.6838 40.0157 42.8107 40.0129L44.1871 40.0094L43.6734 40.346C42.8613 40.8782 41.6729 40.9742 40.5263 40.6004C39.3118 40.2045 35.9515 38.4102 36.4165 38.406C36.5988 38.4043 37.8023 38.7659 39.0909 39.2095ZM57.5942 41.7132C58.1818 41.8514 59.1877 42.283 59.8294 42.6725C60.7551 43.2342 61.1215 43.6054 61.6024 44.4696C61.9357 45.0686 62.4316 45.7486 62.7046 45.981L63.2007 46.4033L61.9911 51.6101C61.3257 54.4737 60.7429 56.881 60.6959 56.9598C60.6487 57.0387 58.9889 57.103 57.0071 57.103H53.4041L53.3028 56.5782C52.7779 53.8581 52.7466 53.7669 52.129 53.15C51.2859 52.3079 50.5751 52.3276 47.0707 53.2897C45.5478 53.7078 44.2369 54.0499 44.1574 54.0499C44.0782 54.0499 44.0132 53.5074 44.0132 52.8445V51.6391L45.4838 51.2928C50.04 50.2198 54.0996 46.5445 55.8751 41.8854C56.065 41.3873 56.1652 41.3772 57.5942 41.7132ZM40.4024 52.4757C40.9657 53.9522 41.0293 54.7733 40.6717 55.9533L40.3231 57.103H37.2015H34.0796V56.4475C34.0796 56.0871 33.9906 55.5581 33.8817 55.2723C33.7146 54.833 33.787 54.5359 34.3499 53.3517L35.0159 51.9509H37.6089H40.2022L40.4024 52.4757ZM51.2246 53.284C51.715 53.2893 51.4424 53.6688 50.9381 53.6828C50.4315 53.6967 50.4366 53.7062 51.0813 53.9453L51.75 54.1934L51.1769 54.2724L50.6038 54.3514L51.2724 54.662L51.941 54.9729L51.2724 55.003L50.6038 55.033L51.2724 55.281L51.941 55.5291L51.3679 55.6119C50.8682 55.684 50.8437 55.7134 51.1769 55.8422C52.3072 56.2792 52.2508 56.3139 50.4127 56.3147C48.8688 56.3153 48.5939 56.2756 48.98 56.1073L49.4576 55.8991L48.8845 55.7749L48.3114 55.6508L48.789 55.481L49.2666 55.3112L48.6935 55.1872L48.1204 55.0629L48.598 54.8548L49.0755 54.6466L48.5502 54.6344C48.2614 54.6279 48.0249 54.5531 48.0249 54.4684C48.0249 54.3836 48.2614 54.2211 48.5502 54.107L49.0755 53.8997L48.4069 53.8673C47.7603 53.836 47.754 53.8285 48.2159 53.6412C48.9454 53.3454 50.1772 53.1206 50.6038 53.2053C50.8139 53.2471 51.0934 53.2826 51.2246 53.284ZM26.4291 53.4933C27.3684 53.6944 27.7311 54.0276 27.0593 54.072C26.7408 54.093 26.7408 54.0984 27.0593 54.1814C27.5802 54.3174 27.4522 54.621 26.8682 54.6344L26.3429 54.6466L26.8205 54.8611L27.2981 55.0757L26.7278 55.1522L26.1576 55.2288L26.6323 55.4913L27.107 55.7537L26.4384 55.7672L25.7698 55.7808L26.2474 56.0535C26.6833 56.3023 26.5498 56.325 24.7191 56.313C22.921 56.301 22.7859 56.2771 23.414 56.0811C24.3902 55.7768 24.5174 55.5791 23.7481 55.5617L23.0954 55.547L23.8595 55.2955L24.6236 55.044L23.955 55.004L23.2864 54.9639L24.0505 54.7124C24.7409 54.4851 24.7629 54.4594 24.2781 54.4462C23.6824 54.43 23.7499 54.0499 24.3484 54.0499C24.5524 54.0499 24.7191 53.964 24.7191 53.8591C24.7191 53.7541 24.5258 53.6669 24.2893 53.6654C23.9418 53.6629 23.9143 53.627 24.1461 53.4774C24.5224 53.2345 25.2443 53.2395 26.4291 53.4933ZM44.9617 56.5179C45.2417 57.0408 45.2154 57.103 44.7137 57.103C44.1233 57.103 43.9861 56.9377 44.2176 56.5055C44.4625 56.0485 44.7124 56.0527 44.9617 56.5179ZM30.259 56.7213C30.448 57.074 30.4042 57.103 29.6859 57.103C28.9677 57.103 28.9239 57.074 29.1129 56.7213C29.2254 56.5114 29.4833 56.3397 29.6859 56.3397C29.8886 56.3397 30.1465 56.5114 30.259 56.7213ZM24.4326 58.1139C27.7109 58.3662 54.0509 58.37 57.4809 58.1187C59.5354 57.9681 55.7268 57.9229 41.0523 57.9229C26.7752 57.9229 22.5766 57.9712 24.4326 58.1139ZM27.0115 58.8795C29.4565 59.118 47.728 59.1056 51.8455 58.8625C54.0442 58.7329 50.9709 58.6873 39.9061 58.6858C28.5615 58.6843 25.4844 58.7304 27.0115 58.8795Z" fill="#1A1400"/>
<path d="M8.04921 28.4904C7.28012 27.6359 6.66615 26.3502 6.91067 26.1059C7.05184 25.9649 15.0726 25.9685 15.2138 26.1095C15.388 26.2836 15.0274 27.3325 14.5519 28.0349C13.8094 29.1317 12.8066 29.6948 11.4411 29.7818C9.81796 29.8851 9.03665 29.5876 8.04921 28.4904Z" fill="#E31600"/>
<path d="M24.1253 34.4022C23.1094 33.899 22.4818 33.6576 21.6262 32.9455C22.407 29.7377 23.2414 28.1755 25.7305 25.6074C26.9422 25.8376 27.4318 26.1791 28.2235 26.8176C24.5948 27.2991 22.6543 31.4369 24.1253 34.4022Z" fill="#FFE801"/>
<path d="M31.7117 34.8823C34.3999 29.9698 33.8507 27.3266 29.5701 23.2477C36.3178 21.7619 39.7285 22.9608 44.3853 28.0177L36.5333 34.3015C35.1974 34.6242 34.4379 35.0381 33.0894 35.9984L31.7117 34.8823Z" fill="#FFE801"/>
</g>
<path d="M87.7247 23.28C88.3114 23.28 88.9247 23.3333 89.5647 23.44C90.2047 23.5333 90.7047 23.66 91.0647 23.82C91.1847 23.86 91.258 23.9133 91.2847 23.98C91.3247 24.0333 91.358 24.1333 91.3847 24.28L91.6247 27.06C91.6247 27.1 91.5914 27.1267 91.5247 27.14C91.458 27.1533 91.418 27.1333 91.4047 27.08C90.9514 26.0267 90.3447 25.2133 89.5847 24.64C88.8247 24.0667 87.9447 23.78 86.9447 23.78C85.6247 23.78 84.6047 24.2667 83.8847 25.24C83.1647 26.2133 82.8047 27.52 82.8047 29.16C82.8047 30.3867 82.998 31.5067 83.3847 32.52C83.7847 33.5333 84.338 34.34 85.0447 34.94C85.7647 35.5267 86.578 35.82 87.4847 35.82C88.338 35.82 89.098 35.54 89.7647 34.98C90.4447 34.4067 91.0514 33.54 91.5847 32.38C91.598 32.3267 91.638 32.3067 91.7047 32.32C91.7847 32.3333 91.8247 32.36 91.8247 32.4L91.5247 35.12C91.498 35.28 91.4647 35.3867 91.4247 35.44C91.398 35.48 91.3247 35.5267 91.2047 35.58C90.018 36.02 88.798 36.24 87.5447 36.24C85.918 36.24 84.558 35.92 83.4647 35.28C82.3714 34.6267 81.5647 33.8067 81.0447 32.82C80.538 31.82 80.2847 30.78 80.2847 29.7C80.2847 28.4333 80.6247 27.3133 81.3047 26.34C81.998 25.3667 82.9114 24.6133 84.0447 24.08C85.1914 23.5467 86.418 23.28 87.7247 23.28ZM99.1836 28.94C100.597 28.94 101.677 29.22 102.424 29.78C103.17 30.3267 103.544 31.14 103.544 32.22C103.544 32.9933 103.35 33.6733 102.964 34.26C102.577 34.8333 102.037 35.28 101.344 35.6C100.664 35.92 99.8903 36.08 99.0236 36.08C98.6769 36.08 98.2703 36.06 97.8036 36.02C97.6303 36.02 97.3503 36.0133 96.9636 36C96.5769 35.9733 96.2369 35.96 95.9436 35.96L94.6636 35.98C94.3836 35.9933 93.9969 36 93.5036 36C93.4636 36 93.4436 35.96 93.4436 35.88C93.4436 35.8 93.4636 35.76 93.5036 35.76C93.9569 35.7333 94.2703 35.7 94.4436 35.66C94.6303 35.6067 94.7569 35.4933 94.8236 35.32C94.9036 35.1333 94.9436 34.82 94.9436 34.38V25.12C94.9436 24.68 94.9103 24.3733 94.8436 24.2C94.7769 24.0267 94.6503 23.9133 94.4636 23.86C94.2903 23.8067 93.9769 23.7667 93.5236 23.74C93.4969 23.74 93.4836 23.7 93.4836 23.62C93.4836 23.54 93.4969 23.5 93.5236 23.5L94.5236 23.52C95.0836 23.5467 95.5903 23.56 96.0436 23.56C96.4836 23.56 97.0369 23.5467 97.7036 23.52L98.8436 23.5C98.8703 23.5 98.8836 23.54 98.8836 23.62C98.8836 23.7 98.8703 23.74 98.8436 23.74C98.3236 23.7667 97.9636 23.8067 97.7636 23.86C97.5636 23.9133 97.4169 24.0333 97.3236 24.22C97.2303 24.4067 97.1836 24.72 97.1836 25.16V29.1C97.9303 28.9933 98.5969 28.94 99.1836 28.94ZM109.524 35.76C109.564 35.76 109.584 35.8 109.584 35.88C109.584 35.96 109.564 36 109.524 36C109.084 36 108.737 35.9933 108.484 35.98L106.964 35.96L105.484 35.98C105.217 35.9933 104.857 36 104.404 36C104.377 36 104.364 35.96 104.364 35.88C104.364 35.8 104.377 35.76 104.404 35.76C104.83 35.76 105.144 35.7267 105.344 35.66C105.544 35.5933 105.677 35.4667 105.744 35.28C105.824 35.08 105.864 34.78 105.864 34.38V25.12C105.864 24.72 105.824 24.4267 105.744 24.24C105.677 24.0533 105.544 23.9267 105.344 23.86C105.144 23.78 104.83 23.74 104.404 23.74C104.377 23.74 104.364 23.7 104.364 23.62C104.364 23.54 104.377 23.5 104.404 23.5L105.484 23.52C106.097 23.5467 106.59 23.56 106.964 23.56C107.377 23.56 107.89 23.5467 108.504 23.52L109.524 23.5C109.564 23.5 109.584 23.54 109.584 23.62C109.584 23.7 109.564 23.74 109.524 23.74C109.11 23.74 108.804 23.78 108.604 23.86C108.404 23.94 108.27 24.08 108.204 24.28C108.137 24.4667 108.104 24.76 108.104 25.16V34.38C108.104 34.7933 108.137 35.0933 108.204 35.28C108.27 35.4667 108.397 35.5933 108.584 35.66C108.784 35.7267 109.097 35.76 109.524 35.76ZM98.6636 35.58C99.5836 35.58 100.237 35.34 100.624 34.86C101.01 34.3667 101.204 33.6 101.204 32.56C101.204 31.4933 100.997 30.72 100.584 30.24C100.184 29.7467 99.4903 29.5 98.5036 29.5C98.1569 29.5 97.7169 29.5333 97.1836 29.6V34.38C97.1836 34.78 97.2769 35.08 97.4636 35.28C97.6636 35.48 98.0636 35.58 98.6636 35.58ZM114.699 34.3C114.699 34.7267 114.746 35.04 114.839 35.24C114.932 35.4267 115.106 35.56 115.359 35.64C115.626 35.72 116.046 35.76 116.619 35.76C116.659 35.76 116.679 35.8 116.679 35.88C116.679 35.96 116.659 36 116.619 36C116.072 36 115.646 35.9933 115.339 35.98L113.599 35.96L112.139 35.98C111.872 35.9933 111.512 36 111.059 36C111.019 36 110.999 35.96 110.999 35.88C110.999 35.8 111.019 35.76 111.059 35.76C111.486 35.76 111.792 35.7267 111.979 35.66C112.179 35.5933 112.312 35.4667 112.379 35.28C112.446 35.08 112.479 34.78 112.479 34.38V25.12C112.479 24.72 112.446 24.4267 112.379 24.24C112.312 24.0533 112.179 23.9267 111.979 23.86C111.779 23.78 111.472 23.74 111.059 23.74C111.019 23.74 110.999 23.7 110.999 23.62C110.999 23.54 111.019 23.5 111.059 23.5L112.119 23.52C112.732 23.5467 113.219 23.56 113.579 23.56C113.899 23.56 114.279 23.54 114.719 23.5C114.892 23.4867 115.112 23.4733 115.379 23.46C115.646 23.4467 115.952 23.44 116.299 23.44C117.659 23.44 118.732 23.7267 119.519 24.3C120.306 24.86 120.699 25.7333 120.699 26.92C120.699 27.7467 120.486 28.4467 120.059 29.02C119.632 29.5933 119.079 30.0267 118.399 30.32C117.732 30.6133 117.046 30.76 116.339 30.76C115.979 30.76 115.666 30.7267 115.399 30.66C115.372 30.66 115.359 30.6267 115.359 30.56C115.359 30.52 115.366 30.48 115.379 30.44C115.406 30.4 115.432 30.3867 115.459 30.4C115.659 30.4533 115.886 30.48 116.139 30.48C116.752 30.48 117.259 30.1933 117.659 29.62C118.072 29.0467 118.279 28.2333 118.279 27.18C118.279 26.1267 118.052 25.3133 117.599 24.74C117.159 24.1667 116.512 23.88 115.659 23.88C115.286 23.88 115.032 23.9667 114.899 24.14C114.766 24.3133 114.699 24.6533 114.699 25.16V34.3ZM136.074 35.76C136.114 35.76 136.134 35.8 136.134 35.88C136.134 35.96 136.114 36 136.074 36C135.607 36 135.234 35.9933 134.954 35.98L133.414 35.96L131.614 35.98C131.374 35.9933 131.047 36 130.634 36C130.594 36 130.574 35.96 130.574 35.88C130.574 35.8 130.594 35.76 130.634 35.76C131.127 35.76 131.487 35.7267 131.714 35.66C131.94 35.5933 132.094 35.4667 132.174 35.28C132.254 35.0933 132.294 34.7933 132.294 34.38V29.78H125.834V34.38C125.834 34.78 125.874 35.08 125.954 35.28C126.034 35.4667 126.187 35.5933 126.414 35.66C126.64 35.7267 127 35.76 127.494 35.76C127.52 35.76 127.534 35.8 127.534 35.88C127.534 35.96 127.52 36 127.494 36C127.027 36 126.654 35.9933 126.374 35.98L124.634 35.96L123.134 35.98C122.867 35.9933 122.5 36 122.034 36C122.007 36 121.994 35.96 121.994 35.88C121.994 35.8 122.007 35.76 122.034 35.76C122.5 35.76 122.84 35.7267 123.054 35.66C123.267 35.5933 123.414 35.4667 123.494 35.28C123.574 35.08 123.614 34.78 123.614 34.38V25.12C123.614 24.72 123.574 24.4267 123.494 24.24C123.414 24.0533 123.267 23.9267 123.054 23.86C122.854 23.78 122.527 23.74 122.074 23.74C122.034 23.74 122.014 23.7 122.014 23.62C122.014 23.54 122.034 23.5 122.074 23.5L123.154 23.52C123.767 23.5467 124.26 23.56 124.634 23.56C125.14 23.56 125.727 23.5467 126.394 23.52L127.494 23.5C127.52 23.5 127.534 23.54 127.534 23.62C127.534 23.7 127.52 23.74 127.494 23.74C127.014 23.74 126.66 23.78 126.434 23.86C126.207 23.94 126.047 24.08 125.954 24.28C125.874 24.4667 125.834 24.76 125.834 25.16V29.22H132.294V25.16C132.294 24.76 132.254 24.4667 132.174 24.28C132.094 24.08 131.94 23.94 131.714 23.86C131.487 23.78 131.127 23.74 130.634 23.74C130.594 23.74 130.574 23.7 130.574 23.62C130.574 23.54 130.594 23.5 130.634 23.5L131.614 23.52C132.28 23.5467 132.88 23.56 133.414 23.56C133.774 23.56 134.287 23.5467 134.954 23.52L136.074 23.5C136.114 23.5 136.134 23.54 136.134 23.62C136.134 23.7 136.114 23.74 136.074 23.74C135.62 23.74 135.28 23.78 135.054 23.86C134.84 23.9267 134.694 24.0533 134.614 24.24C134.547 24.4267 134.514 24.72 134.514 25.12V34.38C134.514 34.78 134.547 35.08 134.614 35.28C134.694 35.4667 134.84 35.5933 135.054 35.66C135.267 35.7267 135.607 35.76 136.074 35.76ZM143.207 28.94C144.62 28.94 145.7 29.22 146.447 29.78C147.194 30.3267 147.567 31.14 147.567 32.22C147.567 32.9933 147.374 33.6733 146.987 34.26C146.6 34.8333 146.06 35.28 145.367 35.6C144.687 35.92 143.914 36.08 143.047 36.08C142.7 36.08 142.294 36.06 141.827 36.02C141.654 36.02 141.374 36.0133 140.987 36C140.6 35.9733 140.26 35.96 139.967 35.96L138.687 35.98C138.407 35.9933 138.02 36 137.527 36C137.487 36 137.467 35.96 137.467 35.88C137.467 35.8 137.487 35.76 137.527 35.76C137.98 35.7333 138.294 35.7 138.467 35.66C138.654 35.6067 138.78 35.4933 138.847 35.32C138.927 35.1333 138.967 34.82 138.967 34.38V25.12C138.967 24.68 138.934 24.3733 138.867 24.2C138.8 24.0267 138.674 23.9133 138.487 23.86C138.314 23.8067 138 23.7667 137.547 23.74C137.52 23.74 137.507 23.7 137.507 23.62C137.507 23.54 137.52 23.5 137.547 23.5L138.547 23.52C139.107 23.5467 139.614 23.56 140.067 23.56C140.507 23.56 141.06 23.5467 141.727 23.52L142.867 23.5C142.894 23.5 142.907 23.54 142.907 23.62C142.907 23.7 142.894 23.74 142.867 23.74C142.347 23.7667 141.987 23.8067 141.787 23.86C141.587 23.9133 141.44 24.0333 141.347 24.22C141.254 24.4067 141.207 24.72 141.207 25.16V29.1C141.954 28.9933 142.62 28.94 143.207 28.94ZM153.547 35.76C153.587 35.76 153.607 35.8 153.607 35.88C153.607 35.96 153.587 36 153.547 36C153.107 36 152.76 35.9933 152.507 35.98L150.987 35.96L149.507 35.98C149.24 35.9933 148.88 36 148.427 36C148.4 36 148.387 35.96 148.387 35.88C148.387 35.8 148.4 35.76 148.427 35.76C148.854 35.76 149.167 35.7267 149.367 35.66C149.567 35.5933 149.7 35.4667 149.767 35.28C149.847 35.08 149.887 34.78 149.887 34.38V25.12C149.887 24.72 149.847 24.4267 149.767 24.24C149.7 24.0533 149.567 23.9267 149.367 23.86C149.167 23.78 148.854 23.74 148.427 23.74C148.4 23.74 148.387 23.7 148.387 23.62C148.387 23.54 148.4 23.5 148.427 23.5L149.507 23.52C150.12 23.5467 150.614 23.56 150.987 23.56C151.4 23.56 151.914 23.5467 152.527 23.52L153.547 23.5C153.587 23.5 153.607 23.54 153.607 23.62C153.607 23.7 153.587 23.74 153.547 23.74C153.134 23.74 152.827 23.78 152.627 23.86C152.427 23.94 152.294 24.08 152.227 24.28C152.16 24.4667 152.127 24.76 152.127 25.16V34.38C152.127 34.7933 152.16 35.0933 152.227 35.28C152.294 35.4667 152.42 35.5933 152.607 35.66C152.807 35.7267 153.12 35.76 153.547 35.76ZM142.687 35.58C143.607 35.58 144.26 35.34 144.647 34.86C145.034 34.3667 145.227 33.6 145.227 32.56C145.227 31.4933 145.02 30.72 144.607 30.24C144.207 29.7467 143.514 29.5 142.527 29.5C142.18 29.5 141.74 29.5333 141.207 29.6V34.38C141.207 34.78 141.3 35.08 141.487 35.28C141.687 35.48 142.087 35.58 142.687 35.58ZM162.422 22.64C161.916 22.64 161.436 22.5533 160.982 22.38C160.529 22.2067 160.162 21.98 159.882 21.7C159.602 21.4067 159.462 21.1 159.462 20.78C159.462 20.54 159.536 20.3467 159.682 20.2C159.842 20.0533 160.062 19.98 160.342 19.98C160.649 19.98 160.862 20.0733 160.982 20.26C161.102 20.4333 161.216 20.7133 161.322 21.1C161.442 21.5133 161.569 21.82 161.702 22.02C161.849 22.2067 162.082 22.3 162.402 22.3C162.736 22.3 162.976 22.2 163.122 22C163.282 21.7867 163.429 21.48 163.562 21.08C163.682 20.7067 163.802 20.4333 163.922 20.26C164.056 20.0733 164.262 19.98 164.542 19.98C164.822 19.98 165.036 20.0533 165.182 20.2C165.329 20.3467 165.402 20.54 165.402 20.78C165.402 21.1133 165.262 21.4267 164.982 21.72C164.702 22 164.336 22.2267 163.882 22.4C163.429 22.56 162.942 22.64 162.422 22.64ZM169.062 35.76C169.102 35.76 169.122 35.8 169.122 35.88C169.122 35.96 169.102 36 169.062 36C168.596 36 168.222 35.9933 167.942 35.98L166.402 35.96L164.602 35.98C164.362 35.9933 164.036 36 163.622 36C163.582 36 163.562 35.96 163.562 35.88C163.562 35.8 163.582 35.76 163.622 35.76C164.116 35.76 164.476 35.7267 164.702 35.66C164.929 35.5933 165.082 35.4667 165.162 35.28C165.242 35.0933 165.282 34.7933 165.282 34.38V26.2L157.282 36.22C157.242 36.26 157.142 36.28 156.982 36.28C156.729 36.28 156.602 36.2333 156.602 36.14V25.12C156.602 24.72 156.562 24.4267 156.482 24.24C156.402 24.0533 156.256 23.9267 156.042 23.86C155.829 23.78 155.496 23.74 155.042 23.74C155.002 23.74 154.982 23.7 154.982 23.62C154.982 23.54 155.002 23.5 155.042 23.5L156.162 23.52C156.829 23.5467 157.342 23.56 157.702 23.56C158.236 23.56 158.836 23.5467 159.502 23.52L160.482 23.5C160.522 23.5 160.542 23.54 160.542 23.62C160.542 23.7 160.522 23.74 160.482 23.74C159.989 23.74 159.629 23.78 159.402 23.86C159.176 23.9267 159.022 24.0533 158.942 24.24C158.862 24.4267 158.822 24.72 158.822 25.12V33.38L166.822 23.36C166.862 23.32 166.962 23.3 167.122 23.3C167.216 23.3 167.302 23.3133 167.382 23.34C167.462 23.3667 167.502 23.4 167.502 23.44V34.38C167.502 34.78 167.542 35.08 167.622 35.28C167.702 35.4667 167.849 35.5933 168.062 35.66C168.276 35.7267 168.609 35.76 169.062 35.76ZM95.9658 50.252C95.0418 50.252 94.2578 50.056 93.6138 49.664C92.9838 49.258 92.5078 48.74 92.1858 48.11C91.8778 47.466 91.7238 46.794 91.7238 46.094C91.7238 45.212 91.9688 44.442 92.4588 43.784C92.9488 43.112 93.5718 42.601 94.3278 42.251C95.0978 41.887 95.8818 41.705 96.6798 41.705C97.3518 41.705 97.9538 41.845 98.4858 42.125C99.0318 42.405 99.3048 42.79 99.3048 43.28C99.3048 43.546 99.1998 43.777 98.9898 43.973C98.7938 44.155 98.5138 44.246 98.1498 44.246C97.8138 44.246 97.5478 44.162 97.3518 43.994C97.1558 43.812 96.9948 43.539 96.8688 43.175C96.7428 42.783 96.6168 42.517 96.4908 42.377C96.3788 42.223 96.1688 42.146 95.8608 42.146C95.2588 42.146 94.7758 42.447 94.4118 43.049C94.0618 43.637 93.8868 44.421 93.8868 45.401C93.8868 46.563 94.1458 47.494 94.6638 48.194C95.1818 48.88 96.0078 49.223 97.1418 49.223C97.5198 49.223 97.8418 49.181 98.1078 49.097C98.3878 49.013 98.7378 48.873 99.1578 48.677H99.1788C99.2208 48.677 99.2558 48.698 99.2838 48.74C99.3258 48.782 99.3328 48.817 99.3048 48.845C98.7868 49.321 98.2688 49.678 97.7508 49.916C97.2328 50.14 96.6378 50.252 95.9658 50.252ZM104.827 50.273C103.959 50.273 103.196 50.077 102.538 49.685C101.894 49.279 101.397 48.74 101.047 48.068C100.697 47.382 100.522 46.64 100.522 45.842C100.522 44.932 100.753 44.162 101.215 43.532C101.677 42.888 102.265 42.412 102.979 42.104C103.693 41.782 104.428 41.621 105.184 41.621C106.052 41.621 106.808 41.824 107.452 42.23C108.096 42.636 108.586 43.175 108.922 43.847C109.272 44.505 109.447 45.212 109.447 45.968C109.447 46.808 109.237 47.557 108.817 48.215C108.397 48.859 107.83 49.363 107.116 49.727C106.416 50.091 105.653 50.273 104.827 50.273ZM105.457 49.832C106.003 49.832 106.416 49.566 106.696 49.034C106.99 48.488 107.137 47.711 107.137 46.703C107.137 45.723 107.011 44.883 106.759 44.183C106.507 43.483 106.178 42.958 105.772 42.608C105.366 42.244 104.932 42.062 104.47 42.062C103.35 42.062 102.79 43.063 102.79 45.065C102.79 46.003 102.909 46.836 103.147 47.564C103.385 48.278 103.707 48.838 104.113 49.244C104.519 49.636 104.967 49.832 105.457 49.832ZM121.758 49.748C121.8 49.748 121.821 49.79 121.821 49.874C121.821 49.958 121.8 50 121.758 50C121.352 50 121.037 49.993 120.813 49.979L119.658 49.958L118.545 49.979C118.363 49.993 118.104 50 117.768 50C117.726 50 117.705 49.958 117.705 49.874C117.705 49.79 117.726 49.748 117.768 49.748C118.104 49.748 118.342 49.699 118.482 49.601C118.622 49.489 118.692 49.258 118.692 48.908C118.692 48.838 118.678 48.663 118.65 48.383L118.23 44.918L115.794 50C115.78 50.056 115.731 50.084 115.647 50.084C115.549 50.084 115.493 50.056 115.479 50L112.434 44.834L112.203 47.816C112.119 49.104 112.595 49.748 113.631 49.748C113.673 49.748 113.694 49.79 113.694 49.874C113.694 49.958 113.673 50 113.631 50C113.309 50 113.057 49.993 112.875 49.979L111.972 49.958L111.09 49.979C110.922 49.993 110.684 50 110.376 50C110.334 50 110.313 49.958 110.313 49.874C110.313 49.79 110.334 49.748 110.376 49.748C110.81 49.748 111.139 49.587 111.363 49.265C111.587 48.943 111.72 48.46 111.762 47.816L112.203 41.831C112.203 41.789 112.245 41.754 112.329 41.726C112.413 41.684 112.504 41.663 112.602 41.663C112.742 41.663 112.833 41.698 112.875 41.768L116.403 47.711L119.259 41.768C119.287 41.726 119.35 41.705 119.448 41.705C119.532 41.705 119.616 41.726 119.7 41.768C119.798 41.796 119.847 41.824 119.847 41.852L120.603 48.299C120.659 48.761 120.715 49.083 120.771 49.265C120.827 49.447 120.925 49.573 121.065 49.643C121.205 49.713 121.436 49.748 121.758 49.748ZM130.187 48.614C130.215 48.614 130.243 48.642 130.271 48.698C130.313 48.754 130.32 48.796 130.292 48.824C129.774 49.328 129.249 49.692 128.717 49.916C128.185 50.14 127.604 50.252 126.974 50.252C126.092 50.252 125.329 50.07 124.685 49.706C124.041 49.328 123.551 48.831 123.215 48.215C122.879 47.585 122.711 46.906 122.711 46.178C122.711 45.366 122.914 44.617 123.32 43.931C123.726 43.245 124.286 42.706 125 42.314C125.728 41.908 126.547 41.705 127.457 41.705C128.325 41.705 128.997 41.901 129.473 42.293C129.949 42.685 130.187 43.294 130.187 44.12C130.187 44.554 130.11 44.771 129.956 44.771L124.853 44.792C124.839 44.89 124.832 45.051 124.832 45.275C124.832 46.507 125.112 47.473 125.672 48.173C126.246 48.873 127.065 49.223 128.129 49.223C128.507 49.223 128.829 49.181 129.095 49.097C129.361 49.013 129.711 48.859 130.145 48.635L130.187 48.614ZM126.659 42.125C126.197 42.125 125.812 42.328 125.504 42.734C125.196 43.126 124.993 43.672 124.895 44.372L127.94 44.33C127.926 43.616 127.821 43.07 127.625 42.692C127.429 42.314 127.107 42.125 126.659 42.125ZM140.056 49.748C140.126 49.748 140.161 49.79 140.161 49.874C140.161 49.958 140.126 50 140.056 50C139.804 50 139.412 49.986 138.88 49.958C138.32 49.93 137.914 49.916 137.662 49.916C137.438 49.916 137.074 49.93 136.57 49.958C136.094 49.986 135.758 50 135.562 50C135.506 50 135.478 49.958 135.478 49.874C135.478 49.79 135.506 49.748 135.562 49.748C135.87 49.748 136.094 49.713 136.234 49.643C136.374 49.559 136.444 49.44 136.444 49.286C136.444 49.174 136.402 49.027 136.318 48.845C136.248 48.649 136.164 48.446 136.066 48.236L134.302 44.477L133.042 47.417C132.79 48.005 132.664 48.481 132.664 48.845C132.664 49.447 133 49.748 133.672 49.748C133.742 49.748 133.777 49.79 133.777 49.874C133.777 49.958 133.742 50 133.672 50C133.518 50 133.301 49.986 133.021 49.958C132.741 49.93 132.475 49.916 132.223 49.916C131.929 49.916 131.642 49.93 131.362 49.958C131.11 49.986 130.886 50 130.69 50C130.62 50 130.585 49.958 130.585 49.874C130.585 49.79 130.62 49.748 130.69 49.748C130.942 49.748 131.208 49.573 131.488 49.223C131.782 48.859 132.139 48.194 132.559 47.228L134.995 41.579C135.023 41.523 135.065 41.495 135.121 41.495C135.177 41.495 135.219 41.523 135.247 41.579L137.851 47.123C138.215 47.921 138.495 48.495 138.691 48.845C138.887 49.181 139.083 49.419 139.279 49.559C139.475 49.685 139.734 49.748 140.056 49.748ZM145.526 45.191C147.682 45.191 148.76 45.919 148.76 47.375C148.76 48.173 148.452 48.817 147.836 49.307C147.234 49.797 146.443 50.042 145.463 50.042L144.329 50C143.657 49.972 143.174 49.958 142.88 49.958L141.662 49.979C141.438 49.993 141.123 50 140.717 50C140.675 50 140.654 49.958 140.654 49.874C140.654 49.79 140.675 49.748 140.717 49.748C141.053 49.748 141.298 49.713 141.452 49.643C141.62 49.573 141.732 49.44 141.788 49.244C141.844 49.034 141.872 48.719 141.872 48.299V43.595C141.872 43.175 141.844 42.867 141.788 42.671C141.732 42.461 141.62 42.321 141.452 42.251C141.298 42.181 141.06 42.146 140.738 42.146C140.696 42.146 140.675 42.104 140.675 42.02C140.675 41.936 140.696 41.894 140.738 41.894C141.13 41.894 141.431 41.901 141.641 41.915L142.88 41.936L144.182 41.915C144.434 41.901 144.777 41.894 145.211 41.894C145.239 41.894 145.253 41.936 145.253 42.02C145.253 42.104 145.239 42.146 145.211 42.146C144.805 42.146 144.504 42.188 144.308 42.272C144.126 42.356 144 42.503 143.93 42.713C143.86 42.909 143.825 43.217 143.825 43.637V45.38C144.343 45.254 144.91 45.191 145.526 45.191ZM145.022 49.727C145.582 49.727 145.995 49.58 146.261 49.286C146.527 48.978 146.66 48.495 146.66 47.837C146.66 46.381 146.03 45.653 144.77 45.653C144.476 45.653 144.161 45.695 143.825 45.779V48.299C143.825 48.803 143.909 49.167 144.077 49.391C144.245 49.615 144.56 49.727 145.022 49.727ZM157.319 48.614C157.347 48.614 157.375 48.642 157.403 48.698C157.445 48.754 157.452 48.796 157.424 48.824C156.906 49.328 156.381 49.692 155.849 49.916C155.317 50.14 154.736 50.252 154.106 50.252C153.224 50.252 152.461 50.07 151.817 49.706C151.173 49.328 150.683 48.831 150.347 48.215C150.011 47.585 149.843 46.906 149.843 46.178C149.843 45.366 150.046 44.617 150.452 43.931C150.858 43.245 151.418 42.706 152.132 42.314C152.86 41.908 153.679 41.705 154.589 41.705C155.457 41.705 156.129 41.901 156.605 42.293C157.081 42.685 157.319 43.294 157.319 44.12C157.319 44.554 157.242 44.771 157.088 44.771L151.985 44.792C151.971 44.89 151.964 45.051 151.964 45.275C151.964 46.507 152.244 47.473 152.804 48.173C153.378 48.873 154.197 49.223 155.261 49.223C155.639 49.223 155.961 49.181 156.227 49.097C156.493 49.013 156.843 48.859 157.277 48.635L157.319 48.614ZM153.791 42.125C153.329 42.125 152.944 42.328 152.636 42.734C152.328 43.126 152.125 43.672 152.027 44.372L155.072 44.33C155.058 43.616 154.953 43.07 154.757 42.692C154.561 42.314 154.239 42.125 153.791 42.125Z" fill="white"/>
<defs>
<clipPath id="clip0_208:14">
<rect width="62" height="51" fill="white" transform="translate(5 8)"/>
</clipPath>
</defs>
</svg>
