<svg width="154" height="52" viewBox="0 0 154 52" fill="none" xmlns="http://www.w3.org/2000/svg">
<rect x="30.4761" y="0.506393" width="9.49855" height="11.1969" fill="white" fill-opacity="0.3"/>
<path d="M51.3487 29.1022H48.042C47.462 35.1335 46.0114 38.1428 39.9746 42.3711C41.2283 42.9632 51.9969 37.9297 51.3487 29.1022Z" fill="#FFC901"/>
<path d="M38.4833 27.1098L34.2996 26.2428L42.8547 19.9561L47.3345 19.7239L38.4833 27.1098Z" fill="#FFC901"/>
<path d="M47.0729 18.253C45.0105 15.8932 43.1428 15.0309 39.2446 14.1342C41.7487 15.7419 42.9657 16.8793 44.3291 18.4852L47.0729 18.253Z" fill="#FFC901"/>
<path d="M41.3629 34.6219C36.5137 44.3094 23.3449 44.4756 18.7571 35.2867C21.5249 35.8059 23.243 34.7038 26.34 32.4849C28.0555 31.2561 30.1731 31.1954 31.7834 32.4849C35.8524 35.7431 37.9348 36.1641 41.3629 34.6219Z" fill="#FFE801"/>
<path d="M4.04921 20.4904C3.28012 19.6359 2.66615 18.3502 2.91067 18.106C3.05184 17.965 11.0726 17.9686 11.2138 18.1096C11.388 18.2836 11.0274 19.3326 10.5519 20.0349C9.80935 21.1318 8.80663 21.6949 7.44115 21.7819C5.81796 21.8851 5.03665 21.5876 4.04921 20.4904Z" fill="#E31600"/>
<path d="M20.1253 26.4021C19.1094 25.8989 18.4818 25.6575 17.6262 24.9454C18.407 21.7376 19.2414 20.1754 21.7305 17.6073C22.9422 17.8376 23.4318 18.179 24.2235 18.8175C20.5948 19.299 18.6543 23.4368 20.1253 26.4021Z" fill="#FFE801"/>
<path d="M27.7117 26.8824C30.3999 21.9698 29.8507 19.3266 25.5701 15.2477C32.3178 13.7619 35.7285 14.9609 40.3853 20.0178L32.5333 26.3016C31.1974 26.6242 30.4379 27.0381 29.0894 27.9985L27.7117 26.8824Z" fill="#FFE801"/>
<path fill-rule="evenodd" clip-rule="evenodd" d="M31.3853 0.0892903C28.5802 0.296135 25.7188 0.899687 25.2305 1.38722L24.8437 1.77382L25.4924 6.56139C26.0031 10.3287 26.0902 11.3805 25.9012 11.497C25.7692 11.5785 24.6018 11.6989 23.3072 11.7644C19.3636 11.9642 17.2966 12.3861 18.0338 12.8412C18.4021 13.0684 20.9299 13.4069 23.4891 13.5714L25.5904 13.7065L24.0952 14.5175C22.7846 15.2285 22.4512 15.3284 21.3933 15.3284C20.7214 15.3284 19.6316 15.4996 18.9351 15.7145C16.7441 16.3903 14.8395 18.5731 14.4936 20.8043C14.3765 21.5603 14.3308 21.6082 13.676 21.663C13.1291 21.7086 12.9823 21.8015 12.9823 22.1024C12.9823 22.395 13.13 22.4982 13.6141 22.5448C13.9616 22.578 14.2781 22.7068 14.3175 22.831C14.3568 22.955 14.5203 23.5305 14.681 24.1098C15.2841 26.2838 16.8694 27.8706 19.1775 28.6104C20.0049 28.8755 20.1401 28.972 19.8461 29.0871C18.7129 29.5304 17.2004 29.1878 15.7681 28.1637L15.3064 27.8334L15.4195 28.7864C15.6858 31.033 16.9869 33.1677 18.5116 33.8594C19.5306 34.3218 21.1555 34.3162 22.1901 33.847C22.6314 33.647 23.5195 33.1257 24.1636 32.6887C26.2078 31.3021 27.2921 30.9031 29.029 30.8987C30.7803 30.8941 31.7026 31.2271 33.3604 32.4626C34.6565 33.4285 35.3527 33.7764 36.507 34.0348C39.2523 34.6492 41.5917 33.0248 42.6842 29.7452C42.911 29.065 43.0689 28.2734 43.0353 27.9867L42.9742 27.465L42.288 28.0685C40.9025 29.2874 40.0312 29.3403 37.1823 28.378C33.7062 27.2039 31.2845 27.2778 29.7318 28.6053L28.9858 29.243L28.5298 28.749C27.9764 28.1492 27.0466 27.7315 26.2651 27.7315C25.5562 27.7315 25.5373 27.5552 26.1817 26.9538C26.9857 26.2037 27.5888 25.0034 27.8922 23.55C28.5061 20.6085 27.3466 17.7312 24.9912 16.3526C24.5327 16.0841 24.2007 15.7948 24.2536 15.7095C24.4867 15.3328 27.3483 14.3475 29.0372 14.0626C31.8925 13.5806 34.5664 14.0586 37.3724 15.5525C38.505 16.1556 41.612 18.8616 41.5008 19.1484C41.4706 19.2261 40.0705 20.3469 38.3895 21.6388C36.7084 22.9308 34.7064 24.5083 33.9406 25.1441L32.5483 26.3004L33.3948 26.3576C34.1923 26.4116 34.356 26.3275 36.2199 24.9059C38.8221 22.9212 42.1184 20.5853 42.8069 20.2382C43.2839 19.9976 47.2724 19.5936 47.2724 19.7857C47.2724 19.8247 45.2952 21.4682 42.8787 23.4382C40.4621 25.4081 38.485 27.0988 38.485 27.195C38.485 27.2911 38.907 27.344 39.4227 27.3121C40.32 27.257 40.5428 27.11 44.5733 23.9152C47.0229 21.9735 48.9223 20.3252 49.1118 19.9769C49.392 19.4619 49.4029 19.2946 49.1901 18.7811C48.7112 17.6261 45.725 15.2575 43.3968 14.1856C42.3449 13.7015 42.2752 13.6372 42.7832 13.6203C45.3762 13.534 48.9916 12.9663 48.9916 12.6454C48.9916 12.279 45.0488 11.7222 42.2246 11.6896C40.2749 11.6671 40.3636 12.0678 41.1288 6.74171C41.5071 4.10807 41.7438 1.84404 41.671 1.55686C41.5145 0.93995 41.0083 0.751614 38.485 0.371317C36.009 -0.00192002 33.807 -0.0895046 31.3853 0.0892903ZM38.7715 1.13973L40.1087 1.49427L38.676 1.58968L37.2433 1.68509L38.4391 2.04019C39.0967 2.23539 39.682 2.47163 39.7399 2.56493C39.7976 2.65824 39.2594 2.73915 38.544 2.74487L37.2433 2.75518L38.3671 3.11372C39.9567 3.62091 40.0245 3.81497 38.5799 3.72319C37.8974 3.67968 37.3388 3.69018 37.3388 3.74647C37.3388 3.80276 37.7902 3.9951 38.3417 4.1739C39.856 4.66449 39.925 4.8885 38.5327 4.79443C37.8762 4.75016 37.3388 4.73642 37.3388 4.7639C37.3388 4.79157 37.8116 4.96292 38.3895 5.14496C38.9673 5.32681 39.4403 5.5245 39.4405 5.58403C39.4407 5.64356 38.9033 5.67295 38.2466 5.64929L37.0523 5.60636L38.2939 6.06374L39.5356 6.52113L38.2939 6.55338L37.0523 6.58563L38.1029 6.86784C39.5899 7.26741 39.6854 7.49105 38.3161 7.36702C37.6735 7.30882 37.1478 7.30996 37.1478 7.3695C37.1478 7.42922 37.6206 7.61527 38.1984 7.783C38.7763 7.95073 39.2491 8.13963 39.2491 8.20279C39.2491 8.26576 38.8193 8.26042 38.2939 8.19077C37.1508 8.03946 36.9799 8.36499 38.1029 8.55447C39.1754 8.73536 39.0592 9.00518 37.9596 8.88725C36.8887 8.77238 36.9531 8.9361 38.123 9.30304L38.9626 9.56618L38.1029 9.59861L37.2433 9.63086L37.9931 9.90526C39.0862 10.3052 39.0907 10.4214 38.0074 10.2651C36.887 10.1037 36.9374 10.267 38.123 10.6388L38.9626 10.9019L37.9119 10.9355L36.8612 10.9691L37.6253 11.2206C38.3811 11.4694 38.3719 11.4722 36.7657 11.478C35.8726 11.4812 34.7551 11.415 34.2823 11.331L33.4227 11.1782L34.2823 11.141C34.9502 11.112 35.0568 11.0671 34.7599 10.9397C34.5498 10.8494 34.077 10.7614 33.7092 10.7439C33.0647 10.7134 33.0748 10.7034 33.9958 10.467C34.8277 10.2533 34.8728 10.2188 34.3457 10.1991C34.0128 10.1865 33.5829 10.1123 33.3906 10.0339C33.1262 9.92625 33.2274 9.86557 33.8047 9.78542L34.5689 9.67952L33.7092 9.48279L32.8496 9.28606L33.9002 9.08608C34.6355 8.94602 34.7788 8.87847 34.3778 8.86073C34.0626 8.8468 33.5898 8.77601 33.3272 8.7035C32.9199 8.59091 33.0043 8.53825 33.9002 8.34591C34.8214 8.14803 34.8686 8.11731 34.2823 8.09632C33.9146 8.08296 33.3988 8.0114 33.1361 7.93718C32.7413 7.82536 32.857 7.76602 33.8047 7.59409L34.9509 7.38629L33.7092 7.2281C32.7132 7.10121 32.5621 7.0411 32.9451 6.9249C33.2078 6.84494 33.7235 6.76995 34.0913 6.75774C35.0757 6.72549 34.4143 6.36676 33.3636 6.36294C32.2159 6.35894 32.5319 6.0355 33.8555 5.85957C34.826 5.73058 34.8856 5.6989 34.3778 5.5825C34.0626 5.51038 33.4609 5.43844 33.0406 5.42279C32.0799 5.38711 32.4612 5.13466 33.8047 4.91713L34.7599 4.76257L33.4227 4.54351L32.0855 4.32445L33.3069 4.05807C34.288 3.84417 34.4384 3.7665 34.071 3.66385C33.8194 3.59343 33.2269 3.52608 32.7541 3.51386C31.6768 3.48639 32.0452 3.17974 33.3713 2.9998C34.4563 2.85249 34.3897 2.5491 33.2681 2.5304C31.6923 2.50387 31.6027 2.23444 33.0815 1.96901C33.8395 1.83316 34.4147 1.64921 34.3597 1.56029C34.3047 1.47156 33.7491 1.39886 33.1249 1.39886C31.7672 1.39886 31.6211 1.09031 32.8973 0.918578C33.3965 0.851411 33.8907 0.761346 33.9958 0.718603C34.4372 0.538854 37.5354 0.812103 38.7715 1.13973ZM3.89999 13.63C1.42748 13.9494 1.15125 14.049 1.0181 14.669C0.800329 15.6836 0.850952 18.0751 1.11094 19.0494C1.79235 21.6035 3.20502 23.1456 5.51401 23.8559C6.4044 24.1297 6.56429 24.2524 6.66133 24.7363C6.85695 25.7136 6.80308 26.0663 6.4768 25.9411C6.19312 25.8323 4.00181 26.633 3.63942 26.9778C3.53665 27.0759 3.57294 27.2715 3.72902 27.4592C3.9445 27.7186 4.20583 27.7539 5.17817 27.6542C5.83054 27.5875 6.41261 27.6107 6.47145 27.706C6.53048 27.8012 6.88045 27.9357 7.24933 28.0048C7.80561 28.109 7.92003 28.2126 7.92003 28.6114C7.92003 28.8759 8.01841 29.2798 8.13895 29.5092C8.35539 29.9215 8.35348 29.9221 7.9527 29.5668C7.72996 29.3693 7.50244 29.0688 7.44723 28.8989C7.18839 28.1042 4.29046 27.7218 4.29046 28.4824C4.29046 29.0482 4.78293 29.3029 5.73121 29.2275L6.60785 29.1579L6.17268 29.5099C5.87983 29.7467 5.56329 29.8273 5.20492 29.7555C4.54013 29.6227 4.47671 30.0534 5.09718 30.4875C5.62232 30.855 5.95681 30.8596 6.63058 30.5085C6.91961 30.3579 7.15591 30.3106 7.15591 30.4035C7.15591 30.6539 6.3576 31.1662 5.96713 31.1662C5.78049 31.1662 5.62767 31.2416 5.62767 31.3338C5.62767 31.6664 6.19178 31.9581 6.71597 31.8969L7.25143 31.8341V34.9797V38.1255L5.83303 38.319C4.16476 38.5468 3.85968 38.9017 5.16442 39.0973C6.1488 39.2446 10.222 39.0561 11.0957 38.8227C12.0761 38.5609 11.6789 38.3232 10.1664 38.2661C8.81998 38.2154 8.67862 38.1726 8.58979 37.7891C8.40888 37.0077 8.11412 33.9415 8.11259 32.8238L8.11106 31.7144L8.73191 31.7744C9.40568 31.8392 9.36671 31.7822 10.6883 34.6448C11.0629 35.456 11.5364 36.2091 11.741 36.3185C12.0769 36.498 13.8278 36.145 17.0223 35.2535C17.3769 35.1547 17.5326 35.3296 18.1656 36.5396C19.5842 39.2502 22.895 42.03 25.8886 43.0245C26.5653 43.2491 27.1452 43.4544 27.1777 43.4807C27.2709 43.5557 26.6161 45.7452 26.4457 45.9282C26.3616 46.0186 25.361 45.79 24.2223 45.4202C21.5622 44.5562 21.2154 44.4846 20.4131 44.635C19.441 44.8172 18.7936 45.5872 18.0461 47.4499L17.3826 49.103L15.7555 49.1327C14.1352 49.1625 14.1379 49.1631 16.4209 49.3176C19.4089 49.5197 55.2743 49.5199 58.2566 49.3178C60.29 49.18 60.3853 49.1592 59.1004 49.1327C58.3036 49.1163 57.6079 49.0593 57.5544 49.0058C57.4597 48.9112 60.2821 39.6119 60.5245 39.22C60.5916 39.1116 60.9895 38.9651 61.4086 38.8943C61.8278 38.8235 62.2217 38.6834 62.2837 38.5831C62.4878 38.2533 61.9471 37.8448 61.3066 37.8448C60.8397 37.8448 60.5515 37.694 60.1839 37.2577C59.4544 36.3917 59.5577 35.9069 60.5215 35.671C60.9313 35.5708 61.132 35.6229 61.3274 35.8801C61.6499 36.3051 61.6828 36.6684 61.3704 36.3564C61.0944 36.0807 60.5203 36.0559 60.3612 36.3129C60.2982 36.4148 60.395 36.7247 60.5767 37.0016C60.8692 37.4475 61.0006 37.4943 61.7307 37.412C63.2649 37.2393 63.3847 36.7762 62.4452 34.6486L62.0027 33.6468H60.2067H58.4104L56.7099 32.5699C55.468 31.7835 54.6998 31.4357 53.8629 31.2803L52.7168 31.0678L52.7811 29.7965C52.8763 27.9193 52.8302 27.9004 48.3022 27.9657L44.6935 28.0178L44.5567 29.5242C44.1502 34.0065 42.5291 37.3117 39.5909 39.6501C35.1954 43.1482 29.9574 43.7693 25.0173 41.3785C22.5414 40.1802 20.2612 38.065 19.1065 35.8954C18.8715 35.4539 18.4679 35.0778 18.0063 34.8698C17.6052 34.6893 16.888 34.126 16.4125 33.6182L15.5481 32.695L14.3129 33.2543C13.4584 33.6413 13.0769 33.9203 13.0744 34.1596C13.071 34.5126 11.9475 32.7013 10.9609 30.752C10.6596 30.1566 10.2401 29.0463 10.0286 28.2841C9.63358 26.8597 9.44006 26.5967 8.77967 26.5866C8.06006 26.5756 7.95308 26.3599 8.08317 25.1813L8.20658 24.0621L9.25056 23.6738C10.6753 23.1439 12.1114 21.6933 12.7017 20.1884C13.0609 19.2728 13.1503 18.6752 13.1573 17.1412C13.1621 16.0917 13.0601 14.8798 12.9306 14.448C12.7076 13.705 12.6475 13.6563 11.809 13.5416C10.5924 13.3751 5.42709 13.4329 3.89999 13.63ZM40.6818 14.4734C41.3122 14.6383 42.4298 15.0729 43.1652 15.4393C44.4942 16.1013 46.8903 17.86 46.8903 18.1733C46.8903 18.2634 46.0091 18.3741 44.9323 18.4193L42.9742 18.5015L41.9235 17.4303C40.7273 16.2106 40.0176 15.6528 38.3895 14.6535L37.2433 13.95L38.3895 14.0618C39.0199 14.1233 40.0514 14.3085 40.6818 14.4734ZM12.1789 15.1376C12.2748 15.505 12.3174 16.5018 12.2736 17.3526C12.1386 19.9808 10.8222 21.9502 8.72332 22.6646C5.07253 23.9072 1.72568 20.9658 1.75434 16.5396C1.75911 15.7876 1.82101 15.0787 1.89188 14.9642C1.97555 14.8289 3.13835 14.7472 5.20912 14.731C6.96278 14.7173 9.04234 14.644 9.83034 14.5679C11.9347 14.3648 11.98 14.3759 12.1789 15.1376ZM23.8712 17.0908C25.664 18.014 26.638 19.5468 26.7918 21.6865L26.8854 22.9878L26.2378 22.5936C25.5658 22.1843 24.815 22.0899 24.3875 22.3608C24.1894 22.4862 24.1991 22.5671 24.4353 22.7629C25.0718 23.2905 24.5591 24.2968 23.6536 24.2968C23.2497 24.2968 23.1957 24.3627 23.3005 24.7262C23.4807 25.3505 24.2905 26.013 24.8848 26.0222L25.3994 26.03L24.6878 26.6584C23.8144 27.4297 22.7769 27.7571 21.2302 27.7498C18.4104 27.7365 16.3638 26.2718 15.6254 23.7387C14.8351 21.0274 16.3359 17.8852 18.9168 16.8475C20.2761 16.3008 22.5542 16.4127 23.8712 17.0908ZM18.8415 19.3175C17.6928 21.0327 16.8985 22.7898 16.8985 23.615C16.8985 23.8618 17.0617 24.265 17.2613 24.5111L17.6239 24.9586L17.8543 24.103C18.3783 22.1574 19.7138 19.7628 21.0718 18.3338L21.7519 17.6182H20.8657H19.9795L18.8415 19.3175ZM22.962 19.0358C21.7129 19.481 20.6637 20.433 20.0028 21.7208C19.0717 23.5353 19.4641 26.5866 20.6286 26.5866C21.186 26.5866 21.1774 26.6248 20.8147 25.7573C19.7525 23.2181 21.4775 20.1285 24.1577 19.7693C25.0108 19.655 25.0809 19.5386 24.5724 19.0789C24.1569 18.7034 23.9132 18.6967 22.962 19.0358ZM26.9204 28.8589C27.1913 28.9646 26.9853 29.0415 26.1771 29.1365C25.562 29.2086 24.0608 29.667 22.8413 30.1551C20.9203 30.9237 20.432 31.0443 19.1909 31.0567C17.9847 31.0685 17.66 31.001 17.1373 30.6285C16.3403 30.0606 16.3315 29.7252 17.1243 30.1347C17.9964 30.5852 19.9986 30.3927 22.2474 29.642C24.918 28.7507 26.1255 28.5484 26.9204 28.8589ZM36.5521 29.4225C38.4286 30.0494 40.0723 30.1963 41.0992 29.829L41.637 29.6366L41.1086 30.1087C40.431 30.714 39.2076 31.041 38.1908 30.8888C37.7512 30.8229 36.5416 30.464 35.5026 30.091C34.1979 29.6225 33.1411 29.3794 32.0855 29.3048C30.5658 29.1974 30.561 29.1955 31.2258 28.9444C32.3029 28.5375 34.4913 28.7341 36.5521 29.4225ZM51.1226 29.9259C51.0867 30.3457 51.0309 30.7165 50.9984 30.75C50.966 30.7834 50.4429 30.7191 49.8362 30.6071C48.4188 30.3453 47.8455 30.6438 47.8455 31.6433C47.8455 32.4233 48.2932 32.7807 49.517 32.9775C50.4494 33.1272 50.484 33.2538 49.9394 34.5231C48.1521 38.6876 44.3355 41.5338 39.3572 42.4147C37.4998 42.7432 37.3298 42.6618 38.5234 42.0147C42.7499 39.724 45.5512 35.3959 46.0446 30.3942L46.1766 29.0566L48.6822 29.1096L51.1877 29.1626L51.1226 29.9259ZM25.9725 30.4793C25.4472 30.719 24.5287 31.2282 23.9315 31.611C21.6594 33.0669 20.0083 33.4014 18.6102 32.6889C18.1941 32.4767 17.8537 32.2737 17.8537 32.2373C17.8537 32.201 18.434 32.2115 19.1431 32.2606C20.5172 32.356 20.6559 32.3159 24.5398 30.7023C26.3332 29.9574 27.5217 29.7721 25.9725 30.4793ZM35.0909 31.2095C37.0097 31.8701 37.6838 32.0157 38.8107 32.0129L40.1871 32.0094L39.6734 32.346C38.8613 32.8782 37.6729 32.9742 36.5263 32.6004C35.3118 32.2045 31.9515 30.4102 32.4165 30.406C32.5988 30.4043 33.8023 30.7659 35.0909 31.2095ZM53.5942 33.7132C54.1818 33.8514 55.1877 34.283 55.8294 34.6725C56.7551 35.2342 57.1215 35.6054 57.6024 36.4696C57.9357 37.0686 58.4316 37.7486 58.7046 37.981L59.2007 38.4033L57.9911 43.6101C57.3257 46.4737 56.7429 48.881 56.6959 48.9598C56.6487 49.0387 54.9889 49.103 53.0071 49.103H49.4041L49.3028 48.5782C48.7779 45.8581 48.7466 45.7669 48.129 45.15C47.2859 44.3079 46.5751 44.3276 43.0707 45.2897C41.5478 45.7078 40.2369 46.0499 40.1574 46.0499C40.0782 46.0499 40.0132 45.5074 40.0132 44.8445V43.6391L41.4838 43.2928C46.04 42.2198 50.0996 38.5445 51.8751 33.8854C52.065 33.3873 52.1652 33.3772 53.5942 33.7132ZM36.4024 44.4757C36.9657 45.9522 37.0293 46.7733 36.6717 47.9533L36.3231 49.103H33.2015H30.0796V48.4475C30.0796 48.0871 29.9906 47.5581 29.8817 47.2723C29.7146 46.833 29.787 46.5359 30.3499 45.3517L31.0159 43.9509H33.6089H36.2022L36.4024 44.4757ZM47.2246 45.284C47.715 45.2893 47.4424 45.6688 46.9381 45.6828C46.4315 45.6967 46.4366 45.7062 47.0813 45.9453L47.75 46.1934L47.1769 46.2724L46.6038 46.3514L47.2724 46.662L47.941 46.9729L47.2724 47.003L46.6038 47.033L47.2724 47.281L47.941 47.5291L47.3679 47.6119C46.8682 47.684 46.8437 47.7134 47.1769 47.8422C48.3072 48.2792 48.2508 48.3139 46.4127 48.3147C44.8688 48.3153 44.5939 48.2756 44.98 48.1073L45.4576 47.8991L44.8845 47.7749L44.3114 47.6508L44.789 47.481L45.2666 47.3112L44.6935 47.1872L44.1204 47.0629L44.598 46.8548L45.0755 46.6466L44.5502 46.6344C44.2614 46.6279 44.0249 46.5531 44.0249 46.4684C44.0249 46.3836 44.2614 46.2211 44.5502 46.107L45.0755 45.8997L44.4069 45.8673C43.7603 45.836 43.754 45.8285 44.2159 45.6412C44.9454 45.3454 46.1772 45.1206 46.6038 45.2053C46.8139 45.2471 47.0934 45.2826 47.2246 45.284ZM22.4291 45.4933C23.3684 45.6944 23.7311 46.0276 23.0593 46.072C22.7408 46.093 22.7408 46.0984 23.0593 46.1814C23.5802 46.3174 23.4522 46.621 22.8682 46.6344L22.3429 46.6466L22.8205 46.8611L23.2981 47.0757L22.7278 47.1522L22.1576 47.2288L22.6323 47.4913L23.107 47.7537L22.4384 47.7672L21.7698 47.7808L22.2474 48.0535C22.6833 48.3023 22.5498 48.325 20.7191 48.313C18.921 48.301 18.7859 48.2771 19.414 48.0811C20.3902 47.7768 20.5174 47.5791 19.7481 47.5617L19.0954 47.547L19.8595 47.2955L20.6236 47.044L19.955 47.004L19.2864 46.9639L20.0505 46.7124C20.7409 46.4851 20.7629 46.4594 20.2781 46.4462C19.6824 46.43 19.7499 46.0499 20.3484 46.0499C20.5524 46.0499 20.7191 45.964 20.7191 45.8591C20.7191 45.7541 20.5258 45.6669 20.2893 45.6654C19.9418 45.6629 19.9143 45.627 20.1461 45.4774C20.5224 45.2345 21.2443 45.2395 22.4291 45.4933ZM40.9617 48.5179C41.2417 49.0408 41.2154 49.103 40.7137 49.103C40.1233 49.103 39.9861 48.9377 40.2176 48.5055C40.4625 48.0485 40.7124 48.0527 40.9617 48.5179ZM26.259 48.7213C26.448 49.074 26.4042 49.103 25.6859 49.103C24.9677 49.103 24.9239 49.074 25.1129 48.7213C25.2254 48.5114 25.4833 48.3397 25.6859 48.3397C25.8886 48.3397 26.1465 48.5114 26.259 48.7213ZM20.4326 50.1139C23.7109 50.3662 50.0509 50.37 53.4809 50.1187C55.5354 49.9681 51.7268 49.9229 37.0523 49.9229C22.7752 49.9229 18.5766 49.9712 20.4326 50.1139ZM23.0115 50.8795C25.4565 51.118 43.728 51.1056 47.8455 50.8625C50.0442 50.7329 46.9709 50.6873 35.9061 50.6858C24.5615 50.6843 21.4844 50.7304 23.0115 50.8795Z" fill="black"/>
<path d="M79.9022 14.552C80.4302 14.552 80.9822 14.6 81.5582 14.696C82.1342 14.78 82.5842 14.894 82.9082 15.038C83.0162 15.074 83.0822 15.122 83.1062 15.182C83.1422 15.23 83.1722 15.32 83.1962 15.452L83.4122 17.954C83.4122 17.99 83.3822 18.014 83.3222 18.026C83.2622 18.038 83.2262 18.02 83.2142 17.972C82.8062 17.024 82.2602 16.292 81.5762 15.776C80.8922 15.26 80.1002 15.002 79.2002 15.002C78.0122 15.002 77.0942 15.44 76.4462 16.316C75.7982 17.192 75.4742 18.368 75.4742 19.844C75.4742 20.948 75.6482 21.956 75.9962 22.868C76.3562 23.78 76.8542 24.506 77.4902 25.046C78.1382 25.574 78.8702 25.838 79.6862 25.838C80.4542 25.838 81.1382 25.586 81.7382 25.082C82.3502 24.566 82.8962 23.786 83.3762 22.742C83.3882 22.694 83.4242 22.676 83.4842 22.688C83.5562 22.7 83.5922 22.724 83.5922 22.76L83.3222 25.208C83.2982 25.352 83.2682 25.448 83.2322 25.496C83.2082 25.532 83.1422 25.574 83.0342 25.622C81.9662 26.018 80.8682 26.216 79.7402 26.216C78.2762 26.216 77.0522 25.928 76.0682 25.352C75.0842 24.764 74.3582 24.026 73.8902 23.138C73.4342 22.238 73.2062 21.302 73.2062 20.33C73.2062 19.19 73.5122 18.182 74.1242 17.306C74.7482 16.43 75.5702 15.752 76.5902 15.272C77.6222 14.792 78.7262 14.552 79.9022 14.552ZM90.2152 19.646C91.4872 19.646 92.4592 19.898 93.1312 20.402C93.8032 20.894 94.1392 21.626 94.1392 22.598C94.1392 23.294 93.9652 23.906 93.6172 24.434C93.2692 24.95 92.7832 25.352 92.1592 25.64C91.5472 25.928 90.8512 26.072 90.0712 26.072C89.7592 26.072 89.3932 26.054 88.9732 26.018C88.8172 26.018 88.5652 26.012 88.2172 26C87.8692 25.976 87.5632 25.964 87.2992 25.964L86.1472 25.982C85.8952 25.994 85.5472 26 85.1032 26C85.0672 26 85.0492 25.964 85.0492 25.892C85.0492 25.82 85.0672 25.784 85.1032 25.784C85.5112 25.76 85.7932 25.73 85.9492 25.694C86.1172 25.646 86.2312 25.544 86.2912 25.388C86.3632 25.22 86.3992 24.938 86.3992 24.542V16.208C86.3992 15.812 86.3692 15.536 86.3092 15.38C86.2492 15.224 86.1352 15.122 85.9672 15.074C85.8112 15.026 85.5292 14.99 85.1212 14.966C85.0972 14.966 85.0852 14.93 85.0852 14.858C85.0852 14.786 85.0972 14.75 85.1212 14.75L86.0212 14.768C86.5252 14.792 86.9812 14.804 87.3892 14.804C87.7852 14.804 88.2832 14.792 88.8832 14.768L89.9092 14.75C89.9332 14.75 89.9452 14.786 89.9452 14.858C89.9452 14.93 89.9332 14.966 89.9092 14.966C89.4412 14.99 89.1172 15.026 88.9372 15.074C88.7572 15.122 88.6252 15.23 88.5412 15.398C88.4572 15.566 88.4152 15.848 88.4152 16.244V19.79C89.0872 19.694 89.6872 19.646 90.2152 19.646ZM99.5212 25.784C99.5572 25.784 99.5752 25.82 99.5752 25.892C99.5752 25.964 99.5572 26 99.5212 26C99.1252 26 98.8132 25.994 98.5852 25.982L97.2172 25.964L95.8852 25.982C95.6452 25.994 95.3212 26 94.9132 26C94.8892 26 94.8772 25.964 94.8772 25.892C94.8772 25.82 94.8892 25.784 94.9132 25.784C95.2972 25.784 95.5792 25.754 95.7592 25.694C95.9392 25.634 96.0592 25.52 96.1192 25.352C96.1912 25.172 96.2272 24.902 96.2272 24.542V16.208C96.2272 15.848 96.1912 15.584 96.1192 15.416C96.0592 15.248 95.9392 15.134 95.7592 15.074C95.5792 15.002 95.2972 14.966 94.9132 14.966C94.8892 14.966 94.8772 14.93 94.8772 14.858C94.8772 14.786 94.8892 14.75 94.9132 14.75L95.8852 14.768C96.4372 14.792 96.8812 14.804 97.2172 14.804C97.5892 14.804 98.0512 14.792 98.6032 14.768L99.5212 14.75C99.5572 14.75 99.5752 14.786 99.5752 14.858C99.5752 14.93 99.5572 14.966 99.5212 14.966C99.1492 14.966 98.8732 15.002 98.6932 15.074C98.5132 15.146 98.3932 15.272 98.3332 15.452C98.2732 15.62 98.2432 15.884 98.2432 16.244V24.542C98.2432 24.914 98.2732 25.184 98.3332 25.352C98.3932 25.52 98.5072 25.634 98.6752 25.694C98.8552 25.754 99.1372 25.784 99.5212 25.784ZM89.7472 25.622C90.5752 25.622 91.1632 25.406 91.5112 24.974C91.8592 24.53 92.0332 23.84 92.0332 22.904C92.0332 21.944 91.8472 21.248 91.4752 20.816C91.1152 20.372 90.4912 20.15 89.6032 20.15C89.2912 20.15 88.8952 20.18 88.4152 20.24V24.542C88.4152 24.902 88.4992 25.172 88.6672 25.352C88.8472 25.532 89.2072 25.622 89.7472 25.622ZM104.179 24.47C104.179 24.854 104.221 25.136 104.305 25.316C104.389 25.484 104.545 25.604 104.773 25.676C105.013 25.748 105.391 25.784 105.907 25.784C105.943 25.784 105.961 25.82 105.961 25.892C105.961 25.964 105.943 26 105.907 26C105.415 26 105.031 25.994 104.755 25.982L103.189 25.964L101.875 25.982C101.635 25.994 101.311 26 100.903 26C100.867 26 100.849 25.964 100.849 25.892C100.849 25.82 100.867 25.784 100.903 25.784C101.287 25.784 101.563 25.754 101.731 25.694C101.911 25.634 102.031 25.52 102.091 25.352C102.151 25.172 102.181 24.902 102.181 24.542V16.208C102.181 15.848 102.151 15.584 102.091 15.416C102.031 15.248 101.911 15.134 101.731 15.074C101.551 15.002 101.275 14.966 100.903 14.966C100.867 14.966 100.849 14.93 100.849 14.858C100.849 14.786 100.867 14.75 100.903 14.75L101.857 14.768C102.409 14.792 102.847 14.804 103.171 14.804C103.459 14.804 103.801 14.786 104.197 14.75C104.353 14.738 104.551 14.726 104.791 14.714C105.031 14.702 105.307 14.696 105.619 14.696C106.843 14.696 107.809 14.954 108.517 15.47C109.225 15.974 109.579 16.76 109.579 17.828C109.579 18.572 109.387 19.202 109.003 19.718C108.619 20.234 108.121 20.624 107.509 20.888C106.909 21.152 106.291 21.284 105.655 21.284C105.331 21.284 105.049 21.254 104.809 21.194C104.785 21.194 104.773 21.164 104.773 21.104C104.773 21.068 104.779 21.032 104.791 20.996C104.815 20.96 104.839 20.948 104.863 20.96C105.043 21.008 105.247 21.032 105.475 21.032C106.027 21.032 106.483 20.774 106.843 20.258C107.215 19.742 107.401 19.01 107.401 18.062C107.401 17.114 107.197 16.382 106.789 15.866C106.393 15.35 105.811 15.092 105.043 15.092C104.707 15.092 104.479 15.17 104.359 15.326C104.239 15.482 104.179 15.788 104.179 16.244V24.47ZM123.416 25.784C123.452 25.784 123.47 25.82 123.47 25.892C123.47 25.964 123.452 26 123.416 26C122.996 26 122.66 25.994 122.408 25.982L121.022 25.964L119.402 25.982C119.186 25.994 118.892 26 118.52 26C118.484 26 118.466 25.964 118.466 25.892C118.466 25.82 118.484 25.784 118.52 25.784C118.964 25.784 119.288 25.754 119.492 25.694C119.696 25.634 119.834 25.52 119.906 25.352C119.978 25.184 120.014 24.914 120.014 24.542V20.402H114.2V24.542C114.2 24.902 114.236 25.172 114.308 25.352C114.38 25.52 114.518 25.634 114.722 25.694C114.926 25.754 115.25 25.784 115.694 25.784C115.718 25.784 115.73 25.82 115.73 25.892C115.73 25.964 115.718 26 115.694 26C115.274 26 114.938 25.994 114.686 25.982L113.12 25.964L111.77 25.982C111.53 25.994 111.2 26 110.78 26C110.756 26 110.744 25.964 110.744 25.892C110.744 25.82 110.756 25.784 110.78 25.784C111.2 25.784 111.506 25.754 111.698 25.694C111.89 25.634 112.022 25.52 112.094 25.352C112.166 25.172 112.202 24.902 112.202 24.542V16.208C112.202 15.848 112.166 15.584 112.094 15.416C112.022 15.248 111.89 15.134 111.698 15.074C111.518 15.002 111.224 14.966 110.816 14.966C110.78 14.966 110.762 14.93 110.762 14.858C110.762 14.786 110.78 14.75 110.816 14.75L111.788 14.768C112.34 14.792 112.784 14.804 113.12 14.804C113.576 14.804 114.104 14.792 114.704 14.768L115.694 14.75C115.718 14.75 115.73 14.786 115.73 14.858C115.73 14.93 115.718 14.966 115.694 14.966C115.262 14.966 114.944 15.002 114.74 15.074C114.536 15.146 114.392 15.272 114.308 15.452C114.236 15.62 114.2 15.884 114.2 16.244V19.898H120.014V16.244C120.014 15.884 119.978 15.62 119.906 15.452C119.834 15.272 119.696 15.146 119.492 15.074C119.288 15.002 118.964 14.966 118.52 14.966C118.484 14.966 118.466 14.93 118.466 14.858C118.466 14.786 118.484 14.75 118.52 14.75L119.402 14.768C120.002 14.792 120.542 14.804 121.022 14.804C121.346 14.804 121.808 14.792 122.408 14.768L123.416 14.75C123.452 14.75 123.47 14.786 123.47 14.858C123.47 14.93 123.452 14.966 123.416 14.966C123.008 14.966 122.702 15.002 122.498 15.074C122.306 15.134 122.174 15.248 122.102 15.416C122.042 15.584 122.012 15.848 122.012 16.208V24.542C122.012 24.902 122.042 25.172 122.102 25.352C122.174 25.52 122.306 25.634 122.498 25.694C122.69 25.754 122.996 25.784 123.416 25.784ZM129.836 19.646C131.108 19.646 132.08 19.898 132.752 20.402C133.424 20.894 133.76 21.626 133.76 22.598C133.76 23.294 133.586 23.906 133.238 24.434C132.89 24.95 132.404 25.352 131.78 25.64C131.168 25.928 130.472 26.072 129.692 26.072C129.38 26.072 129.014 26.054 128.594 26.018C128.438 26.018 128.186 26.012 127.838 26C127.49 25.976 127.184 25.964 126.92 25.964L125.768 25.982C125.516 25.994 125.168 26 124.724 26C124.688 26 124.67 25.964 124.67 25.892C124.67 25.82 124.688 25.784 124.724 25.784C125.132 25.76 125.414 25.73 125.57 25.694C125.738 25.646 125.852 25.544 125.912 25.388C125.984 25.22 126.02 24.938 126.02 24.542V16.208C126.02 15.812 125.99 15.536 125.93 15.38C125.87 15.224 125.756 15.122 125.588 15.074C125.432 15.026 125.15 14.99 124.742 14.966C124.718 14.966 124.706 14.93 124.706 14.858C124.706 14.786 124.718 14.75 124.742 14.75L125.642 14.768C126.146 14.792 126.602 14.804 127.01 14.804C127.406 14.804 127.904 14.792 128.504 14.768L129.53 14.75C129.554 14.75 129.566 14.786 129.566 14.858C129.566 14.93 129.554 14.966 129.53 14.966C129.062 14.99 128.738 15.026 128.558 15.074C128.378 15.122 128.246 15.23 128.162 15.398C128.078 15.566 128.036 15.848 128.036 16.244V19.79C128.708 19.694 129.308 19.646 129.836 19.646ZM139.142 25.784C139.178 25.784 139.196 25.82 139.196 25.892C139.196 25.964 139.178 26 139.142 26C138.746 26 138.434 25.994 138.206 25.982L136.838 25.964L135.506 25.982C135.266 25.994 134.942 26 134.534 26C134.51 26 134.498 25.964 134.498 25.892C134.498 25.82 134.51 25.784 134.534 25.784C134.918 25.784 135.2 25.754 135.38 25.694C135.56 25.634 135.68 25.52 135.74 25.352C135.812 25.172 135.848 24.902 135.848 24.542V16.208C135.848 15.848 135.812 15.584 135.74 15.416C135.68 15.248 135.56 15.134 135.38 15.074C135.2 15.002 134.918 14.966 134.534 14.966C134.51 14.966 134.498 14.93 134.498 14.858C134.498 14.786 134.51 14.75 134.534 14.75L135.506 14.768C136.058 14.792 136.502 14.804 136.838 14.804C137.21 14.804 137.672 14.792 138.224 14.768L139.142 14.75C139.178 14.75 139.196 14.786 139.196 14.858C139.196 14.93 139.178 14.966 139.142 14.966C138.77 14.966 138.494 15.002 138.314 15.074C138.134 15.146 138.014 15.272 137.954 15.452C137.894 15.62 137.864 15.884 137.864 16.244V24.542C137.864 24.914 137.894 25.184 137.954 25.352C138.014 25.52 138.128 25.634 138.296 25.694C138.476 25.754 138.758 25.784 139.142 25.784ZM129.368 25.622C130.196 25.622 130.784 25.406 131.132 24.974C131.48 24.53 131.654 23.84 131.654 22.904C131.654 21.944 131.468 21.248 131.096 20.816C130.736 20.372 130.112 20.15 129.224 20.15C128.912 20.15 128.516 20.18 128.036 20.24V24.542C128.036 24.902 128.12 25.172 128.288 25.352C128.468 25.532 128.828 25.622 129.368 25.622ZM147.13 13.976C146.674 13.976 146.242 13.898 145.834 13.742C145.426 13.586 145.096 13.382 144.844 13.13C144.592 12.866 144.466 12.59 144.466 12.302C144.466 12.086 144.532 11.912 144.664 11.78C144.808 11.648 145.006 11.582 145.258 11.582C145.534 11.582 145.726 11.666 145.834 11.834C145.942 11.99 146.044 12.242 146.14 12.59C146.248 12.962 146.362 13.238 146.482 13.418C146.614 13.586 146.824 13.67 147.112 13.67C147.412 13.67 147.628 13.58 147.76 13.4C147.904 13.208 148.036 12.932 148.156 12.572C148.264 12.236 148.372 11.99 148.48 11.834C148.6 11.666 148.786 11.582 149.038 11.582C149.29 11.582 149.482 11.648 149.614 11.78C149.746 11.912 149.812 12.086 149.812 12.302C149.812 12.602 149.686 12.884 149.434 13.148C149.182 13.4 148.852 13.604 148.444 13.76C148.036 13.904 147.598 13.976 147.13 13.976ZM153.106 25.784C153.142 25.784 153.16 25.82 153.16 25.892C153.16 25.964 153.142 26 153.106 26C152.686 26 152.35 25.994 152.098 25.982L150.712 25.964L149.092 25.982C148.876 25.994 148.582 26 148.21 26C148.174 26 148.156 25.964 148.156 25.892C148.156 25.82 148.174 25.784 148.21 25.784C148.654 25.784 148.978 25.754 149.182 25.694C149.386 25.634 149.524 25.52 149.596 25.352C149.668 25.184 149.704 24.914 149.704 24.542V17.18L142.504 26.198C142.468 26.234 142.378 26.252 142.234 26.252C142.006 26.252 141.892 26.21 141.892 26.126V16.208C141.892 15.848 141.856 15.584 141.784 15.416C141.712 15.248 141.58 15.134 141.388 15.074C141.196 15.002 140.896 14.966 140.488 14.966C140.452 14.966 140.434 14.93 140.434 14.858C140.434 14.786 140.452 14.75 140.488 14.75L141.496 14.768C142.096 14.792 142.558 14.804 142.882 14.804C143.362 14.804 143.902 14.792 144.502 14.768L145.384 14.75C145.42 14.75 145.438 14.786 145.438 14.858C145.438 14.93 145.42 14.966 145.384 14.966C144.94 14.966 144.616 15.002 144.412 15.074C144.208 15.134 144.07 15.248 143.998 15.416C143.926 15.584 143.89 15.848 143.89 16.208V23.642L151.09 14.624C151.126 14.588 151.216 14.57 151.36 14.57C151.444 14.57 151.522 14.582 151.594 14.606C151.666 14.63 151.702 14.66 151.702 14.696V24.542C151.702 24.902 151.738 25.172 151.81 25.352C151.882 25.52 152.014 25.634 152.206 25.694C152.398 25.754 152.698 25.784 153.106 25.784ZM87.1833 39.228C86.3473 39.228 85.638 39.0507 85.0553 38.696C84.4853 38.3287 84.0546 37.86 83.7633 37.29C83.4846 36.7073 83.3453 36.0993 83.3453 35.466C83.3453 34.668 83.567 33.9713 84.0103 33.376C84.4536 32.768 85.0173 32.3057 85.7013 31.989C86.398 31.6597 87.1073 31.495 87.8293 31.495C88.4373 31.495 88.982 31.6217 89.4633 31.875C89.9573 32.1283 90.2043 32.4767 90.2043 32.92C90.2043 33.1607 90.1093 33.3697 89.9193 33.547C89.742 33.7117 89.4886 33.794 89.1593 33.794C88.8553 33.794 88.6146 33.718 88.4373 33.566C88.26 33.4013 88.1143 33.1543 88.0003 32.825C87.8863 32.4703 87.7723 32.2297 87.6583 32.103C87.557 31.9637 87.367 31.894 87.0883 31.894C86.5436 31.894 86.1066 32.1663 85.7773 32.711C85.4606 33.243 85.3023 33.9523 85.3023 34.839C85.3023 35.8903 85.5366 36.7327 86.0053 37.366C86.474 37.9867 87.2213 38.297 88.2473 38.297C88.5893 38.297 88.8806 38.259 89.1213 38.183C89.3746 38.107 89.6913 37.9803 90.0713 37.803H90.0903C90.1283 37.803 90.16 37.822 90.1853 37.86C90.2233 37.898 90.2296 37.9297 90.2043 37.955C89.7356 38.3857 89.267 38.7087 88.7983 38.924C88.3296 39.1267 87.7913 39.228 87.1833 39.228ZM95.2003 39.247C94.4149 39.247 93.7246 39.0697 93.1293 38.715C92.5466 38.3477 92.0969 37.86 91.7803 37.252C91.4636 36.6313 91.3053 35.96 91.3053 35.238C91.3053 34.4147 91.5143 33.718 91.9323 33.148C92.3503 32.5653 92.8823 32.1347 93.5283 31.856C94.1743 31.5647 94.8393 31.419 95.5233 31.419C96.3086 31.419 96.9926 31.6027 97.5753 31.97C98.1579 32.3373 98.6013 32.825 98.9053 33.433C99.2219 34.0283 99.3803 34.668 99.3803 35.352C99.3803 36.112 99.1903 36.7897 98.8103 37.385C98.4303 37.9677 97.9173 38.4237 97.2713 38.753C96.6379 39.0823 95.9476 39.247 95.2003 39.247ZM95.7703 38.848C96.2643 38.848 96.6379 38.6073 96.8913 38.126C97.1573 37.632 97.2903 36.929 97.2903 36.017C97.2903 35.1303 97.1763 34.3703 96.9483 33.737C96.7203 33.1037 96.4226 32.6287 96.0553 32.312C95.6879 31.9827 95.2953 31.818 94.8773 31.818C93.8639 31.818 93.3573 32.7237 93.3573 34.535C93.3573 35.3837 93.4649 36.1373 93.6803 36.796C93.8956 37.442 94.1869 37.9487 94.5543 38.316C94.9216 38.6707 95.3269 38.848 95.7703 38.848ZM110.519 38.772C110.557 38.772 110.576 38.81 110.576 38.886C110.576 38.962 110.557 39 110.519 39C110.152 39 109.867 38.9937 109.664 38.981L108.619 38.962L107.612 38.981C107.447 38.9937 107.213 39 106.909 39C106.871 39 106.852 38.962 106.852 38.886C106.852 38.81 106.871 38.772 106.909 38.772C107.213 38.772 107.428 38.7277 107.555 38.639C107.682 38.5377 107.745 38.3287 107.745 38.012C107.745 37.9487 107.732 37.7903 107.707 37.537L107.327 34.402L105.123 39C105.11 39.0507 105.066 39.076 104.99 39.076C104.901 39.076 104.851 39.0507 104.838 39L102.083 34.326L101.874 37.024C101.798 38.1893 102.229 38.772 103.166 38.772C103.204 38.772 103.223 38.81 103.223 38.886C103.223 38.962 103.204 39 103.166 39C102.875 39 102.647 38.9937 102.482 38.981L101.665 38.962L100.867 38.981C100.715 38.9937 100.5 39 100.221 39C100.183 39 100.164 38.962 100.164 38.886C100.164 38.81 100.183 38.772 100.221 38.772C100.614 38.772 100.911 38.6263 101.114 38.335C101.317 38.0437 101.437 37.6067 101.475 37.024L101.874 31.609C101.874 31.571 101.912 31.5393 101.988 31.514C102.064 31.476 102.146 31.457 102.235 31.457C102.362 31.457 102.444 31.4887 102.482 31.552L105.674 36.929L108.258 31.552C108.283 31.514 108.34 31.495 108.429 31.495C108.505 31.495 108.581 31.514 108.657 31.552C108.746 31.5773 108.79 31.6027 108.79 31.628L109.474 37.461C109.525 37.879 109.575 38.1703 109.626 38.335C109.677 38.4997 109.765 38.6137 109.892 38.677C110.019 38.7403 110.228 38.772 110.519 38.772ZM118.145 37.746C118.171 37.746 118.196 37.7713 118.221 37.822C118.259 37.8727 118.266 37.9107 118.24 37.936C117.772 38.392 117.297 38.7213 116.815 38.924C116.334 39.1267 115.808 39.228 115.238 39.228C114.44 39.228 113.75 39.0633 113.167 38.734C112.585 38.392 112.141 37.9423 111.837 37.385C111.533 36.815 111.381 36.2007 111.381 35.542C111.381 34.8073 111.565 34.1297 111.932 33.509C112.3 32.8883 112.806 32.4007 113.452 32.046C114.111 31.6787 114.852 31.495 115.675 31.495C116.461 31.495 117.069 31.6723 117.499 32.027C117.93 32.3817 118.145 32.9327 118.145 33.68C118.145 34.0727 118.076 34.269 117.936 34.269L113.319 34.288C113.307 34.3767 113.3 34.5223 113.3 34.725C113.3 35.8397 113.554 36.7137 114.06 37.347C114.58 37.9803 115.321 38.297 116.283 38.297C116.625 38.297 116.917 38.259 117.157 38.183C117.398 38.107 117.715 37.9677 118.107 37.765L118.145 37.746ZM114.953 31.875C114.535 31.875 114.187 32.0587 113.908 32.426C113.63 32.7807 113.446 33.2747 113.357 33.908L116.112 33.87C116.1 33.224 116.005 32.73 115.827 32.388C115.65 32.046 115.359 31.875 114.953 31.875ZM127.075 38.772C127.138 38.772 127.17 38.81 127.17 38.886C127.17 38.962 127.138 39 127.075 39C126.847 39 126.492 38.9873 126.011 38.962C125.504 38.9367 125.137 38.924 124.909 38.924C124.706 38.924 124.377 38.9367 123.921 38.962C123.49 38.9873 123.186 39 123.009 39C122.958 39 122.933 38.962 122.933 38.886C122.933 38.81 122.958 38.772 123.009 38.772C123.288 38.772 123.49 38.7403 123.617 38.677C123.744 38.601 123.807 38.4933 123.807 38.354C123.807 38.2527 123.769 38.1197 123.693 37.955C123.63 37.7777 123.554 37.594 123.465 37.404L121.869 34.003L120.729 36.663C120.501 37.195 120.387 37.6257 120.387 37.955C120.387 38.4997 120.691 38.772 121.299 38.772C121.362 38.772 121.394 38.81 121.394 38.886C121.394 38.962 121.362 39 121.299 39C121.16 39 120.963 38.9873 120.71 38.962C120.457 38.9367 120.216 38.924 119.988 38.924C119.722 38.924 119.462 38.9367 119.209 38.962C118.981 38.9873 118.778 39 118.601 39C118.538 39 118.506 38.962 118.506 38.886C118.506 38.81 118.538 38.772 118.601 38.772C118.829 38.772 119.07 38.6137 119.323 38.297C119.589 37.9677 119.912 37.366 120.292 36.492L122.496 31.381C122.521 31.3303 122.559 31.305 122.61 31.305C122.661 31.305 122.699 31.3303 122.724 31.381L125.08 36.397C125.409 37.119 125.663 37.6383 125.84 37.955C126.017 38.259 126.195 38.4743 126.372 38.601C126.549 38.715 126.784 38.772 127.075 38.772ZM132.023 34.649C133.974 34.649 134.949 35.3077 134.949 36.625C134.949 37.347 134.671 37.9297 134.113 38.373C133.569 38.8163 132.853 39.038 131.966 39.038L130.94 39C130.332 38.9747 129.895 38.962 129.629 38.962L128.527 38.981C128.325 38.9937 128.04 39 127.672 39C127.634 39 127.615 38.962 127.615 38.886C127.615 38.81 127.634 38.772 127.672 38.772C127.976 38.772 128.198 38.7403 128.337 38.677C128.489 38.6137 128.591 38.4933 128.641 38.316C128.692 38.126 128.717 37.841 128.717 37.461V33.205C128.717 32.825 128.692 32.5463 128.641 32.369C128.591 32.179 128.489 32.0523 128.337 31.989C128.198 31.9257 127.983 31.894 127.691 31.894C127.653 31.894 127.634 31.856 127.634 31.78C127.634 31.704 127.653 31.666 127.691 31.666C128.046 31.666 128.318 31.6723 128.508 31.685L129.629 31.704L130.807 31.685C131.035 31.6723 131.346 31.666 131.738 31.666C131.764 31.666 131.776 31.704 131.776 31.78C131.776 31.856 131.764 31.894 131.738 31.894C131.371 31.894 131.099 31.932 130.921 32.008C130.757 32.084 130.643 32.217 130.579 32.407C130.516 32.5843 130.484 32.863 130.484 33.243V34.82C130.953 34.706 131.466 34.649 132.023 34.649ZM131.567 38.753C132.074 38.753 132.448 38.62 132.688 38.354C132.929 38.0753 133.049 37.6383 133.049 37.043C133.049 35.7257 132.479 35.067 131.339 35.067C131.073 35.067 130.788 35.105 130.484 35.181V37.461C130.484 37.917 130.56 38.2463 130.712 38.449C130.864 38.6517 131.149 38.753 131.567 38.753ZM142.693 37.746C142.719 37.746 142.744 37.7713 142.769 37.822C142.807 37.8727 142.814 37.9107 142.788 37.936C142.32 38.392 141.845 38.7213 141.363 38.924C140.882 39.1267 140.356 39.228 139.786 39.228C138.988 39.228 138.298 39.0633 137.715 38.734C137.133 38.392 136.689 37.9423 136.385 37.385C136.081 36.815 135.929 36.2007 135.929 35.542C135.929 34.8073 136.113 34.1297 136.48 33.509C136.848 32.8883 137.354 32.4007 138 32.046C138.659 31.6787 139.4 31.495 140.223 31.495C141.009 31.495 141.617 31.6723 142.047 32.027C142.478 32.3817 142.693 32.9327 142.693 33.68C142.693 34.0727 142.624 34.269 142.484 34.269L137.867 34.288C137.855 34.3767 137.848 34.5223 137.848 34.725C137.848 35.8397 138.102 36.7137 138.608 37.347C139.128 37.9803 139.869 38.297 140.831 38.297C141.173 38.297 141.465 38.259 141.705 38.183C141.946 38.107 142.263 37.9677 142.655 37.765L142.693 37.746ZM139.501 31.875C139.083 31.875 138.735 32.0587 138.456 32.426C138.178 32.7807 137.994 33.2747 137.905 33.908L140.66 33.87C140.648 33.224 140.553 32.73 140.375 32.388C140.198 32.046 139.907 31.875 139.501 31.875Z" fill="black"/>
</svg>
